<svg width="139" height="32" viewBox="0 0 139 32" fill="none" xmlns="http://www.w3.org/2000/svg">
<mask id="path-1-inside-1_7998_32370" fill="white">
<path fill-rule="evenodd" clip-rule="evenodd" d="M1.52209 27.1963C1.26169 27.4295 0.851231 27.4329 0.651199 27.1462C0.227419 26.5388 0 25.8959 0 25.2305C0 21.4961 7.16344 18.4688 16 18.4688C24.8366 18.4688 32 21.4961 32 25.2305C32 25.8958 31.7727 26.5386 31.349 27.1459C31.149 27.4326 30.7385 27.4293 30.4781 27.1961C27.9179 24.9031 22.3975 23.3165 16.0002 23.3165C9.60277 23.3165 4.08224 24.9032 1.52209 27.1963Z"/>
</mask>
<g filter="url(#filter0_ii_7998_32370)">
<path fill-rule="evenodd" clip-rule="evenodd" d="M1.52209 27.1963C1.26169 27.4295 0.851231 27.4329 0.651199 27.1462C0.227419 26.5388 0 25.8959 0 25.2305C0 21.4961 7.16344 18.4688 16 18.4688C24.8366 18.4688 32 21.4961 32 25.2305C32 25.8958 31.7727 26.5386 31.349 27.1459C31.149 27.4326 30.7385 27.4293 30.4781 27.1961C27.9179 24.9031 22.3975 23.3165 16.0002 23.3165C9.60277 23.3165 4.08224 24.9032 1.52209 27.1963Z" fill="#FE6A19"/>
</g>
<path d="M31.349 27.1459L31.106 26.9763L31.349 27.1459ZM30.4781 27.1961L30.6758 26.9753L30.4781 27.1961ZM0.651199 27.1462L0.894194 26.9766L0.651199 27.1462ZM1.52209 27.1963L1.3244 26.9756L1.52209 27.1963ZM0.296297 25.2305C0.296297 25.8248 0.49865 26.4097 0.894194 26.9766L0.408205 27.3157C-0.0438118 26.6679 -0.296295 25.9669 -0.296295 25.2305H0.296297ZM16 18.765C11.6115 18.765 7.6525 19.5173 4.80163 20.7221C3.37561 21.3248 2.24074 22.0348 1.46678 22.8081C0.693989 23.5803 0.296297 24.3986 0.296297 25.2305H-0.296295C-0.296295 24.1952 0.201443 23.2347 1.04794 22.3889C1.89327 21.5443 3.10154 20.7973 4.57095 20.1763C7.51095 18.9338 11.5519 18.1725 16 18.1725V18.765ZM31.7037 25.2305C31.7037 24.3986 31.306 23.5803 30.5332 22.8081C29.7593 22.0348 28.6244 21.3248 27.1984 20.7221C24.3475 19.5173 20.3885 18.765 16 18.765V18.1725C20.4481 18.1725 24.4891 18.9338 27.429 20.1763C28.8985 20.7973 30.1067 21.5443 30.9521 22.3889C31.7986 23.2347 32.2963 24.1952 32.2963 25.2305H31.7037ZM31.106 26.9763C31.5014 26.4095 31.7037 25.8247 31.7037 25.2305H32.2963C32.2963 25.9668 32.0439 26.6677 31.592 27.3154L31.106 26.9763ZM30.2805 27.4168C29.048 26.313 27.0767 25.3592 24.5999 24.6822C22.1284 24.0067 19.1755 23.6128 16.0002 23.6128L16.0002 23.0202C19.2222 23.0202 22.2282 23.4196 24.7562 24.1106C27.2789 24.8002 29.348 25.7862 30.6758 26.9753L30.2805 27.4168ZM16.0002 23.6128C12.8249 23.6128 9.8719 24.0067 7.4003 24.6823C4.92345 25.3593 2.95221 26.3131 1.71977 27.417L1.3244 26.9756C2.65212 25.7864 4.72122 24.8003 7.24404 24.1107C9.77211 23.4196 12.7781 23.0202 16.0002 23.0202L16.0002 23.6128ZM31.592 27.3154C31.2643 27.7852 30.6371 27.7361 30.2805 27.4168L30.6758 26.9753C30.7501 27.0419 30.8435 27.0728 30.9254 27.0698C31.0034 27.067 31.0651 27.0349 31.106 26.9763L31.592 27.3154ZM0.894194 26.9766C0.935078 27.0352 0.996815 27.0673 1.07482 27.0701C1.1567 27.0731 1.25008 27.0422 1.3244 26.9756L1.71977 27.417C1.36319 27.7364 0.735998 27.7855 0.408205 27.3157L0.894194 26.9766Z" fill="white" fill-opacity="0.15" mask="url(#path-1-inside-1_7998_32370)"/>
<mask id="path-3-inside-2_7998_32370" fill="white">
<path fill-rule="evenodd" clip-rule="evenodd" d="M1.22767 23.8773C0.944088 23.5901 0.450268 23.5937 0.284258 23.9616C0.0976658 24.3752 0 24.8021 0 25.2386C0 28.9771 7.16344 32.0078 16 32.0078C24.8366 32.0078 32 28.9771 32 25.2386C32 24.8022 31.9024 24.3754 31.7159 23.962C31.5499 23.5941 31.0561 23.5904 30.7725 23.8776C28.3605 26.3204 22.6548 28.0372 16.0002 28.0372C9.34545 28.0372 3.63957 26.3202 1.22767 23.8773Z"/>
</mask>
<g filter="url(#filter1_ii_7998_32370)">
<path fill-rule="evenodd" clip-rule="evenodd" d="M1.22767 23.8773C0.944088 23.5901 0.450268 23.5937 0.284258 23.9616C0.0976658 24.3752 0 24.8021 0 25.2386C0 28.9771 7.16344 32.0078 16 32.0078C24.8366 32.0078 32 28.9771 32 25.2386C32 24.8022 31.9024 24.3754 31.7159 23.962C31.5499 23.5941 31.0561 23.5904 30.7725 23.8776C28.3605 26.3204 22.6548 28.0372 16.0002 28.0372C9.34545 28.0372 3.63957 26.3202 1.22767 23.8773Z" fill="#FE6A19"/>
</g>
<path d="M31.7159 23.962L31.986 23.8402L31.7159 23.962ZM30.7725 23.8776L30.5617 23.6694L30.7725 23.8776ZM0.284258 23.9616L0.014183 23.8398L0.284258 23.9616ZM1.22767 23.8773L1.01682 24.0855L1.22767 23.8773ZM0.296297 25.2386C0.296297 24.8475 0.38357 24.462 0.554335 24.0835L0.014183 23.8398C-0.188236 24.2884 -0.296295 24.7566 -0.296295 25.2386H0.296297ZM16 31.7115C11.6116 31.7115 7.65257 30.9584 4.80174 29.7523C3.37574 29.149 2.24087 28.4382 1.4669 27.664C0.694099 26.891 0.296297 26.0716 0.296297 25.2386H-0.296295C-0.296295 26.2748 0.20133 27.2362 1.04782 28.083C1.89314 28.9285 3.10141 29.6763 4.57084 30.298C7.51087 31.5419 11.5519 32.3041 16 32.3041V31.7115ZM31.7037 25.2386C31.7037 26.0716 31.3059 26.891 30.5331 27.664C29.7591 28.4382 28.6243 29.149 27.1983 29.7523C24.3474 30.9584 20.3884 31.7115 16 31.7115V32.3041C20.4481 32.3041 24.4891 31.5419 27.4292 30.298C28.8986 29.6763 30.1069 28.9285 30.9522 28.083C31.7987 27.2362 32.2963 26.2748 32.2963 25.2386H31.7037ZM31.4458 24.0839C31.6165 24.4622 31.7037 24.8476 31.7037 25.2386H32.2963C32.2963 24.7568 32.1883 24.2887 31.986 23.8402L31.4458 24.0839ZM30.5617 23.6694C29.4065 24.8393 27.4324 25.8607 24.8956 26.5886C22.3656 27.3146 19.3033 27.7409 16.0002 27.7409V28.3335C19.3517 28.3335 22.4696 27.9013 25.059 27.1582C27.6417 26.4171 29.7265 25.3587 30.9834 24.0858L30.5617 23.6694ZM16.0002 27.7409C12.697 27.7409 9.63468 27.3146 7.1046 26.5885C4.56775 25.8605 2.59362 24.8391 1.43852 23.6691L1.01682 24.0855C2.27363 25.3584 4.35839 26.4169 6.94114 27.1581C9.53068 27.9013 12.6487 28.3335 16.0002 28.3335V27.7409ZM31.986 23.8402C31.8517 23.5425 31.5803 23.3952 31.3065 23.3784C31.04 23.3621 30.7626 23.466 30.5617 23.6694L30.9834 24.0858C31.0661 24.002 31.1774 23.9642 31.2702 23.9699C31.3557 23.9751 31.4141 24.0136 31.4458 24.0839L31.986 23.8402ZM0.554335 24.0835C0.586037 24.0132 0.644487 23.9748 0.729979 23.9695C0.822781 23.9639 0.934088 24.0017 1.01682 24.0855L1.43852 23.6691C1.23767 23.4657 0.960278 23.3617 0.693771 23.3781C0.419952 23.3948 0.148489 23.5421 0.014183 23.8398L0.554335 24.0835Z" fill="white" fill-opacity="0.15" mask="url(#path-3-inside-2_7998_32370)"/>
<mask id="path-5-inside-3_7998_32370" fill="white">
<path fill-rule="evenodd" clip-rule="evenodd" d="M3.33162 18.2534C3.10376 18.4576 2.74457 18.4605 2.56955 18.2096C2.1989 17.6782 2 17.1158 2 16.5337C2 13.2661 8.26801 10.6172 16 10.6172C23.732 10.6172 30 13.2661 30 16.5337C30 17.1157 29.8012 17.678 29.4307 18.2093C29.2557 18.4602 28.8965 18.4573 28.6686 18.2532C26.4284 16.2468 21.598 14.8584 16.0002 14.8584C10.4023 14.8584 5.57166 16.2469 3.33162 18.2534Z"/>
</mask>
<g filter="url(#filter2_ii_7998_32370)">
<path fill-rule="evenodd" clip-rule="evenodd" d="M3.33162 18.2534C3.10376 18.4576 2.74457 18.4605 2.56955 18.2096C2.1989 17.6782 2 17.1158 2 16.5337C2 13.2661 8.26801 10.6172 16 10.6172C23.732 10.6172 30 13.2661 30 16.5337C30 17.1157 29.8012 17.678 29.4307 18.2093C29.2557 18.4602 28.8965 18.4573 28.6686 18.2532C26.4284 16.2468 21.598 14.8584 16.0002 14.8584C10.4023 14.8584 5.57166 16.2469 3.33162 18.2534Z" fill="#FE6A19"/>
</g>
<path d="M29.4307 18.2093L29.6433 18.3576L29.4307 18.2093ZM2.56955 18.2096L2.35691 18.3579L2.56955 18.2096ZM3.33162 18.2534L3.50461 18.4466L3.33162 18.2534ZM2.25926 16.5337C2.25926 17.0537 2.43624 17.5653 2.78218 18.0612L2.35691 18.3579C1.96156 17.7911 1.74074 17.1779 1.74074 16.5337H2.25926ZM16 10.8764C12.1601 10.8764 8.69593 11.5347 6.20143 12.5889C4.95366 13.1162 3.96065 13.7375 3.28344 14.4141C2.60724 15.0898 2.25926 15.8058 2.25926 16.5337H1.74074C1.74074 15.6278 2.17626 14.7874 2.91694 14.0473C3.65661 13.3083 4.71385 12.6546 5.99958 12.1113C8.57208 11.0241 12.1079 10.3579 16 10.3579L16 10.8764ZM29.7407 16.5337C29.7407 15.8058 29.3928 15.0898 28.7166 14.4141C28.0394 13.7375 27.0463 13.1162 25.7986 12.5889C23.3041 11.5347 19.8399 10.8764 16 10.8764L16 10.3579C19.8921 10.3579 23.4279 11.0241 26.0004 12.1113C27.2862 12.6546 28.3434 13.3083 29.0831 14.0473C29.8237 14.7874 30.2593 15.6278 30.2593 16.5337H29.7407ZM29.218 18.061C29.5638 17.5651 29.7407 17.0536 29.7407 16.5337H30.2593C30.2593 17.1778 30.0385 17.7909 29.6433 18.3576L29.218 18.061ZM28.4956 18.4463C27.4172 17.4805 25.6924 16.6459 23.5252 16.0535C21.3625 15.4623 18.7787 15.1177 16.0002 15.1177V14.5991C18.8196 14.5991 21.4498 14.9487 23.6619 15.5533C25.8693 16.1567 27.6798 17.0195 28.8416 18.0601L28.4956 18.4463ZM16.0002 15.1177C13.2217 15.1177 10.6378 15.4624 8.47507 16.0536C6.30778 16.646 4.58294 17.4806 3.50461 18.4466L3.15864 18.0603C4.32034 17.0197 6.13082 16.1568 8.33834 15.5534C10.5504 14.9487 13.1808 14.5991 16.0002 14.5991V15.1177ZM29.6433 18.3576C29.3565 18.7688 28.8077 18.7258 28.4956 18.4463L28.8416 18.0601C28.9066 18.1183 28.9883 18.1454 29.06 18.1428C29.1282 18.1403 29.1822 18.1122 29.218 18.061L29.6433 18.3576ZM2.78218 18.0612C2.81795 18.1125 2.87197 18.1406 2.94024 18.143C3.01188 18.1457 3.09361 18.1186 3.15864 18.0603L3.50461 18.4466C3.19259 18.7261 2.64372 18.7691 2.35691 18.3579L2.78218 18.0612Z" fill="white" fill-opacity="0.15" mask="url(#path-5-inside-3_7998_32370)"/>
<mask id="path-7-inside-4_7998_32370" fill="white">
<path fill-rule="evenodd" clip-rule="evenodd" d="M3.07431 15.3543C2.82619 15.103 2.39412 15.1062 2.24885 15.4281C2.0855 15.79 2 16.1636 2 16.5457C2 19.8169 8.26801 22.4688 16 22.4688C23.732 22.4688 30 19.8169 30 16.5457C30 16.1638 29.9146 15.7903 29.7513 15.4285C29.6061 15.1066 29.174 15.1033 28.9259 15.3546C26.8153 17.492 21.8229 18.9941 16.0002 18.9941C10.1774 18.9941 5.18476 17.4918 3.07431 15.3543Z"/>
</mask>
<g filter="url(#filter3_ii_7998_32370)">
<path fill-rule="evenodd" clip-rule="evenodd" d="M3.07431 15.3543C2.82619 15.103 2.39412 15.1062 2.24885 15.4281C2.0855 15.79 2 16.1636 2 16.5457C2 19.8169 8.26801 22.4688 16 22.4688C23.732 22.4688 30 19.8169 30 16.5457C30 16.1638 29.9146 15.7903 29.7513 15.4285C29.6061 15.1066 29.174 15.1033 28.9259 15.3546C26.8153 17.492 21.8229 18.9941 16.0002 18.9941C10.1774 18.9941 5.18476 17.4918 3.07431 15.3543Z" fill="#FE6A19"/>
</g>
<path d="M28.9259 15.3546L29.1104 15.5368L28.9259 15.3546ZM2.24885 15.4281L2.48515 15.5347L2.24885 15.4281ZM3.07431 15.3543L3.2588 15.1722L3.07431 15.3543ZM2.25926 16.5457C2.25926 16.2034 2.33566 15.866 2.48515 15.5347L2.01254 15.3214C1.83534 15.7141 1.74074 16.1239 1.74074 16.5457L2.25926 16.5457ZM16 22.2095C12.1601 22.2095 8.696 21.5505 6.20152 20.4952C4.95377 19.9673 3.96076 19.3453 3.28354 18.6679C2.60734 17.9915 2.25926 17.2746 2.25926 16.5457L1.74074 16.5457C1.74074 17.4524 2.17616 18.2936 2.91684 19.0345C3.6565 19.7744 4.71373 20.4287 5.99949 20.9727C8.57201 22.0611 12.1079 22.728 16 22.728L16 22.2095ZM29.7407 16.5457C29.7407 17.2746 29.3927 17.9915 28.7165 18.6679C28.0392 19.3453 27.0462 19.9673 25.7985 20.4952C23.304 21.5505 19.8399 22.2095 16 22.2095L16 22.728C19.8921 22.728 23.428 22.0611 26.0005 20.9727C27.2863 20.4287 28.3435 19.7744 29.0832 19.0345C29.8238 18.2936 30.2593 17.4524 30.2593 16.5457H29.7407ZM29.515 15.5351C29.6644 15.8662 29.7407 16.2035 29.7407 16.5457H30.2593C30.2593 16.124 30.1647 15.7143 29.9876 15.3218L29.515 15.5351ZM28.7414 15.1724C27.7306 16.1961 26.0032 17.0897 23.7836 17.7267C21.5698 18.3619 18.8904 18.7349 16.0002 18.7349L16.0002 19.2534C18.9327 19.2534 21.6608 18.8753 23.9266 18.2251C26.1864 17.5766 28.0106 16.6505 29.1104 15.5368L28.7414 15.1724ZM16.0002 18.7349C13.1099 18.7349 10.4304 18.3619 8.21663 17.7266C5.99689 17.0896 4.26953 16.1959 3.2588 15.1722L2.88982 15.5365C3.98954 16.6503 5.8137 17.5765 8.0736 18.225C10.3394 18.8752 13.0677 19.2534 16.0002 19.2534L16.0002 18.7349ZM29.9876 15.3218C29.8701 15.0614 29.6326 14.9325 29.3931 14.9178C29.1599 14.9035 28.9172 14.9945 28.7414 15.1724L29.1104 15.5368C29.1828 15.4635 29.2801 15.4304 29.3613 15.4354C29.4361 15.44 29.4873 15.4736 29.515 15.5351L29.9876 15.3218ZM2.48515 15.5347C2.5129 15.4733 2.56404 15.4396 2.63885 15.435C2.72005 15.4301 2.81743 15.4632 2.88982 15.5365L3.2588 15.1722C3.08306 14.9942 2.84036 14.9032 2.60717 14.9175C2.3676 14.9321 2.13007 15.061 2.01254 15.3214L2.48515 15.5347Z" fill="white" fill-opacity="0.15" mask="url(#path-7-inside-4_7998_32370)"/>
<mask id="path-9-inside-5_7998_32370" fill="white">
<path fill-rule="evenodd" clip-rule="evenodd" d="M5.14119 11.006C4.94587 11.1809 4.63794 11.1834 4.48793 10.9683C4.1704 10.513 4 10.031 4 9.53224C4 6.73144 9.37258 4.46094 16 4.46094C22.6274 4.46094 28 6.73144 28 9.53224C28 10.0309 27.8297 10.5128 27.5123 10.968C27.3623 11.1832 27.0544 11.1807 26.859 11.0057C24.939 9.28584 20.7985 8.0957 16.0002 8.0957C11.2018 8.0957 7.06112 9.28595 5.14119 11.006Z"/>
</mask>
<g filter="url(#filter4_ii_7998_32370)">
<path fill-rule="evenodd" clip-rule="evenodd" d="M5.14119 11.006C4.94587 11.1809 4.63794 11.1834 4.48793 10.9683C4.1704 10.513 4 10.031 4 9.53224C4 6.73144 9.37258 4.46094 16 4.46094C22.6274 4.46094 28 6.73144 28 9.53224C28 10.0309 27.8297 10.5128 27.5123 10.968C27.3623 11.1832 27.0544 11.1807 26.859 11.0057C24.939 9.28584 20.7985 8.0957 16.0002 8.0957C11.2018 8.0957 7.06112 9.28595 5.14119 11.006Z" fill="#FE6A19"/>
</g>
<path d="M27.5123 10.968L27.6946 11.0951L27.5123 10.968ZM26.859 11.0057L27.0073 10.8402L26.859 11.0057ZM4.48793 10.9683L4.67021 10.8412L4.48793 10.9683ZM5.14119 11.006L4.99291 10.8404L5.14119 11.006ZM4.22222 9.53224C4.22222 9.97779 4.37384 10.4162 4.67021 10.8412L4.30566 11.0954C3.96695 10.6098 3.77778 10.0843 3.77778 9.53224H4.22222ZM16 4.68316C12.7086 4.68316 9.73937 5.24738 7.60122 6.15098C6.53171 6.60297 5.68055 7.13548 5.10009 7.71546C4.52049 8.29457 4.22222 8.9083 4.22222 9.53224H3.77778C3.77778 8.75577 4.15108 8.03539 4.78595 7.40106C5.41995 6.76759 6.32615 6.20733 7.42821 5.74159C9.63321 4.80974 12.6639 4.23872 16 4.23872V4.68316ZM27.7778 9.53224C27.7778 8.9083 27.4795 8.29457 26.8999 7.71546C26.3194 7.13548 25.4683 6.60297 24.3988 6.15098C22.2606 5.24738 19.2914 4.68316 16 4.68316V4.23872C19.3361 4.23872 22.3668 4.80974 24.5718 5.74159C25.6738 6.20733 26.58 6.76759 27.214 7.40106C27.8489 8.03539 28.2222 8.75577 28.2222 9.53224H27.7778ZM27.33 10.8409C27.6262 10.4161 27.7778 9.97769 27.7778 9.53224H28.2222C28.2222 10.0842 28.0331 10.6095 27.6946 11.0951L27.33 10.8409ZM26.7108 11.1712C25.7865 10.3433 24.308 9.62792 22.4504 9.12011C20.5966 8.61338 18.3818 8.31793 16.0002 8.31793V7.87348C18.4169 7.87348 20.6715 8.17309 22.5676 8.6914C24.4597 9.20863 26.0115 9.94825 27.0073 10.8402L26.7108 11.1712ZM16.0002 8.31793C13.6185 8.31793 11.4037 8.61341 9.54986 9.12019C7.69214 9.62803 6.21371 10.3435 5.28947 11.1715L4.99291 10.8404C5.98861 9.94843 7.54046 9.20875 9.43267 8.69147C11.3288 8.17312 13.5835 7.87348 16.0002 7.87348V8.31793ZM27.6946 11.0951C27.4488 11.4477 26.9782 11.4108 26.7108 11.1712L27.0073 10.8402C27.063 10.8901 27.1331 10.9133 27.1945 10.9111C27.253 10.9089 27.2993 10.8849 27.33 10.8409L27.6946 11.0951ZM4.67021 10.8412C4.70086 10.8852 4.74717 10.9092 4.80568 10.9113C4.8671 10.9136 4.93716 10.8904 4.99291 10.8404L5.28947 11.1715C5.02202 11.4111 4.55148 11.448 4.30566 11.0954L4.67021 10.8412Z" fill="white" fill-opacity="0.15" mask="url(#path-9-inside-5_7998_32370)"/>
<mask id="path-11-inside-6_7998_32370" fill="white">
<path fill-rule="evenodd" clip-rule="evenodd" d="M4.92093 8.51888C4.70826 8.30349 4.33795 8.30622 4.21341 8.58209C4.07332 8.89239 4 9.2127 4 9.54026C4 12.3442 9.37258 14.6172 16 14.6172C22.6274 14.6172 28 12.3442 28 9.54026C28 9.21284 27.9267 8.89265 27.7868 8.58247C27.6623 8.30658 27.292 8.30381 27.0793 8.51918C25.2701 10.3511 20.991 11.6387 16.0002 11.6387C11.0093 11.6387 6.72992 10.351 4.92093 8.51888Z"/>
</mask>
<g filter="url(#filter5_ii_7998_32370)">
<path fill-rule="evenodd" clip-rule="evenodd" d="M4.92093 8.51888C4.70826 8.30349 4.33795 8.30622 4.21341 8.58209C4.07332 8.89239 4 9.2127 4 9.54026C4 12.3442 9.37258 14.6172 16 14.6172C22.6274 14.6172 28 12.3442 28 9.54026C28 9.21284 27.9267 8.89265 27.7868 8.58247C27.6623 8.30658 27.292 8.30381 27.0793 8.51918C25.2701 10.3511 20.991 11.6387 16.0002 11.6387C11.0093 11.6387 6.72992 10.351 4.92093 8.51888Z" fill="#FE6A19"/>
</g>
<path d="M27.0793 8.51918L26.9212 8.36303L27.0793 8.51918ZM4.21341 8.58209L4.01087 8.49066L4.21341 8.58209ZM4.92093 8.51888L4.7628 8.67501L4.92093 8.51888ZM4.22222 9.54026C4.22222 9.24678 4.28774 8.95751 4.41595 8.67353L4.01087 8.49066C3.8589 8.82727 3.77778 9.17862 3.77778 9.54026L4.22222 9.54026ZM16 14.395C12.7087 14.395 9.73943 13.8301 7.60131 12.9255C6.53181 12.4731 5.68065 11.9399 5.10018 11.3593C4.52057 10.7796 4.22222 10.1651 4.22222 9.54026L3.77778 9.54026C3.77778 10.3174 4.151 11.0385 4.78586 11.6735C5.41986 12.3077 6.32606 12.8686 7.42813 13.3349C9.63315 14.2677 12.6639 14.8394 16 14.8394V14.395ZM27.7778 9.54026C27.7778 10.1651 27.4794 10.7796 26.8998 11.3593C26.3193 11.9399 25.4682 12.4731 24.3987 12.9255C22.2606 13.8301 19.2913 14.395 16 14.395V14.8394C19.3361 14.8394 22.3668 14.2677 24.5719 13.3349C25.6739 12.8686 26.5801 12.3077 27.2141 11.6735C27.849 11.0385 28.2222 10.3174 28.2222 9.54026H27.7778ZM27.5842 8.67388C27.7123 8.95774 27.7778 9.2469 27.7778 9.54026H28.2222C28.2222 9.17877 28.1412 8.82755 27.9893 8.49107L27.5842 8.67388ZM26.9212 8.36303C26.0547 9.2404 24.5741 10.0064 22.6715 10.5523C20.7741 11.0968 18.4775 11.4164 16.0002 11.4164L16.0002 11.8609C18.5137 11.8609 20.8521 11.5368 22.7941 10.9795C24.7311 10.4237 26.2947 9.62992 27.2374 8.67533L26.9212 8.36303ZM16.0002 11.4164C13.5229 11.4164 11.2262 11.0968 9.32863 10.5522C7.42602 10.0062 5.94542 9.24018 5.07906 8.36275L4.7628 8.67501C5.70543 9.6297 7.269 10.4235 9.20604 10.9794C11.1482 11.5368 13.4866 11.8609 16.0002 11.8609L16.0002 11.4164ZM27.9893 8.49107C27.8886 8.26786 27.685 8.15738 27.4797 8.1448C27.2798 8.13254 27.0718 8.21049 26.9212 8.36303L27.2374 8.67533C27.2994 8.61249 27.3829 8.58414 27.4525 8.58841C27.5166 8.59234 27.5604 8.62119 27.5842 8.67388L27.9893 8.49107ZM4.41595 8.67353C4.43973 8.62084 4.48357 8.59199 4.54769 8.58807C4.61728 8.58381 4.70075 8.61217 4.7628 8.67501L5.07906 8.36275C4.92843 8.2102 4.72041 8.13223 4.52055 8.14445C4.31521 8.15702 4.11162 8.26747 4.01087 8.49066L4.41595 8.67353Z" fill="white" fill-opacity="0.15" mask="url(#path-11-inside-6_7998_32370)"/>
<mask id="path-13-inside-7_7998_32370" fill="white">
<path fill-rule="evenodd" clip-rule="evenodd" d="M6.95111 5.45436C6.78835 5.60017 6.53176 5.60225 6.40675 5.42302C6.14205 5.04353 6 4.64182 6 4.22608C6 1.89208 10.4772 0 16 0C21.5228 0 26 1.89208 26 4.22608C26 4.64171 25.858 5.04332 25.5935 5.42273C25.4685 5.60197 25.2119 5.59991 25.0491 5.45412C23.449 4.02095 19.9987 3.02922 16.0002 3.02922C12.0016 3.02922 8.55108 4.02107 6.95111 5.45436Z"/>
</mask>
<g filter="url(#filter6_ii_7998_32370)">
<path fill-rule="evenodd" clip-rule="evenodd" d="M6.95111 5.45436C6.78835 5.60017 6.53176 5.60225 6.40675 5.42302C6.14205 5.04353 6 4.64182 6 4.22608C6 1.89208 10.4772 0 16 0C21.5228 0 26 1.89208 26 4.22608C26 4.64171 25.858 5.04332 25.5935 5.42273C25.4685 5.60197 25.2119 5.59991 25.0491 5.45412C23.449 4.02095 19.9987 3.02922 16.0002 3.02922C12.0016 3.02922 8.55108 4.02107 6.95111 5.45436Z" fill="#FE6A19"/>
</g>
<path d="M25.5935 5.42273L25.7454 5.52865L25.5935 5.42273ZM6.40675 5.42302L6.25486 5.52897L6.40675 5.42302ZM6.18518 4.22608C6.18518 4.59744 6.31158 4.96288 6.55863 5.31708L6.25486 5.52897C5.97252 5.12418 5.81482 4.68619 5.81482 4.22608L6.18518 4.22608ZM16 0.185185C13.2572 0.185185 10.7828 0.65537 9.00102 1.40837C8.10976 1.78502 7.40046 2.22879 6.91674 2.7121C6.43374 3.19469 6.18518 3.70614 6.18518 4.22608L5.81482 4.22608C5.81482 3.57903 6.1259 2.97871 6.65496 2.4501C7.18329 1.92221 7.93846 1.45533 8.85684 1.06721C10.6943 0.290671 13.2199 -0.185185 16 -0.185185V0.185185ZM25.8148 4.22608C25.8148 3.70614 25.5663 3.19469 25.0833 2.7121C24.5995 2.22879 23.8902 1.78502 22.999 1.40837C21.2172 0.65537 18.7428 0.185185 16 0.185185V-0.185185C18.7801 -0.185185 21.3057 0.290671 23.1432 1.06721C24.0615 1.45533 24.8167 1.92221 25.345 2.4501C25.8741 2.97871 26.1852 3.57903 26.1852 4.22608L25.8148 4.22608ZM25.4416 5.3168C25.6885 4.96269 25.8148 4.59734 25.8148 4.22608L26.1852 4.22608C26.1852 4.68607 26.0276 5.12395 25.7454 5.52865L25.4416 5.3168ZM24.9256 5.59206C24.1553 4.90215 22.9233 4.30602 21.3752 3.88286C19.8305 3.46061 17.9849 3.2144 16.0002 3.2144V2.84403C18.0141 2.84403 19.8928 3.0937 21.4729 3.5256C23.0497 3.95661 24.3428 4.57293 25.1727 5.31618L24.9256 5.59206ZM16.0002 3.2144C14.0155 3.2144 12.1698 3.46064 10.625 3.88294C9.07691 4.30613 7.84488 4.90232 7.07467 5.5923L6.82755 5.31643C7.65731 4.57311 8.95051 3.95673 10.5273 3.52567C12.1074 3.09373 13.9863 2.84403 16.0002 2.84403V3.2144ZM25.7454 5.52865C25.5405 5.82239 25.1484 5.7917 24.9256 5.59206L25.1727 5.31618C25.2191 5.35779 25.2775 5.37713 25.3287 5.37525C25.3774 5.37347 25.416 5.35344 25.4416 5.3168L25.7454 5.52865ZM6.55863 5.31708C6.58418 5.35371 6.62277 5.37374 6.67153 5.37552C6.72271 5.37739 6.78109 5.35805 6.82755 5.31643L7.07467 5.5923C6.8518 5.79195 6.45972 5.82268 6.25486 5.52897L6.55863 5.31708Z" fill="white" fill-opacity="0.15" mask="url(#path-13-inside-7_7998_32370)"/>
<mask id="path-15-inside-8_7998_32370" fill="white">
<path fill-rule="evenodd" clip-rule="evenodd" d="M6.76756 3.3787C6.59035 3.19923 6.28181 3.20149 6.17799 3.43135C6.06116 3.69003 6 3.95708 6 4.23017C6 6.56676 10.4772 8.46094 16 8.46094C21.5228 8.46094 26 6.56676 26 4.23017C26 3.95721 25.9389 3.6903 25.8222 3.43173C25.7184 3.20185 25.4099 3.19955 25.2326 3.379C23.7249 4.90556 20.1591 5.97844 16.0002 5.97844C11.8412 5.97844 8.27511 4.90542 6.76756 3.3787Z"/>
</mask>
<g filter="url(#filter7_ii_7998_32370)">
<path fill-rule="evenodd" clip-rule="evenodd" d="M6.76756 3.3787C6.59035 3.19923 6.28181 3.20149 6.17799 3.43135C6.06116 3.69003 6 3.95708 6 4.23017C6 6.56676 10.4772 8.46094 16 8.46094C21.5228 8.46094 26 6.56676 26 4.23017C26 3.95721 25.9389 3.6903 25.8222 3.43173C25.7184 3.20185 25.4099 3.19955 25.2326 3.379C23.7249 4.90556 20.1591 5.97844 16.0002 5.97844C11.8412 5.97844 8.27511 4.90542 6.76756 3.3787Z" fill="#FE6A19"/>
</g>
<path d="M6.17799 3.43135L6.34676 3.50758L6.17799 3.43135ZM6.18518 4.23017C6.18518 3.98549 6.23983 3.74432 6.34676 3.50758L6.00922 3.35512C5.88248 3.63575 5.81482 3.92867 5.81482 4.23017L6.18518 4.23017ZM16 8.27575C13.2572 8.27575 10.7829 7.80505 9.00109 7.05122C8.10984 6.67416 7.40054 6.2299 6.91681 5.74605C6.43381 5.26292 6.18518 4.75083 6.18518 4.23017L5.81482 4.23017C5.81482 4.8778 6.12583 5.47871 6.65489 6.0079C7.18321 6.53637 7.93838 7.00377 8.85678 7.39232C10.6943 8.16973 13.2199 8.64612 16 8.64612V8.27575ZM25.8148 4.23017C25.8148 4.75083 25.5662 5.26292 25.0832 5.74605C24.5995 6.2299 23.8902 6.67416 22.9989 7.05122C21.2171 7.80505 18.7428 8.27575 16 8.27575V8.64612C18.7801 8.64612 21.3057 8.16973 23.1432 7.39232C24.0616 7.00377 24.8168 6.53637 25.3451 6.0079C25.8742 5.47871 26.1852 4.8778 26.1852 4.23017L25.8148 4.23017ZM25.6534 3.50792C25.7602 3.74456 25.8148 3.98561 25.8148 4.23017L26.1852 4.23017C26.1852 3.92881 26.1176 3.63603 25.991 3.35554L25.6534 3.50792ZM25.1009 3.24887C24.3788 3.97997 23.145 4.61825 21.5595 5.07317C19.9783 5.52689 18.0645 5.79325 16.0002 5.79325V6.16362C18.0948 6.16362 20.0433 5.89355 21.6617 5.42918C23.2758 4.96602 24.5788 4.30458 25.3644 3.50913L25.1009 3.24887ZM16.0002 5.79325C13.9358 5.79325 12.0219 5.52685 10.4407 5.07309C8.85516 4.61811 7.62133 3.97976 6.89934 3.24858L6.6358 3.50881C7.42135 4.30436 8.72431 4.96588 10.3385 5.42909C11.9569 5.89352 13.9056 6.16362 16.0002 6.16362V5.79325ZM25.991 3.35554C25.907 3.16956 25.7374 3.07751 25.5663 3.06703C25.3997 3.05682 25.2264 3.12177 25.1009 3.24887L25.3644 3.50913C25.4161 3.45677 25.4856 3.43315 25.5436 3.43671C25.597 3.43998 25.6336 3.46402 25.6534 3.50792L25.991 3.35554ZM6.34676 3.50758C6.36659 3.46367 6.40313 3.43964 6.45656 3.43637C6.51455 3.43282 6.5841 3.45646 6.6358 3.50881L6.89934 3.24858C6.77383 3.12148 6.60049 3.05651 6.43395 3.06669C6.26285 3.07715 6.09321 3.16917 6.00922 3.35512L6.34676 3.50758Z" fill="white" fill-opacity="0.15" mask="url(#path-15-inside-8_7998_32370)"/>
<path d="M56.0154 27.6535H48V4H56.1771C58.5255 4 60.5428 4.47353 62.2291 5.4206C63.923 6.35996 65.2243 7.71126 66.1328 9.47449C67.0414 11.2377 67.4957 13.3474 67.4957 15.8037C67.4957 18.2676 67.0375 20.385 66.1213 22.1559C65.2127 23.9269 63.8999 25.2859 62.1829 26.2329C60.4735 27.18 58.4177 27.6535 56.0154 27.6535ZM52.2849 23.9461H55.8075C57.4552 23.9461 58.8296 23.6458 59.9307 23.0452C61.0318 22.437 61.8595 21.5322 62.4139 20.3311C62.9682 19.1222 63.2454 17.6131 63.2454 15.8037C63.2454 13.9942 62.9682 12.4928 62.4139 11.2993C61.8595 10.0982 61.0395 9.20116 59.9538 8.60828C58.8758 8.0077 57.5361 7.70741 55.9346 7.70741H52.2849V23.9461Z" fill="#1B1B1B"/>
<path d="M80.5367 28C78.7581 28 77.222 27.6304 75.9285 26.8912C74.6426 26.1444 73.6532 25.0895 72.9602 23.7267C72.2673 22.3561 71.9208 20.743 71.9208 18.8874C71.9208 17.0626 72.2673 15.461 72.9602 14.0828C73.6609 12.6968 74.6388 11.6189 75.8938 10.8489C77.1489 10.0712 78.6234 9.68239 80.3173 9.68239C81.4107 9.68239 82.4424 9.85948 83.4126 10.2137C84.3905 10.5602 85.2528 11.0991 85.9997 11.8306C86.7543 12.5621 87.3471 13.4937 87.7783 14.6256C88.2095 15.7498 88.4251 17.0895 88.4251 18.6448V19.9269H73.8842V17.1088H84.4174C84.4097 16.308 84.2365 15.5958 83.8977 14.9721C83.5589 14.3407 83.0854 13.8441 82.4771 13.4822C81.8765 13.1203 81.1758 12.9394 80.3751 12.9394C79.5204 12.9394 78.7697 13.1473 78.1229 13.563C77.4761 13.9711 76.9718 14.5101 76.6099 15.18C76.2557 15.8422 76.0748 16.5698 76.0671 17.3628V19.8229C76.0671 20.8547 76.2557 21.7401 76.633 22.4793C77.0103 23.2108 77.5377 23.7729 78.2153 24.1655C78.8929 24.5505 79.6859 24.743 80.5945 24.743C81.2028 24.743 81.7533 24.6583 82.2461 24.4889C82.7389 24.3118 83.1662 24.0539 83.5281 23.7151C83.89 23.3763 84.1633 22.9567 84.3481 22.4562L88.2519 22.8951C88.0055 23.9269 87.5358 24.8277 86.8428 25.5977C86.1575 26.36 85.2798 26.9528 84.2095 27.3763C83.1392 27.7921 81.915 28 80.5367 28Z" fill="#1B1B1B"/>
<path d="M97.444 4V27.6535H93.2631V4H97.444Z" fill="#1B1B1B"/>
<path d="M118.89 9.91338L112.573 27.6535H107.953L101.635 9.91338H106.093L110.17 23.0914H110.355L114.444 9.91338H118.89Z" fill="#1B1B1B"/>
<path d="M130.335 28C128.556 28 127.02 27.6304 125.726 26.8912C124.441 26.1444 123.451 25.0895 122.758 23.7267C122.065 22.3561 121.719 20.743 121.719 18.8874C121.719 17.0626 122.065 15.461 122.758 14.0828C123.459 12.6968 124.437 11.6189 125.692 10.8489C126.947 10.0712 128.421 9.68239 130.115 9.68239C131.209 9.68239 132.24 9.85948 133.211 10.2137C134.188 10.5602 135.051 11.0991 135.798 11.8306C136.552 12.5621 137.145 13.4937 137.576 14.6256C138.007 15.7498 138.223 17.0895 138.223 18.6448V19.9269H123.682V17.1088H134.215C134.208 16.308 134.034 15.5958 133.696 14.9721C133.357 14.3407 132.883 13.8441 132.275 13.4822C131.674 13.1203 130.974 12.9394 130.173 12.9394C129.318 12.9394 128.568 13.1473 127.921 13.563C127.274 13.9711 126.77 14.5101 126.408 15.18C126.054 15.8422 125.873 16.5698 125.865 17.3628V19.8229C125.865 20.8547 126.054 21.7401 126.431 22.4793C126.808 23.2108 127.336 23.7729 128.013 24.1655C128.691 24.5505 129.484 24.743 130.392 24.743C131.001 24.743 131.551 24.6583 132.044 24.4889C132.537 24.3118 132.964 24.0539 133.326 23.7151C133.688 23.3763 133.961 22.9567 134.146 22.4562L138.05 22.8951C137.803 23.9269 137.334 24.8277 136.641 25.5977C135.955 26.36 135.078 26.9528 134.007 27.3763C132.937 27.7921 131.713 28 130.335 28Z" fill="#1B1B1B"/>
<defs>
<filter id="filter0_ii_7998_32370" x="0" y="17.5799" width="32" height="10.9725" filterUnits="userSpaceOnUse" color-interpolation-filters="sRGB">
<feFlood flood-opacity="0" result="BackgroundImageFix"/>
<feBlend mode="normal" in="SourceGraphic" in2="BackgroundImageFix" result="shape"/>
<feColorMatrix in="SourceAlpha" type="matrix" values="0 0 0 0 0 0 0 0 0 0 0 0 0 0 0 0 0 0 127 0" result="hardAlpha"/>
<feOffset dy="1.18519"/>
<feGaussianBlur stdDeviation="0.592593"/>
<feComposite in2="hardAlpha" operator="arithmetic" k2="-1" k3="1"/>
<feColorMatrix type="matrix" values="0 0 0 0 0 0 0 0 0 0 0 0 0 0 0 0 0 0 0.25 0"/>
<feBlend mode="normal" in2="shape" result="effect1_innerShadow_7998_32370"/>
<feColorMatrix in="SourceAlpha" type="matrix" values="0 0 0 0 0 0 0 0 0 0 0 0 0 0 0 0 0 0 127 0" result="hardAlpha"/>
<feOffset dy="-0.888889"/>
<feGaussianBlur stdDeviation="0.592593"/>
<feComposite in2="hardAlpha" operator="arithmetic" k2="-1" k3="1"/>
<feColorMatrix type="matrix" values="0 0 0 0 1 0 0 0 0 1 0 0 0 0 1 0 0 0 0.25 0"/>
<feBlend mode="normal" in2="effect1_innerShadow_7998_32370" result="effect2_innerShadow_7998_32370"/>
</filter>
<filter id="filter1_ii_7998_32370" x="0" y="22.783" width="32" height="10.41" filterUnits="userSpaceOnUse" color-interpolation-filters="sRGB">
<feFlood flood-opacity="0" result="BackgroundImageFix"/>
<feBlend mode="normal" in="SourceGraphic" in2="BackgroundImageFix" result="shape"/>
<feColorMatrix in="SourceAlpha" type="matrix" values="0 0 0 0 0 0 0 0 0 0 0 0 0 0 0 0 0 0 127 0" result="hardAlpha"/>
<feOffset dy="1.18519"/>
<feGaussianBlur stdDeviation="0.592593"/>
<feComposite in2="hardAlpha" operator="arithmetic" k2="-1" k3="1"/>
<feColorMatrix type="matrix" values="0 0 0 0 0 0 0 0 0 0 0 0 0 0 0 0 0 0 0.25 0"/>
<feBlend mode="normal" in2="shape" result="effect1_innerShadow_7998_32370"/>
<feColorMatrix in="SourceAlpha" type="matrix" values="0 0 0 0 0 0 0 0 0 0 0 0 0 0 0 0 0 0 127 0" result="hardAlpha"/>
<feOffset dy="-0.888889"/>
<feGaussianBlur stdDeviation="0.592593"/>
<feComposite in2="hardAlpha" operator="arithmetic" k2="-1" k3="1"/>
<feColorMatrix type="matrix" values="0 0 0 0 1 0 0 0 0 1 0 0 0 0 1 0 0 0 0.25 0"/>
<feBlend mode="normal" in2="effect1_innerShadow_7998_32370" result="effect2_innerShadow_7998_32370"/>
</filter>
<filter id="filter2_ii_7998_32370" x="2" y="9.83941" width="28" height="9.60388" filterUnits="userSpaceOnUse" color-interpolation-filters="sRGB">
<feFlood flood-opacity="0" result="BackgroundImageFix"/>
<feBlend mode="normal" in="SourceGraphic" in2="BackgroundImageFix" result="shape"/>
<feColorMatrix in="SourceAlpha" type="matrix" values="0 0 0 0 0 0 0 0 0 0 0 0 0 0 0 0 0 0 127 0" result="hardAlpha"/>
<feOffset dy="1.03704"/>
<feGaussianBlur stdDeviation="0.518519"/>
<feComposite in2="hardAlpha" operator="arithmetic" k2="-1" k3="1"/>
<feColorMatrix type="matrix" values="0 0 0 0 0 0 0 0 0 0 0 0 0 0 0 0 0 0 0.25 0"/>
<feBlend mode="normal" in2="shape" result="effect1_innerShadow_7998_32370"/>
<feColorMatrix in="SourceAlpha" type="matrix" values="0 0 0 0 0 0 0 0 0 0 0 0 0 0 0 0 0 0 127 0" result="hardAlpha"/>
<feOffset dy="-0.777778"/>
<feGaussianBlur stdDeviation="0.518519"/>
<feComposite in2="hardAlpha" operator="arithmetic" k2="-1" k3="1"/>
<feColorMatrix type="matrix" values="0 0 0 0 1 0 0 0 0 1 0 0 0 0 1 0 0 0 0.25 0"/>
<feBlend mode="normal" in2="effect1_innerShadow_7998_32370" result="effect2_innerShadow_7998_32370"/>
</filter>
<filter id="filter3_ii_7998_32370" x="2" y="14.3941" width="28" height="9.11169" filterUnits="userSpaceOnUse" color-interpolation-filters="sRGB">
<feFlood flood-opacity="0" result="BackgroundImageFix"/>
<feBlend mode="normal" in="SourceGraphic" in2="BackgroundImageFix" result="shape"/>
<feColorMatrix in="SourceAlpha" type="matrix" values="0 0 0 0 0 0 0 0 0 0 0 0 0 0 0 0 0 0 127 0" result="hardAlpha"/>
<feOffset dy="1.03704"/>
<feGaussianBlur stdDeviation="0.518519"/>
<feComposite in2="hardAlpha" operator="arithmetic" k2="-1" k3="1"/>
<feColorMatrix type="matrix" values="0 0 0 0 0 0 0 0 0 0 0 0 0 0 0 0 0 0 0.25 0"/>
<feBlend mode="normal" in2="shape" result="effect1_innerShadow_7998_32370"/>
<feColorMatrix in="SourceAlpha" type="matrix" values="0 0 0 0 0 0 0 0 0 0 0 0 0 0 0 0 0 0 127 0" result="hardAlpha"/>
<feOffset dy="-0.777778"/>
<feGaussianBlur stdDeviation="0.518519"/>
<feComposite in2="hardAlpha" operator="arithmetic" k2="-1" k3="1"/>
<feColorMatrix type="matrix" values="0 0 0 0 1 0 0 0 0 1 0 0 0 0 1 0 0 0 0.25 0"/>
<feBlend mode="normal" in2="effect1_innerShadow_7998_32370" result="effect2_innerShadow_7998_32370"/>
</filter>
<filter id="filter4_ii_7998_32370" x="4" y="3.79427" width="24" height="8.22743" filterUnits="userSpaceOnUse" color-interpolation-filters="sRGB">
<feFlood flood-opacity="0" result="BackgroundImageFix"/>
<feBlend mode="normal" in="SourceGraphic" in2="BackgroundImageFix" result="shape"/>
<feColorMatrix in="SourceAlpha" type="matrix" values="0 0 0 0 0 0 0 0 0 0 0 0 0 0 0 0 0 0 127 0" result="hardAlpha"/>
<feOffset dy="0.888889"/>
<feGaussianBlur stdDeviation="0.444444"/>
<feComposite in2="hardAlpha" operator="arithmetic" k2="-1" k3="1"/>
<feColorMatrix type="matrix" values="0 0 0 0 0 0 0 0 0 0 0 0 0 0 0 0 0 0 0.25 0"/>
<feBlend mode="normal" in2="shape" result="effect1_innerShadow_7998_32370"/>
<feColorMatrix in="SourceAlpha" type="matrix" values="0 0 0 0 0 0 0 0 0 0 0 0 0 0 0 0 0 0 127 0" result="hardAlpha"/>
<feOffset dy="-0.666667"/>
<feGaussianBlur stdDeviation="0.444444"/>
<feComposite in2="hardAlpha" operator="arithmetic" k2="-1" k3="1"/>
<feColorMatrix type="matrix" values="0 0 0 0 1 0 0 0 0 1 0 0 0 0 1 0 0 0 0.25 0"/>
<feBlend mode="normal" in2="effect1_innerShadow_7998_32370" result="effect2_innerShadow_7998_32370"/>
</filter>
<filter id="filter5_ii_7998_32370" x="4" y="7.70052" width="24" height="7.80556" filterUnits="userSpaceOnUse" color-interpolation-filters="sRGB">
<feFlood flood-opacity="0" result="BackgroundImageFix"/>
<feBlend mode="normal" in="SourceGraphic" in2="BackgroundImageFix" result="shape"/>
<feColorMatrix in="SourceAlpha" type="matrix" values="0 0 0 0 0 0 0 0 0 0 0 0 0 0 0 0 0 0 127 0" result="hardAlpha"/>
<feOffset dy="0.888889"/>
<feGaussianBlur stdDeviation="0.444444"/>
<feComposite in2="hardAlpha" operator="arithmetic" k2="-1" k3="1"/>
<feColorMatrix type="matrix" values="0 0 0 0 0 0 0 0 0 0 0 0 0 0 0 0 0 0 0.25 0"/>
<feBlend mode="normal" in2="shape" result="effect1_innerShadow_7998_32370"/>
<feColorMatrix in="SourceAlpha" type="matrix" values="0 0 0 0 0 0 0 0 0 0 0 0 0 0 0 0 0 0 127 0" result="hardAlpha"/>
<feOffset dy="-0.666667"/>
<feGaussianBlur stdDeviation="0.444444"/>
<feComposite in2="hardAlpha" operator="arithmetic" k2="-1" k3="1"/>
<feColorMatrix type="matrix" values="0 0 0 0 1 0 0 0 0 1 0 0 0 0 1 0 0 0 0.25 0"/>
<feBlend mode="normal" in2="effect1_innerShadow_7998_32370" result="effect2_innerShadow_7998_32370"/>
</filter>
<filter id="filter6_ii_7998_32370" x="6" y="-0.555556" width="20" height="6.8588" filterUnits="userSpaceOnUse" color-interpolation-filters="sRGB">
<feFlood flood-opacity="0" result="BackgroundImageFix"/>
<feBlend mode="normal" in="SourceGraphic" in2="BackgroundImageFix" result="shape"/>
<feColorMatrix in="SourceAlpha" type="matrix" values="0 0 0 0 0 0 0 0 0 0 0 0 0 0 0 0 0 0 127 0" result="hardAlpha"/>
<feOffset dy="0.740741"/>
<feGaussianBlur stdDeviation="0.37037"/>
<feComposite in2="hardAlpha" operator="arithmetic" k2="-1" k3="1"/>
<feColorMatrix type="matrix" values="0 0 0 0 0 0 0 0 0 0 0 0 0 0 0 0 0 0 0.25 0"/>
<feBlend mode="normal" in2="shape" result="effect1_innerShadow_7998_32370"/>
<feColorMatrix in="SourceAlpha" type="matrix" values="0 0 0 0 0 0 0 0 0 0 0 0 0 0 0 0 0 0 127 0" result="hardAlpha"/>
<feOffset dy="-0.555556"/>
<feGaussianBlur stdDeviation="0.37037"/>
<feComposite in2="hardAlpha" operator="arithmetic" k2="-1" k3="1"/>
<feColorMatrix type="matrix" values="0 0 0 0 1 0 0 0 0 1 0 0 0 0 1 0 0 0 0.25 0"/>
<feBlend mode="normal" in2="effect1_innerShadow_7998_32370" result="effect2_innerShadow_7998_32370"/>
</filter>
<filter id="filter7_ii_7998_32370" x="6" y="2.69444" width="20" height="6.50723" filterUnits="userSpaceOnUse" color-interpolation-filters="sRGB">
<feFlood flood-opacity="0" result="BackgroundImageFix"/>
<feBlend mode="normal" in="SourceGraphic" in2="BackgroundImageFix" result="shape"/>
<feColorMatrix in="SourceAlpha" type="matrix" values="0 0 0 0 0 0 0 0 0 0 0 0 0 0 0 0 0 0 127 0" result="hardAlpha"/>
<feOffset dy="0.740741"/>
<feGaussianBlur stdDeviation="0.37037"/>
<feComposite in2="hardAlpha" operator="arithmetic" k2="-1" k3="1"/>
<feColorMatrix type="matrix" values="0 0 0 0 0 0 0 0 0 0 0 0 0 0 0 0 0 0 0.25 0"/>
<feBlend mode="normal" in2="shape" result="effect1_innerShadow_7998_32370"/>
<feColorMatrix in="SourceAlpha" type="matrix" values="0 0 0 0 0 0 0 0 0 0 0 0 0 0 0 0 0 0 127 0" result="hardAlpha"/>
<feOffset dy="-0.555556"/>
<feGaussianBlur stdDeviation="0.37037"/>
<feComposite in2="hardAlpha" operator="arithmetic" k2="-1" k3="1"/>
<feColorMatrix type="matrix" values="0 0 0 0 1 0 0 0 0 1 0 0 0 0 1 0 0 0 0.25 0"/>
<feBlend mode="normal" in2="effect1_innerShadow_7998_32370" result="effect2_innerShadow_7998_32370"/>
</filter>
</defs>
</svg>
