<svg width="74" height="74" viewBox="0 0 74 74" fill="none" xmlns="http://www.w3.org/2000/svg">
<path fill-rule="evenodd" clip-rule="evenodd" d="M32.472 8.34379C32.0708 8.77879 32.0295 9.43504 32.372 9.91629L57.5508 45.3225C57.8945 45.8038 58.5283 45.98 59.0695 45.7438C67.3583 42.1263 73.157 33.855 73.157 24.24C73.157 11.2975 62.6495 0.790039 49.707 0.790039C44.6583 0.790039 39.9808 2.38879 36.152 5.10754C34.8145 6.05629 33.582 7.14254 32.472 8.34379Z" fill="#F8AC3A"/>
<path fill-rule="evenodd" clip-rule="evenodd" d="M47.8359 0.863796C59.9059 1.82005 69.4147 11.9288 69.4147 24.24C69.4147 33.1138 64.4759 40.8425 57.1997 44.825L57.5534 45.3225C57.8972 45.8038 58.5309 45.98 59.0722 45.7438C67.3609 42.1263 73.1597 33.855 73.1597 24.24C73.1597 11.2975 62.6522 0.790039 49.7097 0.790039C49.0784 0.790039 48.4534 0.815046 47.8359 0.863796Z" fill="#F39404"/>
<path fill-rule="evenodd" clip-rule="evenodd" d="M14.2809 50.6325C14.6659 50.815 15.1184 50.79 15.4797 50.565L47.2072 30.8188C47.5684 30.5938 47.7909 30.2 47.7972 29.7738C47.7984 29.6663 47.7984 29.5588 47.7984 29.45C47.7984 16.5075 37.2909 6 24.3484 6C11.4059 6 0.898438 16.5075 0.898438 29.45C0.898438 38.79 6.37094 46.8625 14.2809 50.6325Z" fill="#F8AC3A"/>
<path fill-rule="evenodd" clip-rule="evenodd" d="M22.1616 6.10125C34.0778 7.20625 43.4216 17.245 43.4216 29.45C43.4216 29.5588 43.4216 29.6663 43.4191 29.7738C43.4141 30.2 43.1916 30.5938 42.8303 30.8188L12.5078 49.69C13.0841 50.0287 13.6766 50.3425 14.2828 50.6325C14.6678 50.815 15.1203 50.79 15.4816 50.565L47.2091 30.8188C47.5703 30.5938 47.7928 30.2 47.7991 29.7738C47.8003 29.6663 47.8003 29.5588 47.8003 29.45C47.8003 16.5075 37.2928 6 24.3503 6C23.6128 6 22.8828 6.03375 22.1616 6.10125Z" fill="#F39404"/>
<path fill-rule="evenodd" clip-rule="evenodd" d="M52.0547 67.7537C52.3584 67.4999 52.5234 67.1174 52.4997 66.7224C52.4772 66.3287 52.2684 65.9674 51.9384 65.7512C50.7347 64.9612 49.9397 63.6012 49.9397 62.0562C49.9397 59.6187 51.9184 57.6399 54.3547 57.6399C54.5047 57.6399 54.6522 57.6474 54.7984 57.6624C55.1859 57.7012 55.5697 57.5562 55.8359 57.2724C56.1022 56.9874 56.2197 56.5949 56.1547 56.2099C56.1147 55.9699 56.0934 55.7212 56.0934 55.4687C56.0934 53.3824 57.5434 51.6312 59.4909 51.1712C60.0509 51.0399 60.4484 50.5412 60.4534 49.9662C60.4547 49.9024 60.4547 49.8399 60.4547 49.7762C60.4547 36.8337 49.9472 26.3262 37.0047 26.3262C24.0622 26.3262 13.5547 36.8337 13.5547 49.7762C13.5547 62.7187 24.0622 73.2262 37.0047 73.2262C42.7322 73.2262 47.9822 71.1687 52.0547 67.7537Z" fill="#F8AC3A"/>
<path fill-rule="evenodd" clip-rule="evenodd" d="M18.9375 34.8299C22.9975 31.4662 28.2063 29.4437 33.8838 29.4437C46.6638 29.4437 57.0687 39.6887 57.3288 52.4037C57.9062 51.8049 58.6513 51.3687 59.4888 51.1712C60.0488 51.0399 60.4462 50.5412 60.4512 49.9662C60.4525 49.9024 60.4525 49.8399 60.4525 49.7762C60.4525 36.8337 49.945 26.3262 37.0025 26.3262C29.7375 26.3262 23.24 29.6362 18.9375 34.8299Z" fill="#F39404"/>
<path fill-rule="evenodd" clip-rule="evenodd" d="M30.5438 52.665C28.0819 52.665 26.0938 54.6417 26.0938 57.0631C26.0938 59.4846 28.0819 61.4612 30.5438 61.4612C33.0057 61.4612 34.9938 59.4846 34.9938 57.0631C34.9938 54.6417 33.0057 52.665 30.5438 52.665ZM30.5438 55.1662C31.6138 55.1662 32.4957 56.0098 32.4957 57.0631C32.4957 58.1165 31.6138 58.96 30.5438 58.96C29.4738 58.96 28.5919 58.1165 28.5919 57.0631C28.5919 56.0098 29.4738 55.1662 30.5438 55.1662Z" fill="#633001"/>
<path fill-rule="evenodd" clip-rule="evenodd" d="M23.4344 11.0654C20.9725 11.0654 18.9844 13.0421 18.9844 15.4635C18.9844 17.885 20.9725 19.8616 23.4344 19.8616C25.8963 19.8616 27.8845 17.885 27.8845 15.4635C27.8845 13.0421 25.8963 11.0654 23.4344 11.0654ZM23.4344 13.5666C24.5044 13.5666 25.3863 14.4102 25.3863 15.4635C25.3863 16.5169 24.5044 17.3604 23.4344 17.3604C22.3644 17.3604 21.4826 16.5169 21.4826 15.4635C21.4826 14.4102 22.3644 13.5666 23.4344 13.5666Z" fill="#633001"/>
<path fill-rule="evenodd" clip-rule="evenodd" d="M31.7235 35.7539C29.2616 35.7539 27.2734 37.7305 27.2734 40.152C27.2734 42.5735 29.2616 44.5501 31.7235 44.5501C34.1854 44.5501 36.1735 42.5735 36.1735 40.152C36.1735 37.7305 34.1854 35.7539 31.7235 35.7539ZM31.7235 38.2551C32.7935 38.2551 33.6753 39.0986 33.6753 40.152C33.6753 41.2054 32.7935 42.0489 31.7235 42.0489C30.6535 42.0489 29.7716 41.2054 29.7716 40.152C29.7716 39.0986 30.6535 38.2551 31.7235 38.2551Z" fill="#633001"/>
<path fill-rule="evenodd" clip-rule="evenodd" d="M44.2391 45.3154C41.7772 45.3154 39.7891 47.2921 39.7891 49.7135C39.7891 52.135 41.7772 54.1116 44.2391 54.1116C46.701 54.1116 48.6892 52.135 48.6892 49.7135C48.6892 47.2921 46.701 45.3154 44.2391 45.3154ZM44.2391 47.8166C45.3091 47.8166 46.191 48.6602 46.191 49.7135C46.191 50.7669 45.3091 51.6104 44.2391 51.6104C43.1691 51.6104 42.2873 50.7669 42.2873 49.7135C42.2873 48.6602 43.1691 47.8166 44.2391 47.8166Z" fill="#633001"/>
<path fill-rule="evenodd" clip-rule="evenodd" d="M12.0438 26.5703C9.58187 26.5703 7.59375 28.5469 7.59375 30.9684C7.59375 33.3899 9.58187 35.3665 12.0438 35.3665C14.5057 35.3665 16.4938 33.3899 16.4938 30.9684C16.4938 28.5469 14.5057 26.5703 12.0438 26.5703ZM12.0438 29.0715C13.1138 29.0715 13.9957 29.915 13.9957 30.9684C13.9957 32.0218 13.1138 32.8653 12.0438 32.8653C10.9738 32.8653 10.0919 32.0218 10.0919 30.9684C10.0919 29.915 10.9738 29.0715 12.0438 29.0715Z" fill="#633001"/>
<path d="M11.1953 23.1373C12.0583 23.1373 12.7578 22.4494 12.7578 21.6009C12.7578 20.7523 12.0583 20.0645 11.1953 20.0645C10.3324 20.0645 9.63281 20.7523 9.63281 21.6009C9.63281 22.4494 10.3324 23.1373 11.1953 23.1373Z" fill="#633001"/>
<path d="M35.5938 22.7496C36.4567 22.7496 37.1562 22.0617 37.1562 21.2132C37.1562 20.3646 36.4567 19.6768 35.5938 19.6768C34.7308 19.6768 34.0312 20.3646 34.0312 21.2132C34.0312 22.0617 34.7308 22.7496 35.5938 22.7496Z" fill="#633001"/>
<path d="M20.9922 26.9547C21.8551 26.9547 22.5547 26.2668 22.5547 25.4182C22.5547 24.5697 21.8551 23.8818 20.9922 23.8818C20.1292 23.8818 19.4297 24.5697 19.4297 25.4182C19.4297 26.2668 20.1292 26.9547 20.9922 26.9547Z" fill="#633001"/>
<path d="M25.0703 49.7759C25.9333 49.7759 26.6328 49.0881 26.6328 48.2395C26.6328 47.391 25.9333 46.7031 25.0703 46.7031C24.2074 46.7031 23.5078 47.391 23.5078 48.2395C23.5078 49.0881 24.2074 49.7759 25.0703 49.7759Z" fill="#633001"/>
<path d="M39.9844 61.8677C40.8473 61.8677 41.5469 61.1799 41.5469 60.3313C41.5469 59.4828 40.8473 58.7949 39.9844 58.7949C39.1214 58.7949 38.4219 59.4828 38.4219 60.3313C38.4219 61.1799 39.1214 61.8677 39.9844 61.8677Z" fill="#633001"/>
<path fill-rule="evenodd" clip-rule="evenodd" d="M55.7587 17.9338C58.1434 17.3056 59.5495 14.8866 58.9105 12.5415C58.2748 10.2086 55.8379 8.81085 53.4665 9.43567C51.0819 10.064 49.6757 12.483 50.3147 14.828C50.9505 17.1609 53.3873 18.5587 55.7587 17.9338ZM55.1234 15.5161C54.0833 15.7902 53.0056 15.1943 52.7267 14.1708C52.4511 13.1594 53.0727 12.1245 54.1018 11.8534C55.1419 11.5793 56.2196 12.1752 56.4985 13.1987C56.7741 14.2101 56.1504 15.2456 55.1234 15.5161Z" fill="#633001"/>
<path fill-rule="evenodd" clip-rule="evenodd" d="M62.9541 34.6008C65.3387 33.9725 66.7448 31.5536 66.1058 29.2085C65.4701 26.8756 63.0333 25.4778 60.6618 26.1027C58.2772 26.731 56.871 29.15 57.5101 31.495C58.1458 33.8279 60.5826 35.2257 62.9541 34.6008ZM62.3187 32.1831C61.2786 32.4572 60.2009 31.8613 59.922 30.8378C59.6464 29.8264 60.268 28.7915 61.2971 28.5204C62.3373 28.2463 63.4149 28.8422 63.6938 29.8657C63.9694 30.8771 63.3457 31.9126 62.3187 32.1831Z" fill="#633001"/>
<path d="M45.4531 40.7613C46.3161 40.7613 47.0156 40.0734 47.0156 39.2249C47.0156 38.3764 46.3161 37.6885 45.4531 37.6885C44.5902 37.6885 43.8906 38.3764 43.8906 39.2249C43.8906 40.0734 44.5902 40.7613 45.4531 40.7613Z" fill="#633001"/>
<path d="M51.7991 21.2655C50.9656 21.4851 50.4709 22.3276 50.6943 23.1472C50.9176 23.9668 51.7744 24.4532 52.6079 24.2336C53.4415 24.014 53.9361 23.1715 53.7128 22.3519C53.4894 21.5322 52.6327 21.0458 51.7991 21.2655Z" fill="#633001"/>
<path d="M63.2288 17.8621C62.3953 18.0818 61.9006 18.9242 62.1239 19.7439C62.3473 20.5635 63.2041 21.0499 64.0376 20.8303C64.8712 20.6107 65.3658 19.7682 65.1425 18.9486C64.9191 18.1289 64.0623 17.6425 63.2288 17.8621Z" fill="#633001"/>
<path d="M46.5804 7.51547C45.7468 7.73508 45.2522 8.57756 45.4755 9.39718C45.6989 10.2168 46.5556 10.7032 47.3892 10.4836C48.2227 10.264 48.7174 9.4215 48.494 8.60188C48.2707 7.78225 47.4139 7.29585 46.5804 7.51547Z" fill="#633001"/>
</svg>
