<svg width="36" height="37" viewBox="0 0 36 37" fill="none" xmlns="http://www.w3.org/2000/svg">
<path d="M27 13C27 10.6131 26.0518 8.32387 24.364 6.63604C22.6761 4.94821 20.3869 4 18 4C15.6131 4 13.3239 4.94821 11.636 6.63604C9.94821 8.32387 9 10.6131 9 13C9 23.5 4.5 26.5 4.5 26.5H31.5C31.5 26.5 27 23.5 27 13Z" stroke="#5D7590" stroke-width="1.4" stroke-linecap="round" stroke-linejoin="round"/>
<path d="M20.595 32.5C20.3313 32.9546 19.9528 33.332 19.4973 33.5943C19.0419 33.8566 18.5256 33.9947 18 33.9947C17.4744 33.9947 16.9581 33.8566 16.5027 33.5943C16.0472 33.332 15.6687 32.9546 15.405 32.5" stroke="#5D7590" stroke-width="1.4" stroke-linecap="round" stroke-linejoin="round"/>
<circle cx="25" cy="6" r="5.5" fill="#FE6A19" stroke="white"/>
</svg>
