<svg width="139" height="32" viewBox="0 0 139 32" fill="none" xmlns="http://www.w3.org/2000/svg">
<mask id="path-1-inside-1_5938_101825" fill="white">
<path fill-rule="evenodd" clip-rule="evenodd" d="M1.52209 27.1943C1.26169 27.4276 0.851231 27.4309 0.651199 27.1442C0.227419 26.5369 0 25.8939 0 25.2285C0 21.4941 7.16344 18.4668 16 18.4668C24.8366 18.4668 32 21.4941 32 25.2285C32 25.8938 31.7727 26.5366 31.349 27.1439C31.149 27.4306 30.7385 27.4273 30.4781 27.1941C27.9179 24.9012 22.3975 23.3145 16.0002 23.3145C9.60277 23.3145 4.08224 24.9013 1.52209 27.1943Z"/>
</mask>
<g filter="url(#filter0_ii_5938_101825)">
<path fill-rule="evenodd" clip-rule="evenodd" d="M1.52209 27.1943C1.26169 27.4276 0.851231 27.4309 0.651199 27.1442C0.227419 26.5369 0 25.8939 0 25.2285C0 21.4941 7.16344 18.4668 16 18.4668C24.8366 18.4668 32 21.4941 32 25.2285C32 25.8938 31.7727 26.5366 31.349 27.1439C31.149 27.4306 30.7385 27.4273 30.4781 27.1941C27.9179 24.9012 22.3975 23.3145 16.0002 23.3145C9.60277 23.3145 4.08224 24.9013 1.52209 27.1943Z" fill="#FF7C00"/>
</g>
<path d="M31.349 27.1439L31.106 26.9744L31.349 27.1439ZM30.4781 27.1941L30.6758 26.9734L30.4781 27.1941ZM0.651199 27.1442L0.894194 26.9747L0.651199 27.1442ZM1.52209 27.1943L1.3244 26.9736L1.52209 27.1943ZM0.296297 25.2285C0.296297 25.8229 0.49865 26.4078 0.894194 26.9747L0.408205 27.3138C-0.0438118 26.6659 -0.296295 25.9649 -0.296295 25.2285H0.296297ZM16 18.7631C11.6115 18.7631 7.6525 19.5154 4.80163 20.7202C3.37561 21.3228 2.24074 22.0329 1.46678 22.8062C0.693989 23.5783 0.296297 24.3966 0.296297 25.2285H-0.296295C-0.296295 24.1932 0.201443 23.2327 1.04794 22.387C1.89327 21.5423 3.10154 20.7953 4.57095 20.1743C7.51095 18.9319 11.5519 18.1705 16 18.1705V18.7631ZM31.7037 25.2285C31.7037 24.3966 31.306 23.5783 30.5332 22.8062C29.7593 22.0329 28.6244 21.3228 27.1984 20.7202C24.3475 19.5154 20.3885 18.7631 16 18.7631V18.1705C20.4481 18.1705 24.4891 18.9319 27.429 20.1743C28.8985 20.7953 30.1067 21.5423 30.9521 22.387C31.7986 23.2327 32.2963 24.1932 32.2963 25.2285H31.7037ZM31.106 26.9744C31.5014 26.4076 31.7037 25.8228 31.7037 25.2285H32.2963C32.2963 25.9648 32.0439 26.6657 31.592 27.3134L31.106 26.9744ZM30.2805 27.4148C29.048 26.311 27.0767 25.3573 24.5999 24.6803C22.1284 24.0047 19.1755 23.6108 16.0002 23.6108L16.0002 23.0182C19.2222 23.0182 22.2282 23.4177 24.7562 24.1087C27.2789 24.7982 29.348 25.7843 30.6758 26.9734L30.2805 27.4148ZM16.0002 23.6108C12.8249 23.6108 9.8719 24.0047 7.4003 24.6804C4.92345 25.3574 2.95221 26.3112 1.71977 27.4151L1.3244 26.9736C2.65212 25.7844 4.72122 24.7983 7.24404 24.1087C9.77211 23.4177 12.7781 23.0182 16.0002 23.0182L16.0002 23.6108ZM31.592 27.3134C31.2643 27.7833 30.6371 27.7342 30.2805 27.4148L30.6758 26.9734C30.7501 27.0399 30.8435 27.0709 30.9254 27.0679C31.0034 27.065 31.0651 27.033 31.106 26.9744L31.592 27.3134ZM0.894194 26.9747C0.935078 27.0333 0.996815 27.0653 1.07482 27.0682C1.1567 27.0711 1.25008 27.0402 1.3244 26.9736L1.71977 27.4151C1.36319 27.7344 0.735998 27.7836 0.408205 27.3138L0.894194 26.9747Z" fill="white" fill-opacity="0.15" mask="url(#path-1-inside-1_5938_101825)"/>
<mask id="path-3-inside-2_5938_101825" fill="white">
<path fill-rule="evenodd" clip-rule="evenodd" d="M1.22767 23.8768C0.944088 23.5896 0.450268 23.5932 0.284258 23.9612C0.0976658 24.3747 0 24.8016 0 25.2381C0 28.9766 7.16344 32.0073 16 32.0073C24.8366 32.0073 32 28.9766 32 25.2381C32 24.8017 31.9024 24.3749 31.7159 23.9615C31.5499 23.5936 31.0561 23.5899 30.7725 23.8771C28.3605 26.3199 22.6548 28.0367 16.0002 28.0367C9.34545 28.0367 3.63957 26.3197 1.22767 23.8768Z"/>
</mask>
<g filter="url(#filter1_ii_5938_101825)">
<path fill-rule="evenodd" clip-rule="evenodd" d="M1.22767 23.8768C0.944088 23.5896 0.450268 23.5932 0.284258 23.9612C0.0976658 24.3747 0 24.8016 0 25.2381C0 28.9766 7.16344 32.0073 16 32.0073C24.8366 32.0073 32 28.9766 32 25.2381C32 24.8017 31.9024 24.3749 31.7159 23.9615C31.5499 23.5936 31.0561 23.5899 30.7725 23.8771C28.3605 26.3199 22.6548 28.0367 16.0002 28.0367C9.34545 28.0367 3.63957 26.3197 1.22767 23.8768Z" fill="#FF7C00"/>
</g>
<path d="M31.7159 23.9615L31.986 23.8397L31.7159 23.9615ZM30.7725 23.8771L30.5617 23.6689L30.7725 23.8771ZM0.284258 23.9612L0.014183 23.8393L0.284258 23.9612ZM1.22767 23.8768L1.01682 24.085L1.22767 23.8768ZM0.296297 25.2381C0.296297 24.847 0.38357 24.4615 0.554335 24.083L0.014183 23.8393C-0.188236 24.2879 -0.296295 24.7561 -0.296295 25.2381H0.296297ZM16 31.711C11.6116 31.711 7.65257 30.9579 4.80174 29.7518C3.37574 29.1485 2.24087 28.4377 1.4669 27.6635C0.694099 26.8905 0.296297 26.0712 0.296297 25.2381H-0.296295C-0.296295 26.2743 0.20133 27.2358 1.04782 28.0825C1.89314 28.928 3.10141 29.6759 4.57084 30.2975C7.51087 31.5414 11.5519 32.3036 16 32.3036V31.711ZM31.7037 25.2381C31.7037 26.0712 31.3059 26.8905 30.5331 27.6635C29.7591 28.4377 28.6243 29.1485 27.1983 29.7518C24.3474 30.9579 20.3884 31.711 16 31.711V32.3036C20.4481 32.3036 24.4891 31.5414 27.4292 30.2975C28.8986 29.6759 30.1069 28.928 30.9522 28.0825C31.7987 27.2358 32.2963 26.2743 32.2963 25.2381H31.7037ZM31.4458 24.0834C31.6165 24.4617 31.7037 24.8471 31.7037 25.2381H32.2963C32.2963 24.7563 32.1883 24.2882 31.986 23.8397L31.4458 24.0834ZM30.5617 23.6689C29.4065 24.8388 27.4324 25.8602 24.8956 26.5881C22.3656 27.3142 19.3033 27.7404 16.0002 27.7404V28.333C19.3517 28.333 22.4696 27.9008 25.059 27.1577C27.6417 26.4166 29.7265 25.3582 30.9834 24.0853L30.5617 23.6689ZM16.0002 27.7404C12.697 27.7404 9.63468 27.3141 7.1046 26.588C4.56775 25.86 2.59362 24.8386 1.43852 23.6687L1.01682 24.085C2.27363 25.3579 4.35839 26.4165 6.94114 27.1577C9.53068 27.9008 12.6487 28.333 16.0002 28.333V27.7404ZM31.986 23.8397C31.8517 23.542 31.5803 23.3947 31.3065 23.3779C31.04 23.3616 30.7626 23.4655 30.5617 23.6689L30.9834 24.0853C31.0661 24.0015 31.1774 23.9637 31.2702 23.9694C31.3557 23.9746 31.4141 24.0131 31.4458 24.0834L31.986 23.8397ZM0.554335 24.083C0.586037 24.0128 0.644487 23.9743 0.729979 23.9691C0.822781 23.9634 0.934088 24.0012 1.01682 24.085L1.43852 23.6687C1.23767 23.4652 0.960278 23.3613 0.693771 23.3776C0.419952 23.3943 0.148489 23.5416 0.014183 23.8393L0.554335 24.083Z" fill="white" fill-opacity="0.15" mask="url(#path-3-inside-2_5938_101825)"/>
<mask id="path-5-inside-3_5938_101825" fill="white">
<path fill-rule="evenodd" clip-rule="evenodd" d="M3.33162 18.2549C3.10376 18.459 2.74457 18.4619 2.56955 18.211C2.1989 17.6797 2 17.1172 2 16.5352C2 13.2676 8.26801 10.6187 16 10.6187C23.732 10.6187 30 13.2676 30 16.5352C30 17.1171 29.8012 17.6795 29.4307 18.2107C29.2557 18.4616 28.8965 18.4588 28.6686 18.2547C26.4284 16.2483 21.598 14.8599 16.0002 14.8599C10.4023 14.8599 5.57166 16.2484 3.33162 18.2549Z"/>
</mask>
<g filter="url(#filter2_ii_5938_101825)">
<path fill-rule="evenodd" clip-rule="evenodd" d="M3.33162 18.2549C3.10376 18.459 2.74457 18.4619 2.56955 18.211C2.1989 17.6797 2 17.1172 2 16.5352C2 13.2676 8.26801 10.6187 16 10.6187C23.732 10.6187 30 13.2676 30 16.5352C30 17.1171 29.8012 17.6795 29.4307 18.2107C29.2557 18.4616 28.8965 18.4588 28.6686 18.2547C26.4284 16.2483 21.598 14.8599 16.0002 14.8599C10.4023 14.8599 5.57166 16.2484 3.33162 18.2549Z" fill="#FF7C00"/>
</g>
<path d="M29.4307 18.2107L29.6433 18.359L29.4307 18.2107ZM2.56955 18.211L2.35691 18.3594L2.56955 18.211ZM3.33162 18.2549L3.50461 18.448L3.33162 18.2549ZM2.25926 16.5352C2.25926 17.0551 2.43624 17.5668 2.78218 18.0627L2.35691 18.3594C1.96156 17.7926 1.74074 17.1794 1.74074 16.5352H2.25926ZM16 10.8779C12.1601 10.8779 8.69593 11.5362 6.20143 12.5904C4.95366 13.1177 3.96065 13.739 3.28344 14.4156C2.60724 15.0912 2.25926 15.8072 2.25926 16.5352H1.74074C1.74074 15.6293 2.17626 14.7888 2.91694 14.0488C3.65661 13.3097 4.71385 12.6561 5.99958 12.1128C8.57208 11.0256 12.1079 10.3594 16 10.3594L16 10.8779ZM29.7407 16.5352C29.7407 15.8072 29.3928 15.0912 28.7166 14.4156C28.0394 13.739 27.0463 13.1177 25.7986 12.5904C23.3041 11.5362 19.8399 10.8779 16 10.8779L16 10.3594C19.8921 10.3594 23.4279 11.0256 26.0004 12.1128C27.2862 12.6561 28.3434 13.3097 29.0831 14.0488C29.8237 14.7888 30.2593 15.6293 30.2593 16.5352H29.7407ZM29.218 18.0624C29.5638 17.5666 29.7407 17.055 29.7407 16.5352H30.2593C30.2593 17.1793 30.0385 17.7924 29.6433 18.359L29.218 18.0624ZM28.4956 18.4478C27.4172 17.4819 25.6924 16.6474 23.5252 16.0549C21.3625 15.4638 18.7787 15.1191 16.0002 15.1191V14.6006C18.8196 14.6006 21.4498 14.9501 23.6619 15.5548C25.8693 16.1582 27.6798 17.021 28.8416 18.0615L28.4956 18.4478ZM16.0002 15.1191C13.2217 15.1191 10.6378 15.4638 8.47507 16.055C6.30778 16.6475 4.58294 17.4821 3.50461 18.448L3.15864 18.0618C4.32034 17.0212 6.13082 16.1583 8.33834 15.5549C10.5504 14.9502 13.1808 14.6006 16.0002 14.6006V15.1191ZM29.6433 18.359C29.3565 18.7702 28.8077 18.7273 28.4956 18.4478L28.8416 18.0615C28.9066 18.1198 28.9883 18.1469 29.06 18.1442C29.1282 18.1417 29.1822 18.1137 29.218 18.0624L29.6433 18.359ZM2.78218 18.0627C2.81795 18.114 2.87197 18.142 2.94024 18.1445C3.01188 18.1471 3.09361 18.1201 3.15864 18.0618L3.50461 18.448C3.19259 18.7275 2.64372 18.7705 2.35691 18.3594L2.78218 18.0627Z" fill="white" fill-opacity="0.15" mask="url(#path-5-inside-3_5938_101825)"/>
<mask id="path-7-inside-4_5938_101825" fill="white">
<path fill-rule="evenodd" clip-rule="evenodd" d="M3.07431 15.3524C2.82619 15.1011 2.39412 15.1042 2.24885 15.4261C2.0855 15.7881 2 16.1617 2 16.5437C2 19.8149 8.26801 22.4668 16 22.4668C23.732 22.4668 30 19.8149 30 16.5437C30 16.1618 29.9146 15.7883 29.7513 15.4265C29.6061 15.1046 29.174 15.1014 28.9259 15.3527C26.8153 17.49 21.8229 18.9922 16.0002 18.9922C10.1774 18.9922 5.18476 17.4899 3.07431 15.3524Z"/>
</mask>
<g filter="url(#filter3_ii_5938_101825)">
<path fill-rule="evenodd" clip-rule="evenodd" d="M3.07431 15.3524C2.82619 15.1011 2.39412 15.1042 2.24885 15.4261C2.0855 15.7881 2 16.1617 2 16.5437C2 19.8149 8.26801 22.4668 16 22.4668C23.732 22.4668 30 19.8149 30 16.5437C30 16.1618 29.9146 15.7883 29.7513 15.4265C29.6061 15.1046 29.174 15.1014 28.9259 15.3527C26.8153 17.49 21.8229 18.9922 16.0002 18.9922C10.1774 18.9922 5.18476 17.4899 3.07431 15.3524Z" fill="#FF7C00"/>
</g>
<path d="M28.9259 15.3527L29.1104 15.5348L28.9259 15.3527ZM2.24885 15.4261L2.48515 15.5328L2.24885 15.4261ZM3.07431 15.3524L3.2588 15.1702L3.07431 15.3524ZM2.25926 16.5437C2.25926 16.2014 2.33566 15.864 2.48515 15.5328L2.01254 15.3195C1.83534 15.7121 1.74074 16.1219 1.74074 16.5437L2.25926 16.5437ZM16 22.2075C12.1601 22.2075 8.696 21.5486 6.20152 20.4932C4.95377 19.9653 3.96076 19.3434 3.28354 18.6659C2.60734 17.9896 2.25926 17.2727 2.25926 16.5437L1.74074 16.5437C1.74074 17.4504 2.17616 18.2917 2.91684 19.0325C3.6565 19.7724 4.71373 20.4268 5.99949 20.9707C8.57201 22.0591 12.1079 22.7261 16 22.7261L16 22.2075ZM29.7407 16.5437C29.7407 17.2727 29.3927 17.9896 28.7165 18.6659C28.0392 19.3434 27.0462 19.9653 25.7985 20.4932C23.304 21.5486 19.8399 22.2075 16 22.2075L16 22.7261C19.8921 22.7261 23.428 22.0591 26.0005 20.9707C27.2863 20.4268 28.3435 19.7724 29.0832 19.0325C29.8238 18.2917 30.2593 17.4504 30.2593 16.5437H29.7407ZM29.515 15.5331C29.6644 15.8642 29.7407 16.2015 29.7407 16.5437H30.2593C30.2593 16.1221 30.1647 15.7124 29.9876 15.3199L29.515 15.5331ZM28.7414 15.1705C27.7306 16.1941 26.0032 17.0878 23.7836 17.7247C21.5698 18.36 18.8904 18.7329 16.0002 18.7329L16.0002 19.2514C18.9327 19.2514 21.6608 18.8733 23.9266 18.2231C26.1864 17.5747 28.0106 16.6486 29.1104 15.5348L28.7414 15.1705ZM16.0002 18.7329C13.1099 18.7329 10.4304 18.3599 8.21663 17.7246C5.99689 17.0876 4.26953 16.1939 3.2588 15.1702L2.88982 15.5345C3.98954 16.6483 5.8137 17.5745 8.0736 18.223C10.3394 18.8733 13.0677 19.2514 16.0002 19.2514L16.0002 18.7329ZM29.9876 15.3199C29.8701 15.0595 29.6326 14.9306 29.3931 14.9159C29.1599 14.9016 28.9172 14.9925 28.7414 15.1705L29.1104 15.5348C29.1828 15.4615 29.2801 15.4284 29.3613 15.4334C29.4361 15.438 29.4873 15.4717 29.515 15.5331L29.9876 15.3199ZM2.48515 15.5328C2.5129 15.4713 2.56404 15.4377 2.63885 15.4331C2.72005 15.4281 2.81743 15.4612 2.88982 15.5345L3.2588 15.1702C3.08306 14.9922 2.84036 14.9013 2.60717 14.9155C2.3676 14.9302 2.13007 15.0591 2.01254 15.3195L2.48515 15.5328Z" fill="white" fill-opacity="0.15" mask="url(#path-7-inside-4_5938_101825)"/>
<mask id="path-9-inside-5_5938_101825" fill="white">
<path fill-rule="evenodd" clip-rule="evenodd" d="M5.14119 11.0084C4.94587 11.1834 4.63794 11.1859 4.48793 10.9708C4.1704 10.5154 4 10.0335 4 9.53468C4 6.73388 9.37258 4.46338 16 4.46338C22.6274 4.46338 28 6.73388 28 9.53468C28 10.0334 27.8297 10.5152 27.5123 10.9705C27.3623 11.1856 27.0544 11.1831 26.859 11.0082C24.939 9.28828 20.7985 8.09814 16.0002 8.09814C11.2018 8.09814 7.06112 9.2884 5.14119 11.0084Z"/>
</mask>
<g filter="url(#filter4_ii_5938_101825)">
<path fill-rule="evenodd" clip-rule="evenodd" d="M5.14119 11.0084C4.94587 11.1834 4.63794 11.1859 4.48793 10.9708C4.1704 10.5154 4 10.0335 4 9.53468C4 6.73388 9.37258 4.46338 16 4.46338C22.6274 4.46338 28 6.73388 28 9.53468C28 10.0334 27.8297 10.5152 27.5123 10.9705C27.3623 11.1856 27.0544 11.1831 26.859 11.0082C24.939 9.28828 20.7985 8.09814 16.0002 8.09814C11.2018 8.09814 7.06112 9.2884 5.14119 11.0084Z" fill="#FF7C00"/>
</g>
<path d="M27.5123 10.9705L27.6946 11.0976L27.5123 10.9705ZM26.859 11.0082L27.0073 10.8426L26.859 11.0082ZM4.48793 10.9708L4.67021 10.8437L4.48793 10.9708ZM5.14119 11.0084L4.99291 10.8429L5.14119 11.0084ZM4.22222 9.53468C4.22222 9.98023 4.37384 10.4187 4.67021 10.8437L4.30566 11.0979C3.96695 10.6122 3.77778 10.0867 3.77778 9.53468H4.22222ZM16 4.6856C12.7086 4.6856 9.73937 5.24982 7.60122 6.15342C6.53171 6.60541 5.68055 7.13792 5.10009 7.7179C4.52049 8.29701 4.22222 8.91074 4.22222 9.53468H3.77778C3.77778 8.75821 4.15108 8.03783 4.78595 7.4035C5.41995 6.77003 6.32615 6.20977 7.42821 5.74403C9.63321 4.81218 12.6639 4.24116 16 4.24116V4.6856ZM27.7778 9.53468C27.7778 8.91074 27.4795 8.29701 26.8999 7.7179C26.3194 7.13792 25.4683 6.60541 24.3988 6.15342C22.2606 5.24982 19.2914 4.6856 16 4.6856V4.24116C19.3361 4.24116 22.3668 4.81218 24.5718 5.74403C25.6738 6.20977 26.58 6.77003 27.214 7.4035C27.8489 8.03783 28.2222 8.75821 28.2222 9.53468H27.7778ZM27.33 10.8434C27.6262 10.4185 27.7778 9.98013 27.7778 9.53468H28.2222C28.2222 10.0866 28.0331 10.612 27.6946 11.0976L27.33 10.8434ZM26.7108 11.1737C25.7865 10.3457 24.308 9.63036 22.4504 9.12256C20.5966 8.61583 18.3818 8.32037 16.0002 8.32037V7.87592C18.4169 7.87592 20.6715 8.17553 22.5676 8.69384C24.4597 9.21107 26.0115 9.95069 27.0073 10.8426L26.7108 11.1737ZM16.0002 8.32037C13.6185 8.32037 11.4037 8.61585 9.54986 9.12263C7.69214 9.63048 6.21371 10.3459 5.28947 11.1739L4.99291 10.8429C5.98861 9.95087 7.54046 9.21119 9.43267 8.69391C11.3288 8.17556 13.5835 7.87592 16.0002 7.87592V8.32037ZM27.6946 11.0976C27.4488 11.4501 26.9782 11.4133 26.7108 11.1737L27.0073 10.8426C27.063 10.8926 27.1331 10.9158 27.1945 10.9135C27.253 10.9114 27.2993 10.8873 27.33 10.8434L27.6946 11.0976ZM4.67021 10.8437C4.70086 10.8876 4.74717 10.9117 4.80568 10.9138C4.8671 10.916 4.93716 10.8928 4.99291 10.8429L5.28947 11.1739C5.02202 11.4135 4.55148 11.4504 4.30566 11.0979L4.67021 10.8437Z" fill="white" fill-opacity="0.15" mask="url(#path-9-inside-5_5938_101825)"/>
<mask id="path-11-inside-6_5938_101825" fill="white">
<path fill-rule="evenodd" clip-rule="evenodd" d="M4.92093 8.52035C4.70826 8.30496 4.33795 8.30768 4.21341 8.58356C4.07332 8.89385 4 9.21417 4 9.54173C4 12.3456 9.37258 14.6187 16 14.6187C22.6274 14.6187 28 12.3456 28 9.54173C28 9.2143 27.9267 8.89411 27.7868 8.58394C27.6623 8.30804 27.292 8.30527 27.0793 8.52064C25.2701 10.3526 20.991 11.6401 16.0002 11.6401C11.0093 11.6401 6.72992 10.3525 4.92093 8.52035Z"/>
</mask>
<g filter="url(#filter5_ii_5938_101825)">
<path fill-rule="evenodd" clip-rule="evenodd" d="M4.92093 8.52035C4.70826 8.30496 4.33795 8.30768 4.21341 8.58356C4.07332 8.89385 4 9.21417 4 9.54173C4 12.3456 9.37258 14.6187 16 14.6187C22.6274 14.6187 28 12.3456 28 9.54173C28 9.2143 27.9267 8.89411 27.7868 8.58394C27.6623 8.30804 27.292 8.30527 27.0793 8.52064C25.2701 10.3526 20.991 11.6401 16.0002 11.6401C11.0093 11.6401 6.72992 10.3525 4.92093 8.52035Z" fill="#FF7C00"/>
</g>
<path d="M27.0793 8.52064L26.9212 8.36449L27.0793 8.52064ZM4.21341 8.58356L4.01087 8.49212L4.21341 8.58356ZM4.92093 8.52035L4.7628 8.67648L4.92093 8.52035ZM4.22222 9.54173C4.22222 9.24825 4.28774 8.95897 4.41595 8.67499L4.01087 8.49212C3.8589 8.82873 3.77778 9.18009 3.77778 9.54173L4.22222 9.54173ZM16 14.3964C12.7087 14.3964 9.73943 13.8316 7.60131 12.927C6.53181 12.4745 5.68065 11.9414 5.10018 11.3608C4.52057 10.781 4.22222 10.1665 4.22222 9.54173L3.77778 9.54173C3.77778 10.3189 4.151 11.04 4.78586 11.675C5.41986 12.3092 6.32606 12.8701 7.42813 13.3363C9.63315 14.2692 12.6639 14.8409 16 14.8409V14.3964ZM27.7778 9.54173C27.7778 10.1665 27.4794 10.781 26.8998 11.3608C26.3193 11.9414 25.4682 12.4745 24.3987 12.927C22.2606 13.8316 19.2913 14.3964 16 14.3964V14.8409C19.3361 14.8409 22.3668 14.2692 24.5719 13.3363C25.6739 12.8701 26.5801 12.3092 27.2141 11.675C27.849 11.04 28.2222 10.3189 28.2222 9.54173H27.7778ZM27.5842 8.67534C27.7123 8.95921 27.7778 9.24837 27.7778 9.54173H28.2222C28.2222 9.18023 28.1412 8.82902 27.9893 8.49253L27.5842 8.67534ZM26.9212 8.36449C26.0547 9.24186 24.5741 10.0078 22.6715 10.5538C20.7741 11.0983 18.4775 11.4179 16.0002 11.4179L16.0002 11.8624C18.5137 11.8624 20.8521 11.5383 22.7941 10.981C24.7311 10.4252 26.2947 9.63138 27.2374 8.67679L26.9212 8.36449ZM16.0002 11.4179C13.5229 11.4179 11.2262 11.0982 9.32863 10.5537C7.42602 10.0077 5.94542 9.24165 5.07906 8.36421L4.7628 8.67648C5.70543 9.63116 7.269 10.425 9.20604 10.9809C11.1482 11.5382 13.4866 11.8624 16.0002 11.8624L16.0002 11.4179ZM27.9893 8.49253C27.8886 8.26933 27.685 8.15885 27.4797 8.14626C27.2798 8.13401 27.0718 8.21196 26.9212 8.36449L27.2374 8.67679C27.2994 8.61396 27.3829 8.58561 27.4525 8.58987C27.5166 8.5938 27.5604 8.62265 27.5842 8.67534L27.9893 8.49253ZM4.41595 8.67499C4.43973 8.62231 4.48357 8.59346 4.54769 8.58953C4.61728 8.58528 4.70075 8.61364 4.7628 8.67648L5.07906 8.36421C4.92843 8.21166 4.72041 8.13369 4.52055 8.14592C4.31521 8.15848 4.11162 8.26893 4.01087 8.49212L4.41595 8.67499Z" fill="white" fill-opacity="0.15" mask="url(#path-11-inside-6_5938_101825)"/>
<mask id="path-13-inside-7_5938_101825" fill="white">
<path fill-rule="evenodd" clip-rule="evenodd" d="M6.95111 5.45436C6.78835 5.60017 6.53176 5.60225 6.40675 5.42302C6.14205 5.04353 6 4.64182 6 4.22608C6 1.89208 10.4772 0 16 0C21.5228 0 26 1.89208 26 4.22608C26 4.64171 25.858 5.04332 25.5935 5.42273C25.4685 5.60197 25.2119 5.59991 25.0491 5.45412C23.449 4.02095 19.9987 3.02922 16.0002 3.02922C12.0016 3.02922 8.55108 4.02107 6.95111 5.45436Z"/>
</mask>
<g filter="url(#filter6_ii_5938_101825)">
<path fill-rule="evenodd" clip-rule="evenodd" d="M6.95111 5.45436C6.78835 5.60017 6.53176 5.60225 6.40675 5.42302C6.14205 5.04353 6 4.64182 6 4.22608C6 1.89208 10.4772 0 16 0C21.5228 0 26 1.89208 26 4.22608C26 4.64171 25.858 5.04332 25.5935 5.42273C25.4685 5.60197 25.2119 5.59991 25.0491 5.45412C23.449 4.02095 19.9987 3.02922 16.0002 3.02922C12.0016 3.02922 8.55108 4.02107 6.95111 5.45436Z" fill="#FF7C00"/>
</g>
<path d="M25.5935 5.42273L25.7454 5.52865L25.5935 5.42273ZM6.40675 5.42302L6.25486 5.52897L6.40675 5.42302ZM6.18518 4.22608C6.18518 4.59744 6.31158 4.96288 6.55863 5.31708L6.25486 5.52897C5.97252 5.12418 5.81482 4.68619 5.81482 4.22608L6.18518 4.22608ZM16 0.185185C13.2572 0.185185 10.7828 0.65537 9.00102 1.40837C8.10976 1.78502 7.40046 2.22879 6.91674 2.7121C6.43374 3.19469 6.18518 3.70614 6.18518 4.22608L5.81482 4.22608C5.81482 3.57903 6.1259 2.97871 6.65496 2.4501C7.18329 1.92221 7.93846 1.45533 8.85684 1.06721C10.6943 0.290671 13.2199 -0.185185 16 -0.185185V0.185185ZM25.8148 4.22608C25.8148 3.70614 25.5663 3.19469 25.0833 2.7121C24.5995 2.22879 23.8902 1.78502 22.999 1.40837C21.2172 0.65537 18.7428 0.185185 16 0.185185V-0.185185C18.7801 -0.185185 21.3057 0.290671 23.1432 1.06721C24.0615 1.45533 24.8167 1.92221 25.345 2.4501C25.8741 2.97871 26.1852 3.57903 26.1852 4.22608L25.8148 4.22608ZM25.4416 5.3168C25.6885 4.96269 25.8148 4.59734 25.8148 4.22608L26.1852 4.22608C26.1852 4.68607 26.0276 5.12395 25.7454 5.52865L25.4416 5.3168ZM24.9256 5.59206C24.1553 4.90215 22.9233 4.30602 21.3752 3.88286C19.8305 3.46061 17.9849 3.2144 16.0002 3.2144V2.84403C18.0141 2.84403 19.8928 3.0937 21.4729 3.5256C23.0497 3.95661 24.3428 4.57293 25.1727 5.31618L24.9256 5.59206ZM16.0002 3.2144C14.0155 3.2144 12.1698 3.46064 10.625 3.88294C9.07691 4.30613 7.84488 4.90232 7.07467 5.5923L6.82755 5.31643C7.65731 4.57311 8.95051 3.95673 10.5273 3.52567C12.1074 3.09373 13.9863 2.84403 16.0002 2.84403V3.2144ZM25.7454 5.52865C25.5405 5.82239 25.1484 5.7917 24.9256 5.59206L25.1727 5.31618C25.2191 5.35779 25.2775 5.37713 25.3287 5.37525C25.3774 5.37347 25.416 5.35344 25.4416 5.3168L25.7454 5.52865ZM6.55863 5.31708C6.58418 5.35371 6.62277 5.37374 6.67153 5.37552C6.72271 5.37739 6.78109 5.35805 6.82755 5.31643L7.07467 5.5923C6.8518 5.79195 6.45972 5.82268 6.25486 5.52897L6.55863 5.31708Z" fill="white" fill-opacity="0.15" mask="url(#path-13-inside-7_5938_101825)"/>
<mask id="path-15-inside-8_5938_101825" fill="white">
<path fill-rule="evenodd" clip-rule="evenodd" d="M6.76756 3.38114C6.59035 3.20168 6.28181 3.20394 6.17799 3.43379C6.06116 3.69248 6 3.95952 6 4.23261C6 6.5692 10.4772 8.46338 16 8.46338C21.5228 8.46338 26 6.5692 26 4.23261C26 3.95965 25.9389 3.69274 25.8222 3.43417C25.7184 3.2043 25.4099 3.20199 25.2326 3.38144C23.7249 4.908 20.1591 5.98088 16.0002 5.98088C11.8412 5.98088 8.27511 4.90786 6.76756 3.38114Z"/>
</mask>
<g filter="url(#filter7_ii_5938_101825)">
<path fill-rule="evenodd" clip-rule="evenodd" d="M6.76756 3.38114C6.59035 3.20168 6.28181 3.20394 6.17799 3.43379C6.06116 3.69248 6 3.95952 6 4.23261C6 6.5692 10.4772 8.46338 16 8.46338C21.5228 8.46338 26 6.5692 26 4.23261C26 3.95965 25.9389 3.69274 25.8222 3.43417C25.7184 3.2043 25.4099 3.20199 25.2326 3.38144C23.7249 4.908 20.1591 5.98088 16.0002 5.98088C11.8412 5.98088 8.27511 4.90786 6.76756 3.38114Z" fill="#FF7C00"/>
</g>
<path d="M6.17799 3.43379L6.34676 3.51002L6.17799 3.43379ZM6.18518 4.23261C6.18518 3.98794 6.23983 3.74677 6.34676 3.51002L6.00922 3.35757C5.88248 3.63819 5.81482 3.93111 5.81482 4.23261L6.18518 4.23261ZM16 8.27819C13.2572 8.27819 10.7829 7.80749 9.00109 7.05367C8.10984 6.6766 7.40054 6.23235 6.91681 5.74849C6.43381 5.26536 6.18518 4.75328 6.18518 4.23261L5.81482 4.23261C5.81482 4.88024 6.12583 5.48115 6.65489 6.01034C7.18321 6.53881 7.93838 7.00621 8.85678 7.39476C10.6943 8.17218 13.2199 8.64856 16 8.64856V8.27819ZM25.8148 4.23261C25.8148 4.75328 25.5662 5.26536 25.0832 5.74849C24.5995 6.23235 23.8902 6.6766 22.9989 7.05367C21.2171 7.80749 18.7428 8.27819 16 8.27819V8.64856C18.7801 8.64856 21.3057 8.17218 23.1432 7.39476C24.0616 7.00621 24.8168 6.53881 25.3451 6.01034C25.8742 5.48115 26.1852 4.88024 26.1852 4.23261L25.8148 4.23261ZM25.6534 3.51036C25.7602 3.747 25.8148 3.98806 25.8148 4.23261L26.1852 4.23261C26.1852 3.93125 26.1176 3.63847 25.991 3.35798L25.6534 3.51036ZM25.1009 3.25131C24.3788 3.98241 23.145 4.62069 21.5595 5.07562C19.9783 5.52933 18.0645 5.79569 16.0002 5.79569V6.16606C18.0948 6.16606 20.0433 5.89599 21.6617 5.43162C23.2758 4.96846 24.5788 4.30702 25.3644 3.51157L25.1009 3.25131ZM16.0002 5.79569C13.9358 5.79569 12.0219 5.52929 10.4407 5.07553C8.85516 4.62055 7.62133 3.9822 6.89934 3.25102L6.6358 3.51126C7.42135 4.3068 8.72431 4.96832 10.3385 5.43153C11.9569 5.89596 13.9056 6.16606 16.0002 6.16606V5.79569ZM25.991 3.35798C25.907 3.172 25.7374 3.07996 25.5663 3.06947C25.3997 3.05926 25.2264 3.12421 25.1009 3.25131L25.3644 3.51157C25.4161 3.45922 25.4856 3.43559 25.5436 3.43915C25.597 3.44242 25.6336 3.46646 25.6534 3.51036L25.991 3.35798ZM6.34676 3.51002C6.36659 3.46612 6.40313 3.44208 6.45656 3.43881C6.51455 3.43527 6.5841 3.4589 6.6358 3.51126L6.89934 3.25102C6.77383 3.12392 6.60049 3.05895 6.43395 3.06913C6.26285 3.07959 6.09321 3.17161 6.00922 3.35757L6.34676 3.51002Z" fill="white" fill-opacity="0.15" mask="url(#path-15-inside-8_5938_101825)"/>
<path d="M56.0154 27.6574H48V4.00391H56.1771C58.5255 4.00391 60.5428 4.47744 62.2291 5.4245C63.923 6.36387 65.2243 7.71517 66.1328 9.4784C67.0414 11.2416 67.4957 13.3514 67.4957 15.8076C67.4957 18.2715 67.0375 20.3889 66.1213 22.1598C65.2127 23.9308 63.8999 25.2898 62.1829 26.2368C60.4735 27.1839 58.4177 27.6574 56.0154 27.6574ZM52.2849 23.95H55.8075C57.4552 23.95 58.8296 23.6497 59.9307 23.0491C61.0318 22.4409 61.8595 21.5361 62.4139 20.335C62.9682 19.1261 63.2454 17.617 63.2454 15.8076C63.2454 13.9981 62.9682 12.4967 62.4139 11.3032C61.8595 10.1021 61.0395 9.20506 59.9538 8.61218C58.8758 8.01161 57.5361 7.71132 55.9346 7.71132H52.2849V23.95Z" fill="white"/>
<path d="M80.5367 28.0039C78.7581 28.0039 77.222 27.6343 75.9285 26.8951C74.6426 26.1483 73.6532 25.0934 72.9602 23.7306C72.2673 22.36 71.9208 20.7469 71.9208 18.8913C71.9208 17.0665 72.2673 15.4649 72.9602 14.0867C73.6609 12.7007 74.6388 11.6228 75.8938 10.8528C77.1489 10.0751 78.6234 9.68629 80.3173 9.68629C81.4107 9.68629 82.4424 9.86339 83.4126 10.2176C84.3905 10.5641 85.2528 11.103 85.9997 11.8345C86.7543 12.566 87.3471 13.4977 87.7783 14.6295C88.2095 15.7537 88.4251 17.0934 88.4251 18.6488V19.9308H73.8842V17.1127H84.4174C84.4097 16.3119 84.2365 15.5997 83.8977 14.976C83.5589 14.3446 83.0854 13.848 82.4771 13.4861C81.8765 13.1242 81.1758 12.9433 80.3751 12.9433C79.5204 12.9433 78.7697 13.1512 78.1229 13.5669C77.4761 13.975 76.9718 14.514 76.6099 15.1839C76.2557 15.8461 76.0748 16.5737 76.0671 17.3668V19.8268C76.0671 20.8586 76.2557 21.744 76.633 22.4832C77.0103 23.2147 77.5377 23.7768 78.2153 24.1695C78.8929 24.5544 79.6859 24.7469 80.5945 24.7469C81.2028 24.7469 81.7533 24.6622 82.2461 24.4928C82.7389 24.3157 83.1662 24.0578 83.5281 23.719C83.89 23.3802 84.1633 22.9606 84.3481 22.4601L88.2519 22.899C88.0055 23.9308 87.5358 24.8316 86.8428 25.6016C86.1575 26.3639 85.2798 26.9567 84.2095 27.3802C83.1392 27.796 81.915 28.0039 80.5367 28.0039Z" fill="white"/>
<path d="M97.444 4.00391V27.6574H93.2631V4.00391H97.444Z" fill="white"/>
<path d="M118.89 9.91728L112.573 27.6574H107.953L101.635 9.91728H106.093L110.17 23.0953H110.355L114.444 9.91728H118.89Z" fill="white"/>
<path d="M130.335 28.0039C128.556 28.0039 127.02 27.6343 125.726 26.8951C124.441 26.1483 123.451 25.0934 122.758 23.7306C122.065 22.36 121.719 20.7469 121.719 18.8913C121.719 17.0665 122.065 15.4649 122.758 14.0867C123.459 12.7007 124.437 11.6228 125.692 10.8528C126.947 10.0751 128.421 9.68629 130.115 9.68629C131.209 9.68629 132.24 9.86339 133.211 10.2176C134.188 10.5641 135.051 11.103 135.798 11.8345C136.552 12.566 137.145 13.4977 137.576 14.6295C138.007 15.7537 138.223 17.0934 138.223 18.6488V19.9308H123.682V17.1127H134.215C134.208 16.3119 134.034 15.5997 133.696 14.976C133.357 14.3446 132.883 13.848 132.275 13.4861C131.674 13.1242 130.974 12.9433 130.173 12.9433C129.318 12.9433 128.568 13.1512 127.921 13.5669C127.274 13.975 126.77 14.514 126.408 15.1839C126.054 15.8461 125.873 16.5737 125.865 17.3668V19.8268C125.865 20.8586 126.054 21.744 126.431 22.4832C126.808 23.2147 127.336 23.7768 128.013 24.1695C128.691 24.5544 129.484 24.7469 130.392 24.7469C131.001 24.7469 131.551 24.6622 132.044 24.4928C132.537 24.3157 132.964 24.0578 133.326 23.719C133.688 23.3802 133.961 22.9606 134.146 22.4601L138.05 22.899C137.803 23.9308 137.334 24.8316 136.641 25.6016C135.955 26.3639 135.078 26.9567 134.007 27.3802C132.937 27.796 131.713 28.0039 130.335 28.0039Z" fill="white"/>
<defs>
<filter id="filter0_ii_5938_101825" x="0" y="17.5779" width="32" height="10.972" filterUnits="userSpaceOnUse" color-interpolation-filters="sRGB">
<feFlood flood-opacity="0" result="BackgroundImageFix"/>
<feBlend mode="normal" in="SourceGraphic" in2="BackgroundImageFix" result="shape"/>
<feColorMatrix in="SourceAlpha" type="matrix" values="0 0 0 0 0 0 0 0 0 0 0 0 0 0 0 0 0 0 127 0" result="hardAlpha"/>
<feOffset dy="1.18519"/>
<feGaussianBlur stdDeviation="0.592593"/>
<feComposite in2="hardAlpha" operator="arithmetic" k2="-1" k3="1"/>
<feColorMatrix type="matrix" values="0 0 0 0 0 0 0 0 0 0 0 0 0 0 0 0 0 0 0.25 0"/>
<feBlend mode="normal" in2="shape" result="effect1_innerShadow_5938_101825"/>
<feColorMatrix in="SourceAlpha" type="matrix" values="0 0 0 0 0 0 0 0 0 0 0 0 0 0 0 0 0 0 127 0" result="hardAlpha"/>
<feOffset dy="-0.888889"/>
<feGaussianBlur stdDeviation="0.592593"/>
<feComposite in2="hardAlpha" operator="arithmetic" k2="-1" k3="1"/>
<feColorMatrix type="matrix" values="0 0 0 0 1 0 0 0 0 1 0 0 0 0 1 0 0 0 0.25 0"/>
<feBlend mode="normal" in2="effect1_innerShadow_5938_101825" result="effect2_innerShadow_5938_101825"/>
</filter>
<filter id="filter1_ii_5938_101825" x="0" y="22.7835" width="32" height="10.409" filterUnits="userSpaceOnUse" color-interpolation-filters="sRGB">
<feFlood flood-opacity="0" result="BackgroundImageFix"/>
<feBlend mode="normal" in="SourceGraphic" in2="BackgroundImageFix" result="shape"/>
<feColorMatrix in="SourceAlpha" type="matrix" values="0 0 0 0 0 0 0 0 0 0 0 0 0 0 0 0 0 0 127 0" result="hardAlpha"/>
<feOffset dy="1.18519"/>
<feGaussianBlur stdDeviation="0.592593"/>
<feComposite in2="hardAlpha" operator="arithmetic" k2="-1" k3="1"/>
<feColorMatrix type="matrix" values="0 0 0 0 0 0 0 0 0 0 0 0 0 0 0 0 0 0 0.25 0"/>
<feBlend mode="normal" in2="shape" result="effect1_innerShadow_5938_101825"/>
<feColorMatrix in="SourceAlpha" type="matrix" values="0 0 0 0 0 0 0 0 0 0 0 0 0 0 0 0 0 0 127 0" result="hardAlpha"/>
<feOffset dy="-0.888889"/>
<feGaussianBlur stdDeviation="0.592593"/>
<feComposite in2="hardAlpha" operator="arithmetic" k2="-1" k3="1"/>
<feColorMatrix type="matrix" values="0 0 0 0 1 0 0 0 0 1 0 0 0 0 1 0 0 0 0.25 0"/>
<feBlend mode="normal" in2="effect1_innerShadow_5938_101825" result="effect2_innerShadow_5938_101825"/>
</filter>
<filter id="filter2_ii_5938_101825" x="2" y="9.84087" width="28" height="9.59997" filterUnits="userSpaceOnUse" color-interpolation-filters="sRGB">
<feFlood flood-opacity="0" result="BackgroundImageFix"/>
<feBlend mode="normal" in="SourceGraphic" in2="BackgroundImageFix" result="shape"/>
<feColorMatrix in="SourceAlpha" type="matrix" values="0 0 0 0 0 0 0 0 0 0 0 0 0 0 0 0 0 0 127 0" result="hardAlpha"/>
<feOffset dy="1.03704"/>
<feGaussianBlur stdDeviation="0.518519"/>
<feComposite in2="hardAlpha" operator="arithmetic" k2="-1" k3="1"/>
<feColorMatrix type="matrix" values="0 0 0 0 0 0 0 0 0 0 0 0 0 0 0 0 0 0 0.25 0"/>
<feBlend mode="normal" in2="shape" result="effect1_innerShadow_5938_101825"/>
<feColorMatrix in="SourceAlpha" type="matrix" values="0 0 0 0 0 0 0 0 0 0 0 0 0 0 0 0 0 0 127 0" result="hardAlpha"/>
<feOffset dy="-0.777778"/>
<feGaussianBlur stdDeviation="0.518519"/>
<feComposite in2="hardAlpha" operator="arithmetic" k2="-1" k3="1"/>
<feColorMatrix type="matrix" values="0 0 0 0 1 0 0 0 0 1 0 0 0 0 1 0 0 0 0.25 0"/>
<feBlend mode="normal" in2="effect1_innerShadow_5938_101825" result="effect2_innerShadow_5938_101825"/>
</filter>
<filter id="filter3_ii_5938_101825" x="2" y="14.3956" width="28" height="9.10827" filterUnits="userSpaceOnUse" color-interpolation-filters="sRGB">
<feFlood flood-opacity="0" result="BackgroundImageFix"/>
<feBlend mode="normal" in="SourceGraphic" in2="BackgroundImageFix" result="shape"/>
<feColorMatrix in="SourceAlpha" type="matrix" values="0 0 0 0 0 0 0 0 0 0 0 0 0 0 0 0 0 0 127 0" result="hardAlpha"/>
<feOffset dy="1.03704"/>
<feGaussianBlur stdDeviation="0.518519"/>
<feComposite in2="hardAlpha" operator="arithmetic" k2="-1" k3="1"/>
<feColorMatrix type="matrix" values="0 0 0 0 0 0 0 0 0 0 0 0 0 0 0 0 0 0 0.25 0"/>
<feBlend mode="normal" in2="shape" result="effect1_innerShadow_5938_101825"/>
<feColorMatrix in="SourceAlpha" type="matrix" values="0 0 0 0 0 0 0 0 0 0 0 0 0 0 0 0 0 0 127 0" result="hardAlpha"/>
<feOffset dy="-0.777778"/>
<feGaussianBlur stdDeviation="0.518519"/>
<feComposite in2="hardAlpha" operator="arithmetic" k2="-1" k3="1"/>
<feColorMatrix type="matrix" values="0 0 0 0 1 0 0 0 0 1 0 0 0 0 1 0 0 0 0.25 0"/>
<feBlend mode="normal" in2="effect1_innerShadow_5938_101825" result="effect2_innerShadow_5938_101825"/>
</filter>
<filter id="filter4_ii_5938_101825" x="4" y="3.79671" width="24" height="8.22841" filterUnits="userSpaceOnUse" color-interpolation-filters="sRGB">
<feFlood flood-opacity="0" result="BackgroundImageFix"/>
<feBlend mode="normal" in="SourceGraphic" in2="BackgroundImageFix" result="shape"/>
<feColorMatrix in="SourceAlpha" type="matrix" values="0 0 0 0 0 0 0 0 0 0 0 0 0 0 0 0 0 0 127 0" result="hardAlpha"/>
<feOffset dy="0.888889"/>
<feGaussianBlur stdDeviation="0.444444"/>
<feComposite in2="hardAlpha" operator="arithmetic" k2="-1" k3="1"/>
<feColorMatrix type="matrix" values="0 0 0 0 0 0 0 0 0 0 0 0 0 0 0 0 0 0 0.25 0"/>
<feBlend mode="normal" in2="shape" result="effect1_innerShadow_5938_101825"/>
<feColorMatrix in="SourceAlpha" type="matrix" values="0 0 0 0 0 0 0 0 0 0 0 0 0 0 0 0 0 0 127 0" result="hardAlpha"/>
<feOffset dy="-0.666667"/>
<feGaussianBlur stdDeviation="0.444444"/>
<feComposite in2="hardAlpha" operator="arithmetic" k2="-1" k3="1"/>
<feColorMatrix type="matrix" values="0 0 0 0 1 0 0 0 0 1 0 0 0 0 1 0 0 0 0.25 0"/>
<feBlend mode="normal" in2="effect1_innerShadow_5938_101825" result="effect2_innerShadow_5938_101825"/>
</filter>
<filter id="filter5_ii_5938_101825" x="4" y="7.70003" width="24" height="7.80751" filterUnits="userSpaceOnUse" color-interpolation-filters="sRGB">
<feFlood flood-opacity="0" result="BackgroundImageFix"/>
<feBlend mode="normal" in="SourceGraphic" in2="BackgroundImageFix" result="shape"/>
<feColorMatrix in="SourceAlpha" type="matrix" values="0 0 0 0 0 0 0 0 0 0 0 0 0 0 0 0 0 0 127 0" result="hardAlpha"/>
<feOffset dy="0.888889"/>
<feGaussianBlur stdDeviation="0.444444"/>
<feComposite in2="hardAlpha" operator="arithmetic" k2="-1" k3="1"/>
<feColorMatrix type="matrix" values="0 0 0 0 0 0 0 0 0 0 0 0 0 0 0 0 0 0 0.25 0"/>
<feBlend mode="normal" in2="shape" result="effect1_innerShadow_5938_101825"/>
<feColorMatrix in="SourceAlpha" type="matrix" values="0 0 0 0 0 0 0 0 0 0 0 0 0 0 0 0 0 0 127 0" result="hardAlpha"/>
<feOffset dy="-0.666667"/>
<feGaussianBlur stdDeviation="0.444444"/>
<feComposite in2="hardAlpha" operator="arithmetic" k2="-1" k3="1"/>
<feColorMatrix type="matrix" values="0 0 0 0 1 0 0 0 0 1 0 0 0 0 1 0 0 0 0.25 0"/>
<feBlend mode="normal" in2="effect1_innerShadow_5938_101825" result="effect2_innerShadow_5938_101825"/>
</filter>
<filter id="filter6_ii_5938_101825" x="6" y="-0.555556" width="20" height="6.85733" filterUnits="userSpaceOnUse" color-interpolation-filters="sRGB">
<feFlood flood-opacity="0" result="BackgroundImageFix"/>
<feBlend mode="normal" in="SourceGraphic" in2="BackgroundImageFix" result="shape"/>
<feColorMatrix in="SourceAlpha" type="matrix" values="0 0 0 0 0 0 0 0 0 0 0 0 0 0 0 0 0 0 127 0" result="hardAlpha"/>
<feOffset dy="0.740741"/>
<feGaussianBlur stdDeviation="0.37037"/>
<feComposite in2="hardAlpha" operator="arithmetic" k2="-1" k3="1"/>
<feColorMatrix type="matrix" values="0 0 0 0 0 0 0 0 0 0 0 0 0 0 0 0 0 0 0.25 0"/>
<feBlend mode="normal" in2="shape" result="effect1_innerShadow_5938_101825"/>
<feColorMatrix in="SourceAlpha" type="matrix" values="0 0 0 0 0 0 0 0 0 0 0 0 0 0 0 0 0 0 127 0" result="hardAlpha"/>
<feOffset dy="-0.555556"/>
<feGaussianBlur stdDeviation="0.37037"/>
<feComposite in2="hardAlpha" operator="arithmetic" k2="-1" k3="1"/>
<feColorMatrix type="matrix" values="0 0 0 0 1 0 0 0 0 1 0 0 0 0 1 0 0 0 0.25 0"/>
<feBlend mode="normal" in2="effect1_innerShadow_5938_101825" result="effect2_innerShadow_5938_101825"/>
</filter>
<filter id="filter7_ii_5938_101825" x="6" y="2.69786" width="20" height="6.50626" filterUnits="userSpaceOnUse" color-interpolation-filters="sRGB">
<feFlood flood-opacity="0" result="BackgroundImageFix"/>
<feBlend mode="normal" in="SourceGraphic" in2="BackgroundImageFix" result="shape"/>
<feColorMatrix in="SourceAlpha" type="matrix" values="0 0 0 0 0 0 0 0 0 0 0 0 0 0 0 0 0 0 127 0" result="hardAlpha"/>
<feOffset dy="0.740741"/>
<feGaussianBlur stdDeviation="0.37037"/>
<feComposite in2="hardAlpha" operator="arithmetic" k2="-1" k3="1"/>
<feColorMatrix type="matrix" values="0 0 0 0 0 0 0 0 0 0 0 0 0 0 0 0 0 0 0.25 0"/>
<feBlend mode="normal" in2="shape" result="effect1_innerShadow_5938_101825"/>
<feColorMatrix in="SourceAlpha" type="matrix" values="0 0 0 0 0 0 0 0 0 0 0 0 0 0 0 0 0 0 127 0" result="hardAlpha"/>
<feOffset dy="-0.555556"/>
<feGaussianBlur stdDeviation="0.37037"/>
<feComposite in2="hardAlpha" operator="arithmetic" k2="-1" k3="1"/>
<feColorMatrix type="matrix" values="0 0 0 0 1 0 0 0 0 1 0 0 0 0 1 0 0 0 0.25 0"/>
<feBlend mode="normal" in2="effect1_innerShadow_5938_101825" result="effect2_innerShadow_5938_101825"/>
</filter>
</defs>
</svg>
