<svg width="40" height="40" viewBox="0 0 40 40" fill="none" xmlns="http://www.w3.org/2000/svg">
<g clip-path="url(#clip0_1416_6756)">
<rect width="40" height="40" rx="20" fill="#DEDAF9"/>
<path d="M16.8924 17.8437C16.8924 18.12 16.6682 18.3442 16.392 18.3442C16.3552 18.3442 16.3189 18.3396 16.2841 18.3321C16.1366 18.2996 16.0143 18.2024 15.9469 18.0712C15.912 18.0028 15.892 17.9256 15.892 17.8437C15.892 17.5675 16.1162 17.3438 16.392 17.3438C16.6678 17.3438 16.8924 17.5675 16.8924 17.8437Z" fill="#FFAC00"/>
<path d="M23.4985 27.9424L23.4399 28.5935L23.2683 28.441C23.3623 28.2759 23.4376 28.1075 23.4985 27.9424Z" fill="#DD920B"/>
<path d="M27.6399 10.0314C27.6399 9.71375 27.4702 9.47515 27.3325 9.33329C27.2381 9.23655 27.1585 9.18492 27.1585 9.18492C27.1585 9.18492 27.2492 8.75422 27.2492 8.13887C27.2492 7.26678 27.0669 6.02445 26.1841 5.11422C26.1409 5.06957 26.0958 5.02585 26.0488 4.98259C24.9818 4.00213 23.8013 3.5998 22.8916 4.08678H22.8911C22.5176 4.28678 22.1897 4.63654 21.9339 5.15794H21.9334C21.9288 5.15096 21.8744 5.07654 21.7813 4.9798C21.7772 4.97561 21.7725 4.97096 21.7679 4.96631C21.7632 4.9612 21.7586 4.95654 21.7539 4.95189C21.4074 4.60492 20.6139 4.04724 19.8502 5.19282H19.8497C19.8497 5.19282 19.8488 5.19143 19.8483 5.1905C19.8474 5.19003 19.8469 5.1891 19.8455 5.18771C19.8446 5.18678 19.8437 5.18538 19.8423 5.18399C19.8409 5.18259 19.8395 5.1812 19.8376 5.17934C19.8362 5.17748 19.8344 5.17561 19.8325 5.17375C19.7176 5.05468 19.0427 4.41887 17.7316 4.38724C15.9283 4.34352 15.1376 5.29236 15.1376 6.31189C15.1376 6.88771 15.3897 7.48585 15.8534 7.94073C15.8688 7.95562 15.8846 7.97096 15.9004 7.98538C15.9158 8.00027 15.9316 8.01468 15.9479 8.0291C15.8999 8.01841 14.3609 7.6691 13.6692 8.41329C13.4599 8.63841 13.2292 9.14166 13.2292 9.6505C13.2292 9.97236 13.3213 10.2965 13.5697 10.5538C13.719 10.7082 13.9241 10.8384 14.199 10.93C13.9106 11.0268 13.6906 11.2221 13.6906 11.5924C13.6906 11.6445 13.6948 11.6998 13.7041 11.7589C13.7339 11.9528 13.8069 12.0952 13.9083 12.197C14.4432 12.7342 15.7702 12.1528 15.7702 12.1528C15.833 13.1138 15.9032 14.2472 15.9097 14.3584C16.0246 14.3333 16.1437 14.3198 16.2651 14.3198C16.6567 14.3198 17.0186 14.5063 17.3106 14.7468C17.4772 14.7872 17.6409 14.8389 17.8027 14.9096C17.8767 14.9417 17.9516 14.9779 18.0069 15.037C18.032 15.0635 18.0818 15.1035 18.0818 15.0468V15.0403L18.0288 14.0765C18.0269 14.0431 18.026 14.0096 18.026 13.9761C18.026 13.6296 18.1246 13.2886 18.3106 12.9947L18.473 12.7389C18.5441 12.6268 18.5799 12.4989 18.5799 12.371C18.5799 12.2538 18.5497 12.1361 18.4892 12.0305L18.2818 11.6668C18.2195 11.5579 18.1906 11.4407 18.1906 11.3263C18.1906 11.031 18.3823 10.7505 18.693 10.6635C20.4818 10.164 24.6567 9.24445 26.5009 10.9184L27.1702 12.7198L27.1716 12.7231C27.1716 12.7231 27.3916 12.1193 27.3916 11.4579C27.3916 11.2463 27.3688 11.0282 27.3092 10.8221C27.5539 10.5231 27.6399 10.2575 27.6399 10.0314ZM27.6399 10.0314C27.6399 9.71375 27.4702 9.47515 27.3325 9.33329C27.2381 9.23655 27.1585 9.18492 27.1585 9.18492C27.1585 9.18492 27.2492 8.75422 27.2492 8.13887C27.2492 7.26678 27.0669 6.02445 26.1841 5.11422C26.1409 5.06957 26.0958 5.02585 26.0488 4.98259C24.9818 4.00213 23.8013 3.5998 22.8916 4.08678H22.8911C22.5176 4.28678 22.1897 4.63654 21.9339 5.15794H21.9334C21.9288 5.15096 21.8744 5.07654 21.7813 4.9798C21.7772 4.97561 21.7725 4.97096 21.7679 4.96631C21.7632 4.9612 21.7586 4.95654 21.7539 4.95189C21.4074 4.60492 20.6139 4.04724 19.8502 5.19282H19.8497C19.8497 5.19282 19.8488 5.19143 19.8483 5.1905C19.8474 5.19003 19.8469 5.1891 19.8455 5.18771C19.8446 5.18678 19.8437 5.18538 19.8423 5.18399C19.8409 5.18259 19.8395 5.1812 19.8376 5.17934C19.8362 5.17748 19.8344 5.17561 19.8325 5.17375C19.7176 5.05468 19.0427 4.41887 17.7316 4.38724C15.9283 4.34352 15.1376 5.29236 15.1376 6.31189C15.1376 6.88771 15.3897 7.48585 15.8534 7.94073C15.8688 7.95562 15.8846 7.97096 15.9004 7.98538C15.9158 8.00027 15.9316 8.01468 15.9479 8.0291C15.8999 8.01841 14.3609 7.6691 13.6692 8.41329C13.4599 8.63841 13.2292 9.14166 13.2292 9.6505C13.2292 9.97236 13.3213 10.2965 13.5697 10.5538C13.719 10.7082 13.9241 10.8384 14.199 10.93C13.9106 11.0268 13.6906 11.2221 13.6906 11.5924C13.6906 11.6445 13.6948 11.6998 13.7041 11.7589C13.7339 11.9528 13.8069 12.0952 13.9083 12.197C14.4432 12.7342 15.7702 12.1528 15.7702 12.1528C15.833 13.1138 15.9032 14.2472 15.9097 14.3584C16.0246 14.3333 16.1437 14.3198 16.2651 14.3198C16.6567 14.3198 17.0186 14.5063 17.3106 14.7468C17.4772 14.7872 17.6409 14.8389 17.8027 14.9096C17.8767 14.9417 17.9516 14.9779 18.0069 15.037C18.032 15.0635 18.0818 15.1035 18.0818 15.0468V15.0403L18.0288 14.0765C18.0269 14.0431 18.026 14.0096 18.026 13.9761C18.026 13.6296 18.1246 13.2886 18.3106 12.9947L18.473 12.7389C18.5441 12.6268 18.5799 12.4989 18.5799 12.371C18.5799 12.2538 18.5497 12.1361 18.4892 12.0305L18.2818 11.6668C18.2195 11.5579 18.1906 11.4407 18.1906 11.3263C18.1906 11.031 18.3823 10.7505 18.693 10.6635C20.4818 10.164 24.6567 9.24445 26.5009 10.9184L27.1702 12.7198L27.1716 12.7231C27.1716 12.7231 27.3916 12.1193 27.3916 11.4579C27.3916 11.2463 27.3688 11.0282 27.3092 10.8221C27.5539 10.5231 27.6399 10.2575 27.6399 10.0314Z" fill="#541B0A"/>
<path d="M18.918 35.4391C18.8008 35.8131 18.6776 36.1986 18.4208 36.4949C18.345 36.5828 18.259 36.6591 18.1673 36.7293L18.1441 35.1205L18.125 33.7754C18.151 33.78 18.1771 33.7842 18.2031 33.7889C18.2752 33.8028 18.3483 33.8173 18.4199 33.8363C18.5603 33.8735 18.6952 33.927 18.8045 34.021C19.1864 34.3498 19.0687 34.9582 18.918 35.4391Z" fill="#009F62"/>
<path d="M21.5951 36.4316L21.5379 40.4182C21.3733 40.2209 21.2198 40.0121 21.03 39.84C20.7096 39.5493 20.2919 39.3675 20.0193 39.0316C19.5379 38.44 19.6812 37.4921 20.223 36.9554C20.6709 36.5121 21.1161 36.4326 21.5951 36.4316Z" fill="#009F62"/>
<path d="M7.82127 45.9518H-1.60803L-1.60385 38.0885L3.26778 30.9378L4.38546 29.2969L4.79848 29.9308L6.42592 32.4299C7.05336 33.3597 7.40685 34.4466 7.44732 35.5676L7.82127 45.9518Z" fill="#FF6060"/>
<path d="M18.1662 36.7276L18.1239 33.7736L18.1081 32.669C18.0992 32.4899 17.9667 32.3415 17.7899 32.3127L17.6122 32.2834L16.5969 32.1174L16.0034 32.0201C15.8095 31.9885 15.6215 31.936 15.4434 31.8639C14.6299 31.5388 14.015 30.8257 13.8281 29.9439L13.6215 28.4448L13.3834 26.7188L6.79039 27.6518C5.87829 27.7964 5.06667 28.3108 4.54667 29.0741L4.38806 29.3071L4.80108 29.9411L6.42853 32.4401C7.05597 33.3699 7.40946 34.4569 7.44992 35.5778L7.82388 45.962H18.2983L18.1662 36.7276ZM13.6634 33.7704C13.582 34.9532 12.5569 35.8457 11.3746 35.7643C10.1918 35.6829 9.29922 34.6583 9.38062 33.4755C9.46201 32.2927 10.4867 31.4001 11.6695 31.4815C12.8522 31.5629 13.7448 32.5881 13.6634 33.7704Z" fill="#735FFF"/>
<path d="M25.2571 26.1175L24.8725 30.3934C24.8315 30.8482 24.6808 31.2864 24.4343 31.6706L24.3115 31.8613C24.1329 31.9334 23.9455 31.9859 23.7515 32.0175L23.1576 32.1147L23.6455 31.3566C23.8925 30.9729 24.0432 30.5348 24.0841 30.0803L24.4776 25.7031L25.2571 26.1175Z" fill="white"/>
<path d="M23.4404 28.5901L23.4079 28.9487L23.1121 28.6849C23.1693 28.6035 23.2218 28.5208 23.2688 28.4375L23.4404 28.5901Z" fill="#FFAC00"/>
<path d="M23.4017 28.9483L23.304 30.0348C23.2742 30.3664 23.1645 30.6864 22.984 30.966L22.957 31.0074C22.6658 31.1618 22.3393 31.2943 21.9719 31.3976L21.5105 29.819C22.2724 29.5776 22.7751 29.1543 23.1058 28.6846L23.4017 28.9483Z" fill="#DD920B"/>
<path d="M22.9644 31.0085L22.1481 32.2769L21.9705 32.3062C21.7937 32.335 21.6612 32.4834 21.6523 32.6624L21.5984 36.4382C21.1193 36.4392 20.6742 36.5187 20.2263 36.962C19.6844 37.4987 19.5412 38.4466 20.0225 39.0382C20.2951 39.3741 20.7128 39.5559 21.0332 39.8466C21.223 40.0187 21.3765 40.2276 21.5412 40.4248L21.4621 45.9555H18.3002L18.1681 36.721C18.2598 36.6508 18.3458 36.5745 18.4216 36.4866C18.6784 36.1903 18.8016 35.8048 18.9188 35.4308C19.0695 34.9499 19.1872 34.3415 18.8053 34.0127C18.696 33.9187 18.5612 33.8652 18.4207 33.828C18.3491 33.8089 18.276 33.7945 18.2039 33.7806C18.1779 33.7759 18.1519 33.7717 18.1258 33.7671L18.11 32.6624C18.1012 32.4834 17.9686 32.335 17.7919 32.3062L17.6142 32.2769L16.7709 30.9671C16.7616 30.9531 16.7537 30.9382 16.7449 30.9238C17.0644 31.102 17.4286 31.2545 17.8444 31.3731C18.063 31.4359 18.296 31.4889 18.5444 31.5313C18.6379 31.5475 18.7342 31.562 18.8323 31.5745C19.1909 31.6215 19.5793 31.6466 19.9993 31.6466C20.6398 31.6466 21.203 31.5834 21.6988 31.4699C21.7951 31.448 21.8881 31.4243 21.9793 31.3987C22.3467 31.2955 22.6732 31.1629 22.9644 31.0085Z" fill="#FFAC00"/>
<path d="M16.9417 28.8713L16.3901 29.3727L16.2371 27.6689C16.3766 28.0624 16.5961 28.4894 16.9417 28.8713Z" fill="#DD920B"/>
<path d="M17.1416 29.0855L16.4193 29.7422L16.3867 29.3813L16.9383 28.8799C17.0016 28.9501 17.069 29.019 17.1416 29.0855Z" fill="#FFAC00"/>
<path d="M18.9858 29.9464L18.5402 31.5301C17.8207 31.4078 17.2286 31.1943 16.7407 30.9226C16.5761 30.6533 16.4747 30.3496 16.4468 30.0347L16.4193 29.7319L17.1416 29.0752C17.5737 29.4733 18.1681 29.7989 18.9858 29.9464Z" fill="#DD920B"/>
<g style="mix-blend-mode:multiply" opacity="0.6">
<path d="M18.4407 33.7066L18.4151 33.8261L18.1393 35.1103L18.1202 33.7652L18.1044 32.6605C18.0956 32.4815 17.963 32.3331 17.7863 32.3042L17.6086 32.2749L16.5933 32.1089L15.9998 32.0117C15.8058 31.9801 15.6179 31.9275 15.4398 31.8554C15.2198 31.7675 15.0142 31.6512 14.8277 31.5108L13.9388 29.1056L14.7333 28.7708L15.5202 28.4391L16.2733 28.1215L16.7909 27.9033C16.7909 27.9033 17.0774 29.8405 17.8388 31.3712C17.9295 31.5536 18.0272 31.7298 18.1319 31.8968C18.4686 32.4349 18.5742 33.0861 18.4407 33.7066Z" fill="#AF750E"/>
</g>
<path d="M19.2752 29.9905L18.8297 31.5742C18.7315 31.5617 18.6352 31.5473 18.5417 31.531L18.9873 29.9473C19.0804 29.964 19.1762 29.9784 19.2752 29.9905Z" fill="#FFAC00"/>
<path d="M21.6946 31.4681C21.1988 31.5816 20.6356 31.6448 19.9951 31.6448C19.5751 31.6448 19.1867 31.6197 18.8281 31.5727L19.2737 29.989C19.4984 30.0164 19.7384 30.0309 19.9951 30.0309C20.4649 30.0309 20.876 29.982 21.2356 29.8955L21.6946 31.4681Z" fill="#DD920B"/>
<path d="M15.4398 31.8629C15.2198 31.775 15.0143 31.6587 14.8277 31.5182C14.325 31.1396 13.9608 30.5861 13.8245 29.9429L13.3798 26.7177L13.3789 26.7112L14.4943 26.1191L14.7333 28.7782L14.8789 30.395C14.9198 30.8498 15.0705 31.288 15.317 31.6722L15.4398 31.8629Z" fill="#735FFF"/>
<path d="M16.5913 32.1147L15.9978 32.0175C15.8038 31.9859 15.6159 31.9334 15.4378 31.8613L15.315 31.6706C15.0685 31.2864 14.9178 30.8482 14.8768 30.3934L14.7313 28.7766L14.4922 26.1175L15.2717 25.7031L15.5182 28.445L15.6652 30.0803C15.7061 30.5348 15.8564 30.9729 16.1038 31.3566L16.5913 32.1147Z" fill="white"/>
<path d="M17.6083 32.286L16.593 32.1199L16.1055 31.3618C15.8581 30.9781 15.7079 30.5399 15.6669 30.0855L15.52 28.4502L15.2734 25.7083L16.019 25.3125L16.0241 25.3702L16.232 27.6776L16.273 28.1325L16.3851 29.3813L16.4176 29.7423L16.4451 30.0451C16.473 30.3599 16.5744 30.6637 16.739 30.933C16.7479 30.9474 16.7558 30.9623 16.7651 30.9762L17.6083 32.286Z" fill="#735FFF"/>
<path d="M35.4267 29.3113L35.1049 29.8053L33.3886 32.4406C32.7612 33.3704 32.4077 34.4574 32.3672 35.5783L31.9933 45.9625H21.4584L21.5374 40.4318L21.5947 36.4453L21.6486 32.6694C21.6574 32.4904 21.79 32.342 21.9667 32.3132L22.1444 32.2839L23.1593 32.1178L23.7533 32.0206C23.9472 31.989 24.1347 31.9364 24.3133 31.8643C25.1267 31.5392 25.7416 30.8262 25.9286 29.9443L26.244 27.6532L26.3728 26.7188L33.0128 27.6653C33.877 27.802 34.6533 28.2718 35.1756 28.9736L35.4267 29.3113Z" fill="#735FFF"/>
<path d="M43.8345 40.5978V45.948H31.9922L32.3661 35.5639C32.4066 34.4429 32.7601 33.3559 33.3875 32.4262L35.1038 29.7908L35.4257 29.2969L36.6759 30.9769L43.8345 40.5978Z" fill="#FF6060"/>
<path d="M24.4769 25.7083L24.0834 30.0855C24.0424 30.5399 23.8917 30.9781 23.6448 31.3618L23.1569 32.1199L22.142 32.286L22.9582 31.0176L22.9852 30.9762C23.1657 30.6967 23.2755 30.3767 23.3052 30.0451L23.4029 28.9585L23.4355 28.5999L23.4941 27.9488L23.7271 25.3558L23.7313 25.3125L24.4769 25.7083Z" fill="#735FFF"/>
<path d="M21.9766 31.396C21.8854 31.4216 21.7924 31.4453 21.6961 31.4672L21.2371 29.8946C21.3333 29.8718 21.4264 29.8458 21.5152 29.8174L21.9766 31.396Z" fill="#FFAC00"/>
<path d="M26.3704 26.7112L26.3695 26.7173L25.9253 29.9429C25.7383 30.8247 25.1234 31.5377 24.3099 31.8629L24.4327 31.6722C24.6792 31.288 24.8299 30.8498 24.8709 30.395L25.2555 26.1191L26.3704 26.7112Z" fill="#735FFF"/>
<path d="M11.669 31.4759C10.4862 31.3945 9.46155 32.287 9.38015 33.4698C9.29876 34.6526 10.1913 35.6773 11.3741 35.7586C12.5564 35.84 13.5815 34.9475 13.6629 33.7647C13.7443 32.5824 12.8518 31.5573 11.669 31.4759ZM10.0146 33.6028C9.96573 33.5991 9.92852 33.5568 9.93225 33.508C9.9355 33.4586 9.97783 33.4219 10.0271 33.4252C10.076 33.4284 10.1132 33.4707 10.1095 33.52C10.1062 33.5689 10.0639 33.6061 10.0146 33.6028ZM11.6899 34.9945C11.6797 35.1391 11.5546 35.2484 11.4099 35.2386C11.2653 35.2284 11.156 35.1033 11.1662 34.9586C11.176 34.814 11.3015 34.7047 11.4457 34.7149C11.5904 34.7247 11.6997 34.8503 11.6899 34.9945ZM13.016 33.8093C12.9671 33.8061 12.9299 33.7638 12.9336 33.7145C12.9369 33.6656 12.9792 33.6284 13.0285 33.6317C13.0774 33.6354 13.1146 33.6777 13.1109 33.727C13.1076 33.7759 13.0653 33.8131 13.016 33.8093Z" fill="#DAD7FF"/>
<path d="M10.1059 33.5189C10.1027 33.5678 10.0604 33.605 10.011 33.6017C9.96221 33.598 9.925 33.5557 9.92872 33.5068C9.93198 33.4575 9.97431 33.4208 10.0236 33.424C10.0724 33.4273 10.1097 33.4696 10.1059 33.5189Z" fill="white"/>
<path d="M11.8164 33.7236C11.8192 33.7301 11.822 33.7362 11.8248 33.7427H11.8243C11.8215 33.7367 11.8187 33.7301 11.8164 33.7236Z" fill="#FFAC00"/>
<path d="M12.7527 32.9395L12.0341 33.5656C11.9811 33.3837 11.8871 33.226 11.7383 33.0991L12.3941 32.5279C12.4648 32.4665 12.5718 32.474 12.6336 32.5446L12.769 32.7C12.8308 32.7707 12.8234 32.8781 12.7527 32.9395Z" fill="#FFAC00"/>
<path d="M11.5028 33.9308C11.4041 33.9638 11.3125 34.0149 11.2339 34.0833L10.5316 34.6954C10.4734 34.7461 10.3851 34.7401 10.3339 34.6815C10.2832 34.6233 10.2893 34.5349 10.3479 34.4842L11.0534 33.8694C11.1107 33.8196 11.16 33.7615 11.2004 33.6973L11.2251 33.7256C11.2944 33.8056 11.3795 33.8703 11.4748 33.9163L11.4907 33.9242C11.4948 33.9261 11.4986 33.9289 11.5028 33.9308Z" fill="#FFAC00"/>
<path d="M12.5536 34.8502C12.495 34.9009 12.4066 34.8948 12.3559 34.8367L11.741 34.1306C11.6745 34.0544 11.5936 33.992 11.5034 33.9465C11.4992 33.9446 11.4955 33.9418 11.4913 33.9399L11.4755 33.932C11.3801 33.886 11.295 33.8213 11.2257 33.7413L11.201 33.713L10.3931 32.786C10.3317 32.7153 10.3392 32.6079 10.4099 32.5465L10.5652 32.4111C10.6359 32.3492 10.7434 32.3567 10.8048 32.4274L11.5471 33.2795L11.6406 33.3865C11.7117 33.4683 11.7657 33.5646 11.7978 33.6683C11.8071 33.6981 11.8187 33.7274 11.8313 33.7558C11.8629 33.826 11.9043 33.892 11.9555 33.9502L12.5671 34.653C12.6178 34.7111 12.6117 34.7995 12.5536 34.8502Z" fill="#FFAC00"/>
<path d="M11.6833 34.9931C11.6731 35.1377 11.548 35.247 11.4033 35.2373C11.2587 35.227 11.1494 35.1019 11.1596 34.9573C11.1694 34.8126 11.2949 34.7033 11.4391 34.7136C11.5838 34.7233 11.6931 34.8489 11.6833 34.9931Z" fill="#A39CFF"/>
<path d="M13.1072 33.7284C13.1039 33.7772 13.0616 33.8144 13.0123 33.8107C12.9634 33.8074 12.9262 33.7651 12.9299 33.7158C12.9332 33.667 12.9755 33.6298 13.0248 33.633C13.0737 33.6367 13.1109 33.6791 13.1072 33.7284Z" fill="white"/>
<path d="M25.6908 21.5538C25.4508 21.7008 25.1839 21.8166 24.8862 21.8947C24.7178 21.9394 24.5401 21.9719 24.3522 21.9919C24.1387 22.0143 23.9308 22.0282 23.7294 22.0338V25.3506L23.4964 27.9436C23.4355 28.1087 23.3601 28.2771 23.2662 28.4422C23.2192 28.5254 23.1666 28.6082 23.1094 28.6896C22.7787 29.1594 22.2759 29.5826 21.5141 29.824C21.4253 29.8524 21.3322 29.8785 21.2359 29.9012C20.8764 29.9878 20.4653 30.0366 19.9955 30.0366C19.7387 30.0366 19.4987 30.0222 19.2741 29.9947C19.175 29.9826 19.0792 29.9682 18.9862 29.9515C18.1685 29.804 17.5741 29.4785 17.142 29.0803C17.0694 29.0138 17.002 28.945 16.9387 28.8747C16.5932 28.4929 16.3736 28.0659 16.2341 27.6724L16.0262 25.365L16.2839 18.3347C16.3187 18.3422 16.355 18.3468 16.3918 18.3468C16.668 18.3468 16.8922 18.1226 16.8922 17.8464C16.8922 17.5701 16.668 17.3464 16.3918 17.3464C16.1155 17.3464 15.8918 17.5701 15.8918 17.8464C15.8918 17.9282 15.9118 18.0054 15.9466 18.0738C15.1266 17.9124 14.5052 17.1413 14.5052 16.2138C14.5052 16.145 14.5085 16.0771 14.5155 16.0106C14.5336 15.8306 14.575 15.658 14.6364 15.4971C14.7485 15.2031 14.9276 14.9468 15.1527 14.7492C15.3466 14.5789 15.5746 14.4524 15.8243 14.3831C15.8332 14.3808 15.8415 14.3785 15.8504 14.3761C15.8704 14.3706 15.8904 14.3659 15.9108 14.3613C16.0257 14.3361 16.1448 14.3226 16.2662 14.3226C16.2759 14.3226 16.2885 14.3226 16.3015 14.3236C16.3927 14.3264 16.482 14.3385 16.569 14.3594C16.715 14.3943 16.855 14.4524 16.9862 14.5259C17.102 14.5901 17.2113 14.6664 17.3118 14.7496C17.4783 14.7901 17.642 14.8417 17.8039 14.9124C17.8778 14.9445 17.9527 14.9808 18.008 15.0399C18.0341 15.0673 18.0866 15.1092 18.0829 15.0431C18.0829 15.0426 18.0299 14.0794 18.0299 14.0794C18.009 13.6985 18.1076 13.3199 18.3118 12.9975L18.4741 12.7417C18.482 12.7296 18.489 12.7171 18.4959 12.7045C18.6108 12.4961 18.6099 12.2417 18.4904 12.0333L18.2829 11.6696C18.0606 11.2808 18.2629 10.7868 18.6941 10.6664C19.4834 10.4459 20.7359 10.144 22.0485 10.0189H22.0494C23.3857 9.89149 24.7834 9.9473 25.8159 10.4594H25.8164C25.8773 10.4901 25.9364 10.5217 25.9946 10.5552C26.1783 10.6603 26.3485 10.7817 26.502 10.9213L27.1713 12.7226C27.1908 12.804 27.2094 12.8859 27.2262 12.9678C27.7062 15.2794 28.1355 20.0547 25.6908 21.5538Z" fill="#C16D53"/>
<path d="M21.8726 14.5642C21.9999 14.5549 22.0882 14.3438 22.0699 14.0928C22.0515 13.8417 21.9334 13.6457 21.8061 13.655C21.6788 13.6643 21.5904 13.8754 21.6088 14.1265C21.6271 14.3775 21.7452 14.5735 21.8726 14.5642Z" fill="#231F20"/>
<path d="M25.9351 14.3816C26.0624 14.3723 26.1507 14.1612 26.1324 13.9102C26.114 13.6591 25.9959 13.4631 25.8686 13.4724C25.7413 13.4817 25.6529 13.6928 25.6713 13.9439C25.6896 14.1949 25.8077 14.3909 25.9351 14.3816Z" fill="#231F20"/>
<g style="mix-blend-mode:screen">
<path d="M25.6875 21.5495C25.4475 21.6965 25.1805 21.8123 24.8828 21.8904C26.3312 21.3453 26.9158 18.8746 26.9112 16.5565C26.9065 14.15 26.1921 11.5695 25.8126 10.4551C25.9963 10.5602 26.3451 10.7774 26.4986 10.9169L27.1679 12.7183C27.1875 12.7997 27.2061 12.8816 27.2228 12.9634C27.7028 15.2751 28.1321 20.0504 25.6875 21.5495Z" fill="#E5765C"/>
</g>
<path d="M23.7297 22.0251C23.7297 22.0251 20.3525 22.3832 18.1967 19.2441C18.1967 19.2441 18.8897 24.2609 23.7297 24.9307V22.0251Z" fill="#843928"/>
<path d="M27.2488 8.1387C27.2488 8.75405 27.1581 9.18475 27.1581 9.18475C27.0269 5.07498 22.8906 4.08707 22.8906 4.08707H22.8911C23.8009 3.59963 24.9813 4.00196 26.0483 4.98242C26.0953 5.02568 26.1404 5.0694 26.1837 5.11405C27.0664 6.02428 27.2488 7.26661 27.2488 8.1387Z" fill="#872F1B"/>
<path d="M21.5496 7.85969C21.5496 7.85969 23.6031 9.26667 24.9877 7.39551C24.9877 7.39551 24.8403 8.58528 24.0328 9.03737C23.4049 9.38946 22.1886 9.29272 21.5496 7.85969Z" fill="#872F1B"/>
<path d="M24.5117 8.25488C24.5117 8.25488 25.048 8.91256 26.0485 8.47535C26.0485 8.47535 24.7275 9.54046 24.5117 8.25488Z" fill="#872F1B"/>
<path d="M27.9394 39.2161V38.6873H28.2441L27.6636 37.245H27.0096V38.6873H27.3636V39.2161H26.1199V38.6873H26.4808V35.2808H26.1199V34.752H28.7171L29.0171 35.058V36.9454L28.7176 37.245H28.178L28.7585 38.6873H29.1831V39.2161H27.9394ZM27.0096 36.7161H28.4957V35.2808H27.0096V36.7161Z" fill="#DAD7FF"/>
<g style="mix-blend-mode:soft-light">
<path d="M36.6779 31.0155L35.1045 29.8053L34.4245 29.282C33.9556 28.9215 33.4021 28.6881 32.817 28.6034L26.2435 27.6532L26.3724 26.7188L33.0124 27.6653C33.8766 27.802 34.6528 28.2718 35.1752 28.9736L35.4263 29.3113L36.6766 30.9913L36.6779 31.0155Z" fill="white"/>
</g>
<g style="mix-blend-mode:soft-light">
<path d="M13.546 27.9113L7.5418 28.5257C6.4325 28.6392 5.38599 29.0946 4.54692 29.829L3.26831 30.9481L4.38598 29.3071L4.54459 29.0741C5.06459 28.3108 5.87622 27.7964 6.78831 27.6518L13.3813 26.7188L13.546 27.9118V27.9113Z" fill="white"/>
</g>
<g style="mix-blend-mode:screen">
<path d="M17.0338 14.7418C16.9021 14.8771 16.4352 14.9116 16.3245 14.8967C16.0742 14.8623 15.8161 14.7953 15.5738 14.8674C15.3291 14.9399 15.1477 15.1409 14.9407 15.2906C14.9189 15.3065 14.8961 15.3218 14.8696 15.326C14.7054 15.3525 14.8068 15.1511 14.8421 15.0981C14.9282 14.9688 15.0338 14.8511 15.1505 14.7488C15.2059 14.7199 15.2607 14.6892 15.3138 14.6525C15.4831 14.5358 15.6282 14.4404 15.8221 14.3827C15.831 14.3804 15.8394 14.3781 15.8482 14.3758C15.8682 14.3702 15.8882 14.3655 15.9087 14.3609C16.0235 14.3358 16.1426 14.3223 16.264 14.3223C16.3217 14.3223 16.4394 14.333 16.5668 14.359C16.7226 14.3902 16.8924 14.4432 16.984 14.5255C17.0849 14.6162 17.0868 14.6874 17.0338 14.7418Z" fill="#E5765C"/>
</g>
<path d="M27.2006 35.4688V36.5232H28.3052V35.4688H27.2006ZM28.1968 36.4148H27.3089V35.5771H28.1968V36.4148Z" fill="white"/>
<path d="M28.9683 38.3815L28.6213 37.5438H28.8455L29.3218 37.0671V34.9299L28.8455 34.4531H25.8269V35.5796H26.1809V38.3815H25.8269V39.508H29.4878V38.3815H28.9683ZM29.3799 39.3996H27.7548V38.4899H27.9716L27.5385 37.4354H27.199V38.4899H27.5599V39.3996H25.9353V38.4899H26.2892V35.4713H25.9353V34.5615H28.8023L29.2134 34.9731V37.0238L28.8023 37.4354H28.4627L28.8888 38.4899H29.3799V39.3996ZM27.3074 38.3815V37.5438H27.466L27.8055 38.3815H27.3074Z" fill="white"/>
<path d="M27.2006 35.4688V36.5232H28.3052V35.4688H27.2006ZM28.1968 36.4148H27.3089V35.5771H28.1968V36.4148Z" fill="white"/>
<path d="M27.2006 35.4688V36.5232H28.3052V35.4688H27.2006ZM28.1968 36.4148H27.3089V35.5771H28.1968V36.4148Z" fill="white"/>
<g style="mix-blend-mode:soft-light">
<path d="M16.0301 25.3643L16.2074 27.2466L13.5432 27.935L13.3855 26.7154L16.0301 25.3643Z" fill="white"/>
</g>
<g style="mix-blend-mode:soft-light">
<path d="M23.7292 25.3379L23.5808 27.1225L26.2436 27.6374L26.3724 26.703L23.7292 25.3379Z" fill="white"/>
</g>
<path d="M15.9448 18.1488C15.9401 18.1488 15.9359 18.1488 15.9313 18.1474C15.0634 17.9767 14.4336 17.1655 14.4336 16.219C14.4336 15.2725 15.048 14.4846 15.8941 14.2986C15.9317 14.2902 15.9689 14.3139 15.9773 14.3516C15.9857 14.3893 15.962 14.4265 15.9243 14.4348C15.1415 14.6069 14.5736 15.3576 14.5736 16.2195C14.5736 17.0813 15.1559 17.853 15.9587 18.0111C15.9964 18.0186 16.021 18.0553 16.0136 18.093C16.0071 18.1265 15.9778 18.1493 15.9452 18.1493L15.9448 18.1488Z" fill="#231F20"/>
<path d="M17.3871 14.895C17.3704 14.895 17.3541 14.889 17.3406 14.8773C17.0965 14.6583 16.7109 14.3973 16.2588 14.3973C16.1444 14.3973 16.0299 14.4099 15.9183 14.4341C15.8806 14.4425 15.8434 14.4187 15.8351 14.3811C15.8267 14.3434 15.8504 14.3062 15.8881 14.2978C16.009 14.2713 16.1337 14.2578 16.2583 14.2578C16.7541 14.2578 17.1709 14.5383 17.4332 14.7736C17.462 14.7992 17.4644 14.8434 17.4383 14.8722C17.4244 14.8876 17.4053 14.8955 17.3862 14.8955L17.3871 14.895Z" fill="#231F20"/>
<path d="M15.9476 17.1884C15.9258 17.1884 15.9044 17.1782 15.8904 17.1591C15.8681 17.1275 15.8755 17.0843 15.9072 17.0619C15.9113 17.0591 16.3179 16.7671 16.3555 16.4796C16.3662 16.3968 16.3444 16.3243 16.289 16.2578C16.1653 16.1094 15.9923 16.1926 15.7709 16.3643C15.7597 16.3731 15.7453 16.3847 15.7281 16.3987C15.5593 16.5373 15.3844 16.668 15.263 16.6057C15.1983 16.5726 15.1695 16.4968 15.1769 16.3801C15.1923 16.1401 15.2672 15.9047 15.3927 15.7001C15.4993 15.5271 15.6272 15.4015 15.7732 15.3275C16.0806 15.1717 16.4532 15.2396 16.7774 15.3271C16.8146 15.3373 16.8365 15.3754 16.8267 15.4126C16.8169 15.4498 16.7788 15.4717 16.7411 15.4619C16.4425 15.3815 16.1011 15.3178 15.836 15.4522C15.7132 15.5145 15.6039 15.6224 15.5113 15.7736C15.3974 15.9591 15.3295 16.1722 15.316 16.3894C15.3113 16.4652 15.3267 16.4819 15.3272 16.4819C15.3462 16.4903 15.4137 16.4768 15.6397 16.2912C15.6579 16.2764 15.6737 16.2633 15.6858 16.254C15.8281 16.1443 16.1611 15.8866 16.3965 16.1689C16.4774 16.2657 16.5099 16.3768 16.4941 16.4987C16.4486 16.8471 16.0067 17.1633 15.9881 17.1768C15.976 17.1857 15.9616 17.1898 15.9476 17.1898V17.1884Z" fill="#231F20"/>
<path d="M24.6747 16.5335C24.6543 16.5335 24.6324 16.5312 24.6096 16.5265C24.3961 16.4818 24.2078 16.3739 24.0361 16.2642C24.0036 16.2432 23.9943 16.2005 24.0147 16.1679C24.0352 16.1353 24.0789 16.126 24.111 16.1465C24.2715 16.2493 24.4464 16.3498 24.6375 16.3898C24.7343 16.4098 24.8106 16.3474 24.8924 16.1809C25.1096 15.7381 24.9199 15.1488 24.7059 14.6312C24.5664 14.2935 24.4013 13.9721 24.2157 13.6753C24.1952 13.6428 24.205 13.5995 24.2375 13.5791C24.2701 13.5586 24.3133 13.5684 24.3338 13.6009C24.5236 13.9042 24.6924 14.2325 24.8347 14.5777C25.0608 15.1246 25.2589 15.7498 25.0175 16.2423C24.9766 16.3256 24.8747 16.5335 24.6743 16.5335H24.6747Z" fill="#231F20"/>
<path d="M23.1132 18.5685C22.3467 18.5685 21.729 17.9908 21.503 17.7481C21.4769 17.7197 21.4783 17.6755 21.5067 17.6495C21.5351 17.6234 21.5792 17.6248 21.6053 17.6532C22.8002 18.9406 23.8039 18.3122 24.1802 17.9825C24.209 17.9569 24.2532 17.9601 24.2788 17.989C24.3044 18.0178 24.3011 18.062 24.2723 18.0876C23.8699 18.4406 23.4751 18.569 23.1132 18.569V18.5685Z" fill="#231F20"/>
<path d="M21.5542 17.7633C21.5277 17.7633 21.5021 17.7479 21.4905 17.7219C21.4747 17.6865 21.4905 17.6456 21.5259 17.6298C21.6296 17.5837 21.7175 17.5144 21.7873 17.4237C21.8105 17.393 21.8547 17.3875 21.8849 17.4112C21.9156 17.4349 21.9212 17.4786 21.8975 17.5089C21.8133 17.6182 21.7077 17.7014 21.5826 17.7572C21.5733 17.7614 21.5635 17.7633 21.5542 17.7633Z" fill="#231F20"/>
<path d="M21.2075 17.8284C21.1563 17.8284 21.1242 17.8243 21.121 17.8238C21.0828 17.8182 21.0563 17.7829 21.0619 17.7447C21.0675 17.7066 21.1028 17.6801 21.141 17.6856C21.1428 17.6856 21.3307 17.7103 21.5261 17.6233C21.5614 17.6075 21.6024 17.6233 21.6182 17.6587C21.634 17.694 21.6182 17.7349 21.5828 17.7508C21.4359 17.8163 21.2945 17.8289 21.2079 17.8289L21.2075 17.8284Z" fill="#231F20"/>
<path d="M15.9084 14.4408C15.8717 14.4408 15.841 14.4124 15.8386 14.3752L15.8377 14.3585C15.8149 13.9929 15.7582 13.078 15.7056 12.2669C15.4214 12.3776 14.5512 12.6734 14.0256 12.3845C13.8089 12.2655 13.6773 12.0627 13.634 11.7822C13.5642 11.3315 13.7517 11.0185 14.1754 10.8766C14.2117 10.8645 14.2517 10.8841 14.2638 10.9208C14.2759 10.9576 14.2563 10.9971 14.2196 11.0092C13.8586 11.1301 13.7121 11.3762 13.7717 11.7613C13.8084 11.9999 13.9135 12.1641 14.0926 12.2622C14.654 12.5706 15.7303 12.1064 15.741 12.1017C15.7619 12.0924 15.7856 12.0943 15.8052 12.1059C15.8247 12.1176 15.8368 12.1385 15.8386 12.1608C15.8926 12.9952 15.9535 13.9692 15.9773 14.3496L15.9782 14.3669C15.9805 14.4055 15.9512 14.4385 15.9131 14.4408C15.9117 14.4408 15.9103 14.4408 15.9089 14.4408H15.9084Z" fill="#231F20"/>
<path d="M14.1972 11.006C14.1679 11.006 14.1409 10.9874 14.1311 10.9586C14.119 10.9218 14.1386 10.8823 14.1753 10.8702C14.7353 10.6823 15.5228 10.8493 15.5563 10.8567C15.5939 10.8651 15.6176 10.9018 15.6097 10.9395C15.6018 10.9772 15.5646 11.0014 15.527 10.993C15.519 10.9911 14.7432 10.827 14.22 11.0028C14.2125 11.0051 14.2051 11.0065 14.1977 11.0065L14.1972 11.006Z" fill="#231F20"/>
<path d="M18.0638 15.15C18.0355 15.15 17.9983 15.1361 17.9545 15.0891C17.9071 15.0384 17.8392 15.0063 17.7736 14.9779C17.6257 14.9137 17.4685 14.8616 17.2932 14.8193C17.2555 14.8105 17.2327 14.7723 17.2415 14.7351C17.2504 14.6979 17.288 14.6747 17.3257 14.6835C17.5094 14.7277 17.6741 14.7826 17.8294 14.85C17.8866 14.8747 17.9499 14.9044 18.0057 14.9477C17.9918 14.6975 17.9583 14.0854 17.9583 14.0854C17.9364 13.6872 18.0373 13.2989 18.2508 12.9626L18.4132 12.7063C18.5359 12.5128 18.5415 12.2691 18.4276 12.07L18.2197 11.7063C18.1029 11.5021 18.0871 11.2602 18.1764 11.0426C18.2657 10.8254 18.4466 10.6644 18.6727 10.6012C20.4145 10.1147 24.6685 9.16722 26.5462 10.8719C26.5545 10.8793 26.5606 10.8886 26.5648 10.8993L27.2341 12.7002C27.2476 12.7365 27.229 12.7765 27.1932 12.79C27.1569 12.8035 27.1169 12.7849 27.1034 12.7491L26.4397 10.964C24.6071 9.32164 20.4257 10.2565 18.7099 10.7356C18.5252 10.7872 18.3778 10.9184 18.3052 11.0956C18.2322 11.2733 18.2452 11.4705 18.3406 11.637L18.5485 12.0007C18.688 12.2449 18.6811 12.5435 18.5304 12.7812L18.368 13.0375C18.1704 13.3495 18.0764 13.7091 18.0969 14.0779C18.1325 14.7213 18.1504 15.0438 18.1504 15.0454C18.1541 15.1119 18.1145 15.1365 18.0973 15.1435C18.088 15.1472 18.0769 15.1505 18.0643 15.1505L18.0638 15.15Z" fill="#231F20"/>
<path d="M27.1701 12.7985C27.1412 12.7985 27.1152 12.7808 27.105 12.7534C27.0975 12.7343 27.0994 12.7134 27.1077 12.6961C27.1426 12.5952 27.4664 11.624 27.2408 10.8473C27.2343 10.8254 27.2394 10.8013 27.2538 10.7836C27.4994 10.4831 27.6022 10.1901 27.5589 9.91242C27.4947 9.498 27.1226 9.25149 27.1189 9.24917C27.0947 9.23335 27.0826 9.20451 27.0887 9.17614C27.0943 9.1501 27.6226 6.52963 26.0003 5.0394C25.1017 4.21382 24.1789 3.8394 23.4012 3.98545C22.8073 4.09707 22.3338 4.50358 21.9952 5.19382C21.9845 5.21568 21.9626 5.23056 21.9384 5.23242C21.9133 5.23475 21.8901 5.22358 21.8761 5.20358C21.8715 5.19707 21.4129 4.57103 20.8408 4.58172C20.5068 4.58777 20.1929 4.80824 19.9068 5.23661C19.8947 5.25475 19.8752 5.26591 19.8533 5.26777C19.8319 5.26917 19.8105 5.26033 19.7961 5.24405C19.7947 5.24219 19.6282 5.05475 19.2915 4.86591C18.9812 4.69149 18.458 4.48033 17.7282 4.46265C16.5147 4.43289 15.6389 4.87428 15.3254 5.67196C15.0254 6.43521 15.2943 7.36405 15.9938 7.98265C16.0175 8.00405 16.024 8.03847 16.0096 8.06684C15.9947 8.09521 15.9626 8.1101 15.9315 8.10265C15.9161 8.09893 14.385 7.74917 13.7189 8.46638C13.465 8.73986 13.1915 9.42731 13.3398 10.0068C13.4459 10.4203 13.7417 10.7106 14.2194 10.8696C14.2561 10.8817 14.2757 10.9213 14.2636 10.958C14.2515 10.9943 14.2119 11.0143 14.1752 11.0022C13.657 10.8301 13.3212 10.498 13.2045 10.0417C13.0366 9.38544 13.351 8.65707 13.6166 8.37149C14.1812 7.76405 15.258 7.8501 15.7319 7.92358C15.1166 7.27242 14.8998 6.37335 15.1957 5.62126C15.5319 4.76544 16.4575 4.29242 17.7319 4.32312C18.9636 4.35289 19.6403 4.89893 19.8394 5.08917C20.1398 4.66638 20.4761 4.4487 20.8389 4.44265C20.8445 4.44265 20.8496 4.44265 20.8552 4.44265C21.3603 4.44265 21.7636 4.85103 21.9198 5.03521C22.2724 4.37103 22.7738 3.96172 23.3757 3.8487C24.197 3.69428 25.1626 4.08079 26.0947 4.93707C27.6561 6.37103 27.2975 8.79847 27.2338 9.15986C27.3412 9.24079 27.6347 9.49382 27.6966 9.8901C27.745 10.1999 27.6403 10.5208 27.3845 10.844C27.6143 11.6971 27.2515 12.7096 27.2357 12.7529C27.2259 12.7803 27.1998 12.7985 27.1705 12.7989L27.1701 12.7985Z" fill="#231F20"/>
<path d="M16.7391 30.9926C16.7158 30.9926 16.6926 30.981 16.6795 30.9591C16.5093 30.681 16.4042 30.3638 16.3754 30.041L16.3479 29.7382C16.3447 29.6996 16.3726 29.6661 16.4112 29.6624C16.4498 29.6591 16.4833 29.687 16.487 29.7256L16.5144 30.0284C16.5414 30.3298 16.6395 30.6261 16.7986 30.8861C16.8186 30.9191 16.8084 30.9619 16.7754 30.9819C16.7642 30.9889 16.7516 30.9921 16.7391 30.9921V30.9926Z" fill="#231F20"/>
<path d="M17.608 32.3632C17.6043 32.3632 17.6006 32.3632 17.5969 32.3622L16.582 32.1962C16.5439 32.1901 16.5183 32.1538 16.5243 32.1162C16.5304 32.078 16.5666 32.0525 16.6043 32.0585L17.6192 32.2245C17.6573 32.2306 17.6829 32.2669 17.6769 32.3045C17.6713 32.339 17.6415 32.3632 17.608 32.3632Z" fill="#231F20"/>
<path d="M13.3776 26.7797C13.3432 26.7797 13.3134 26.7542 13.3088 26.7193L13.3078 26.7128C13.3041 26.6839 13.3185 26.6556 13.3441 26.6421L14.4595 26.05C14.4934 26.0323 14.5357 26.0449 14.5539 26.0788C14.572 26.1128 14.559 26.1551 14.525 26.1732L13.4329 26.7528C13.4222 26.7667 13.406 26.7765 13.3874 26.7793C13.3841 26.7793 13.3813 26.7797 13.3781 26.7797H13.3776Z" fill="#231F20"/>
<path d="M15.2718 25.7698C15.2467 25.7698 15.2225 25.7564 15.21 25.7326C15.1918 25.6987 15.2049 25.6564 15.2388 25.6382L15.9844 25.2424C16.0049 25.2317 16.03 25.2317 16.0504 25.2424C16.0709 25.2536 16.0844 25.274 16.0867 25.2973L16.0918 25.355C16.0951 25.3936 16.0672 25.427 16.0286 25.4308C16.0053 25.4326 15.9844 25.4233 15.97 25.4075L15.3039 25.761C15.2937 25.7666 15.2825 25.7689 15.2714 25.7689L15.2718 25.7698Z" fill="#231F20"/>
<path d="M17.6057 32.3519C17.5829 32.3519 17.5601 32.3407 17.5471 32.3198L16.7038 31.0101C16.6978 31.0003 16.6917 30.9905 16.6857 30.9807L16.6768 30.9654C16.6568 30.9324 16.6671 30.8896 16.7001 30.8696C16.7331 30.8496 16.7759 30.8598 16.7959 30.8928L16.8061 30.9101C16.8108 30.9184 16.8159 30.9268 16.821 30.9347L17.6643 32.2449C17.6852 32.2775 17.6759 32.3203 17.6433 32.3412C17.6317 32.3487 17.6187 32.3524 17.6057 32.3524V32.3519Z" fill="#231F20"/>
<path d="M16.3819 29.448C16.346 29.448 16.3158 29.4206 16.3126 29.3843L16.1591 27.6806C16.1558 27.642 16.1837 27.6085 16.2223 27.6048C16.2605 27.6015 16.2944 27.6294 16.2981 27.668L16.4516 29.3717C16.4549 29.4103 16.427 29.4438 16.3884 29.4475C16.386 29.4475 16.3842 29.4475 16.3819 29.4475V29.448Z" fill="#231F20"/>
<path d="M16.228 27.7475C16.1922 27.7475 16.162 27.7201 16.1587 27.6838L15.9508 25.3759C15.9476 25.3373 15.9755 25.3038 16.0141 25.3001C16.0522 25.2968 16.0862 25.3247 16.0899 25.3633L16.2978 27.6712C16.3011 27.7098 16.2731 27.7433 16.2345 27.747C16.2322 27.747 16.2304 27.747 16.228 27.747V27.7475Z" fill="#231F20"/>
<path d="M15.4372 31.9258C15.4283 31.9258 15.42 31.9244 15.4111 31.9207C14.5628 31.5816 13.9432 30.8449 13.7535 29.9505C13.7535 29.9486 13.753 29.9472 13.7525 29.9454L13.3079 26.7198C13.3028 26.6816 13.3293 26.6463 13.3674 26.6412C13.4051 26.6365 13.4409 26.6626 13.446 26.7007L13.8902 29.9235C14.0707 30.7709 14.6586 31.4691 15.4628 31.7905C15.4986 31.8049 15.5158 31.8454 15.5018 31.8812C15.4911 31.9086 15.4646 31.9249 15.4372 31.9249V31.9258Z" fill="#231F20"/>
<path d="M16.4172 29.8113C16.3814 29.8113 16.3511 29.7839 16.3479 29.7476L16.3153 29.3867C16.3121 29.3481 16.34 29.3146 16.3786 29.3109C16.4172 29.3072 16.4507 29.3355 16.4544 29.3741L16.4869 29.7351C16.4902 29.7737 16.4623 29.8072 16.4237 29.8109C16.4214 29.8109 16.4195 29.8109 16.4172 29.8109V29.8113Z" fill="#231F20"/>
<path d="M16.5909 32.1902C16.5681 32.1902 16.5453 32.179 16.5323 32.1581L16.0448 31.3999C15.7923 31.0083 15.6369 30.5562 15.5955 30.092L15.202 25.7148C15.1988 25.6762 15.2272 25.6427 15.2653 25.639C15.303 25.6353 15.3374 25.6637 15.3411 25.7023L15.7346 30.0795C15.7741 30.5209 15.922 30.9516 16.1625 31.3241L16.6504 32.0823C16.6713 32.1148 16.662 32.1576 16.6295 32.1785C16.6179 32.186 16.6048 32.1897 16.5918 32.1897L16.5909 32.1902Z" fill="#231F20"/>
<path d="M15.4423 31.925C15.4195 31.925 15.3967 31.9139 15.3837 31.8929L15.2609 31.7023C15.0088 31.3097 14.8534 30.8571 14.812 30.3939L14.4274 26.1181C14.4241 26.0795 14.452 26.046 14.4906 26.0423C14.5292 26.039 14.5627 26.0669 14.5665 26.1055L14.9511 30.3818C14.9906 30.8227 15.1385 31.2534 15.3785 31.6274L15.5013 31.8181C15.5223 31.8506 15.513 31.8934 15.4804 31.9143C15.4688 31.9218 15.4558 31.9255 15.4427 31.9255L15.4423 31.925Z" fill="#231F20"/>
<path d="M16.5943 32.1899C16.5906 32.1899 16.5869 32.1899 16.5832 32.1889L15.9897 32.0917C15.7911 32.0592 15.5976 32.0048 15.4148 31.9313C15.379 31.9169 15.3618 31.8764 15.3762 31.8406C15.3906 31.8048 15.4311 31.7876 15.4669 31.802C15.6404 31.8717 15.8236 31.9234 16.012 31.9541L16.6055 32.0513C16.6436 32.0573 16.6692 32.0936 16.6632 32.1313C16.6576 32.1657 16.6278 32.1899 16.5943 32.1899Z" fill="#231F20"/>
<path d="M14.4972 26.1929C14.4721 26.1929 14.4479 26.1794 14.4353 26.1557C14.4172 26.1217 14.4302 26.0794 14.4642 26.0613L15.2437 25.6469C15.2776 25.6287 15.32 25.6417 15.3381 25.6757C15.3562 25.7097 15.3432 25.752 15.3093 25.7701L14.5297 26.1845C14.5195 26.1901 14.5079 26.1929 14.4972 26.1929Z" fill="#231F20"/>
<path d="M22.1401 32.3454C22.1271 32.3454 22.114 32.3417 22.1024 32.3343C22.0699 32.3133 22.0606 32.2701 22.0815 32.238L22.8978 30.9696C22.9187 30.937 22.962 30.9277 22.994 30.9487C23.0266 30.9696 23.0359 31.0129 23.015 31.045L22.1987 32.3133C22.1852 32.3343 22.1629 32.3454 22.1401 32.3454Z" fill="#231F20"/>
<path d="M22.14 32.3632C22.1065 32.3632 22.0768 32.339 22.0712 32.3045C22.0652 32.2664 22.0907 32.2306 22.1289 32.2245L23.1442 32.0585C23.1824 32.0525 23.2182 32.078 23.2242 32.1162C23.2303 32.1543 23.2047 32.1901 23.1665 32.1962L22.1512 32.3622C22.1475 32.3627 22.1438 32.3632 22.14 32.3632Z" fill="#231F20"/>
<path d="M23.4359 28.6689C23.4359 28.6689 23.4317 28.6689 23.4294 28.6689C23.3908 28.6656 23.3628 28.6317 23.3661 28.5931L23.4247 27.9414C23.428 27.9028 23.4615 27.8749 23.5005 27.8782C23.5391 27.8814 23.567 27.9154 23.5638 27.954L23.5052 28.6056C23.5019 28.6419 23.4717 28.6694 23.4359 28.6694V28.6689Z" fill="#231F20"/>
<path d="M23.4034 29.0273C23.4034 29.0273 23.3992 29.0273 23.3969 29.0273C23.3583 29.024 23.3304 28.9901 23.3336 28.9515L23.3657 28.5929C23.369 28.5543 23.4025 28.5259 23.4415 28.5296C23.4801 28.5329 23.5081 28.5668 23.5048 28.6054L23.4727 28.964C23.4694 29.0003 23.4392 29.0278 23.4034 29.0278V29.0273Z" fill="#231F20"/>
<path d="M26.3663 26.7795C26.363 26.7795 26.3602 26.7795 26.357 26.779C26.3383 26.7767 26.3221 26.7669 26.3114 26.753L25.2193 26.1734C25.1853 26.1553 25.1723 26.113 25.1904 26.079C25.2086 26.0451 25.2509 26.032 25.2849 26.0502L26.4002 26.6423C26.4263 26.6558 26.4407 26.6841 26.4365 26.7134L26.4356 26.72C26.4309 26.7548 26.4007 26.7804 26.3667 26.7804L26.3663 26.7795Z" fill="#231F20"/>
<path d="M23.4945 28.0195C23.4945 28.0195 23.4903 28.0195 23.488 28.0195C23.4493 28.0163 23.4214 27.9823 23.4247 27.9437L23.6582 25.3507C23.6614 25.3121 23.6954 25.2837 23.734 25.2874C23.7726 25.2907 23.8005 25.3246 23.7973 25.3633L23.5638 27.9563C23.5605 27.9926 23.5303 28.02 23.4945 28.02V28.0195Z" fill="#231F20"/>
<path d="M24.3144 31.925C24.287 31.925 24.2605 31.9082 24.2498 31.8813C24.2354 31.8454 24.253 31.805 24.2888 31.7906C25.093 31.4687 25.6809 30.771 25.8614 29.9236L26.3056 26.7008C26.3107 26.6627 26.3465 26.6361 26.3842 26.6413C26.4223 26.6464 26.4489 26.6817 26.4437 26.7199L25.9991 29.9454C25.9991 29.9454 25.9986 29.9487 25.9982 29.9506C25.8084 30.845 25.1889 31.5813 24.3405 31.9208C24.3321 31.924 24.3233 31.9259 24.3144 31.9259V31.925Z" fill="#231F20"/>
<path d="M24.4777 25.7693C24.4665 25.7693 24.4554 25.7665 24.4451 25.7614L23.7702 25.4027C23.7567 25.4125 23.7395 25.4176 23.7223 25.4162C23.6837 25.413 23.6558 25.379 23.6591 25.3404L23.6628 25.2976C23.6647 25.2744 23.6786 25.2534 23.6991 25.2427C23.7195 25.2316 23.7447 25.2316 23.7651 25.2427L24.5107 25.6386C24.5447 25.6567 24.5577 25.699 24.5395 25.733C24.527 25.7567 24.5028 25.7702 24.4777 25.7702V25.7693Z" fill="#231F20"/>
<path d="M22.9604 31.0793C22.9474 31.0793 22.9344 31.0755 22.9227 31.0681C22.8902 31.0472 22.8809 31.0039 22.9018 30.9718L22.9288 30.9304C23.1027 30.6616 23.2092 30.3504 23.2381 30.0309L23.3358 28.9444C23.339 28.9058 23.373 28.8779 23.4116 28.8811C23.4502 28.8844 23.4781 28.9183 23.4748 28.9569L23.3772 30.0434C23.3465 30.3853 23.232 30.7183 23.046 31.0062L23.0195 31.0476C23.006 31.0686 22.9837 31.0797 22.9609 31.0797L22.9604 31.0793Z" fill="#231F20"/>
<path d="M24.3145 31.9255C24.3015 31.9255 24.2885 31.9218 24.2769 31.9143C24.2443 31.8934 24.235 31.8502 24.2559 31.8181L24.3787 31.6274C24.6187 31.2539 24.7666 30.8232 24.8062 30.3818L25.1908 26.1055C25.1941 26.0669 25.228 26.039 25.2666 26.0423C25.3052 26.0455 25.3331 26.0795 25.3299 26.1181L24.9452 30.3943C24.9038 30.8576 24.7485 31.3102 24.4964 31.7027L24.3736 31.8934C24.3601 31.9143 24.3378 31.9255 24.315 31.9255H24.3145Z" fill="#231F20"/>
<path d="M23.1557 32.1897C23.1427 32.1897 23.1297 32.186 23.118 32.1785C23.0855 32.1576 23.0762 32.1144 23.0971 32.0823L23.5846 31.3241C23.8246 30.9516 23.9725 30.5209 24.0125 30.0795L24.406 25.7023C24.4092 25.6637 24.4441 25.6353 24.4818 25.639C24.5204 25.6423 24.5483 25.6762 24.545 25.7148L24.1515 30.092C24.1097 30.5562 23.9543 31.0083 23.7022 31.3999L23.2148 32.1581C23.2013 32.179 23.179 32.1902 23.1562 32.1902L23.1557 32.1897Z" fill="#231F20"/>
<path d="M25.2567 26.1929C25.2455 26.1929 25.2344 26.1901 25.2242 26.1845L24.4446 25.7701C24.4107 25.752 24.3976 25.7097 24.4158 25.6757C24.4339 25.6417 24.4762 25.6287 24.5102 25.6469L25.2897 26.0613C25.3237 26.0794 25.3367 26.1217 25.3186 26.1557C25.306 26.1794 25.2818 26.1929 25.2567 26.1929Z" fill="#231F20"/>
<path d="M23.1557 32.1899C23.1222 32.1899 23.0924 32.1657 23.0868 32.1313C23.0808 32.0931 23.1064 32.0573 23.1445 32.0513L23.738 31.9541C23.9264 31.9229 24.1096 31.8717 24.2831 31.802C24.3189 31.7876 24.3594 31.8048 24.3738 31.8406C24.3882 31.8764 24.371 31.9169 24.3352 31.9313C24.1524 32.0052 23.9589 32.0592 23.7603 32.0917L23.1668 32.1889C23.1631 32.1894 23.1594 32.1899 23.1557 32.1899Z" fill="#231F20"/>
<path d="M23.5207 22.1111C21.6998 22.1111 20.403 21.4525 19.6021 20.8553C18.6058 20.113 18.1528 19.3251 18.1342 19.2916C18.1151 19.2581 18.1267 19.2158 18.1602 19.1967C18.1937 19.1777 18.236 19.1893 18.2551 19.2228C18.2598 19.2307 18.7156 20.0223 19.6904 20.747C20.5886 21.4149 22.1244 22.1614 24.343 21.927C25.2546 21.8302 25.9825 21.4172 26.5063 20.6991C27.1379 19.8335 27.4793 18.54 27.5211 16.8539C27.5635 15.1544 27.2798 13.5828 27.156 12.9856C27.1407 12.9121 27.123 12.8325 27.1016 12.7423C27.0928 12.7046 27.116 12.6674 27.1532 12.6581C27.1914 12.6493 27.2281 12.6725 27.2374 12.7098C27.2593 12.8014 27.2774 12.8818 27.2928 12.9567C27.4174 13.5586 27.7035 15.1432 27.6607 16.8567C27.6184 18.5711 27.2677 19.8916 26.6188 20.7804C26.0704 21.5321 25.3095 21.9642 24.3574 22.0646C24.0672 22.0953 23.7881 22.1098 23.5207 22.1098V22.1111Z" fill="#231F20"/>
<path d="M16.0204 25.4379C16.0204 25.4379 16.0185 25.4379 16.0176 25.4379C15.979 25.4365 15.9492 25.4039 15.9506 25.3658L16.2083 18.3356C16.2097 18.2969 16.2422 18.2676 16.2804 18.2686C16.319 18.27 16.3487 18.3025 16.3474 18.3407L16.0897 25.3709C16.0883 25.4086 16.0571 25.4383 16.0199 25.4383L16.0204 25.4379Z" fill="#231F20"/>
<path d="M18.1209 33.8437C18.0827 33.8437 18.0516 33.813 18.0511 33.7748L18.0353 32.6702C18.0283 32.5274 17.919 32.4051 17.7753 32.3814L17.5976 32.3525C17.5595 32.3465 17.5339 32.3102 17.5399 32.2725C17.546 32.2349 17.5823 32.2083 17.6199 32.2149L17.7976 32.2437C18.0055 32.2776 18.1641 32.4553 18.1744 32.6655L18.1902 33.7725C18.1906 33.8111 18.1599 33.8428 18.1213 33.8432H18.1204L18.1209 33.8437Z" fill="#231F20"/>
<path d="M4.37935 29.3678C4.36586 29.3678 4.35238 29.364 4.34028 29.3557C4.30866 29.3338 4.30028 29.2906 4.32214 29.2589L4.48075 29.0264C5.00912 28.2506 5.844 27.7213 6.77145 27.5747L13.3659 26.6413C13.4035 26.6361 13.4394 26.6627 13.4449 26.7008C13.4505 26.7389 13.4235 26.7743 13.3854 26.7799L6.79238 27.7133C5.904 27.8538 5.10354 28.3617 4.59656 29.1059L4.43796 29.3385C4.42447 29.3585 4.40261 29.3692 4.38028 29.3692L4.37935 29.3678Z" fill="#231F20"/>
<path d="M18.159 36.7917C18.1208 36.7917 18.0897 36.761 18.0892 36.7229L18.0469 33.7689C18.0464 33.7303 18.0771 33.6987 18.1157 33.6982H18.1166C18.1548 33.6982 18.186 33.7289 18.1864 33.7671L18.2287 36.721C18.2292 36.7596 18.1985 36.7913 18.1599 36.7917H18.159Z" fill="#231F20"/>
<path d="M18.2916 46.041H7.8172C7.7786 46.041 7.74744 46.0098 7.74744 45.9712C7.74744 45.9326 7.7786 45.9014 7.8172 45.9014H18.2205L18.0893 36.7377C18.0888 36.6991 18.1195 36.6675 18.1581 36.667C18.1958 36.6661 18.2284 36.6972 18.2288 36.7358L18.3609 45.9703C18.3609 45.9889 18.3539 46.007 18.3409 46.02C18.3279 46.0331 18.3098 46.041 18.2912 46.041H18.2916Z" fill="#231F20"/>
<path d="M7.81938 46.0396H-1.60992C-1.62852 46.0396 -1.6462 46.0322 -1.65922 46.0192C-1.67225 46.0062 -1.67969 45.9885 -1.67969 45.9699L-1.6755 38.1066C-1.6755 38.0927 -1.67132 38.0792 -1.66341 38.0676L4.32589 29.2755C4.34776 29.2438 4.39101 29.2355 4.42264 29.2573C4.45427 29.2792 4.46264 29.3224 4.44078 29.3541L-1.53597 38.128L-1.54015 45.8997H7.81938C7.85799 45.8997 7.88915 45.9308 7.88915 45.9694C7.88915 46.008 7.85799 46.0392 7.81938 46.0392V46.0396Z" fill="#231F20"/>
<path d="M23.7286 25.427C23.7239 25.427 23.7193 25.4266 23.7146 25.4256C23.7104 25.4247 23.7058 25.4233 23.7016 25.4215C23.6974 25.4196 23.6932 25.4177 23.6895 25.4149C23.6858 25.4126 23.6821 25.4098 23.6788 25.4066C23.6658 25.3935 23.6588 25.3754 23.6588 25.3568C23.6588 25.3526 23.6588 25.348 23.6597 25.3433C23.6607 25.3391 23.6621 25.3345 23.6639 25.3303C23.6658 25.3261 23.6677 25.3219 23.6704 25.3182C23.6728 25.3145 23.6756 25.3108 23.6788 25.308C23.6821 25.3047 23.6858 25.3015 23.6895 25.2991C23.6932 25.2963 23.6974 25.2945 23.7016 25.2926C23.7058 25.2908 23.7104 25.2894 23.7146 25.2884C23.7374 25.2838 23.7616 25.2917 23.7779 25.308C23.7904 25.3205 23.7983 25.3387 23.7983 25.3568C23.7983 25.3749 23.7904 25.3935 23.7779 25.4066C23.7746 25.4098 23.7709 25.4126 23.7672 25.4149C23.7635 25.4177 23.7593 25.4196 23.7551 25.4215C23.7509 25.4233 23.7463 25.4247 23.7421 25.4256C23.7374 25.4266 23.7328 25.427 23.7286 25.427Z" fill="#231F20"/>
<path d="M23.7286 25.4246C23.69 25.4246 23.6588 25.3934 23.6588 25.3548V22.0493C23.6588 22.0107 23.69 21.9795 23.7286 21.9795C23.7672 21.9795 23.7983 22.0107 23.7983 22.0493V25.3548C23.7983 25.3934 23.7672 25.4246 23.7286 25.4246Z" fill="#231F20"/>
<path d="M21.5932 36.5144H21.5923C21.5537 36.5139 21.523 36.4823 21.5234 36.4437L21.5774 32.6679C21.5876 32.4549 21.7462 32.2777 21.9541 32.2437L22.1318 32.2149C22.1695 32.2084 22.2058 32.2344 22.2118 32.2725C22.2179 32.3107 22.1923 32.3465 22.1541 32.3525L21.9765 32.3814C21.8332 32.4046 21.7234 32.5274 21.7165 32.6725L21.6625 36.446C21.662 36.4842 21.6309 36.5149 21.5927 36.5149L21.5932 36.5144Z" fill="#231F20"/>
<path d="M21.5346 40.5069H21.5337C21.4951 40.5064 21.4644 40.4748 21.4648 40.4362L21.5221 36.4497C21.5225 36.4116 21.5537 36.3809 21.5918 36.3809H21.5928C21.6314 36.3813 21.6621 36.413 21.6616 36.4516L21.6044 40.4381C21.6039 40.4762 21.5728 40.5069 21.5346 40.5069Z" fill="#231F20"/>
<path d="M43.8331 46.0361H31.9903C31.9517 46.0361 31.9205 46.0049 31.9205 45.9663C31.9205 45.9277 31.9517 45.8965 31.9903 45.8965H43.7633V40.6393L35.368 29.3565C35.3447 29.3254 35.3512 29.2821 35.3824 29.2589C35.4131 29.2361 35.4568 29.2421 35.4801 29.2733L43.8889 40.5747C43.8977 40.5868 43.9029 40.6012 43.9029 40.6165V45.9668C43.9029 46.0054 43.8717 46.0365 43.8331 46.0365V46.0361Z" fill="#231F20"/>
<path d="M35.4252 29.3721C35.4038 29.3721 35.3829 29.3623 35.3694 29.3442L35.1182 29.0069C34.6038 28.3153 33.8517 27.8604 33.0005 27.7256L26.3619 26.7795C26.3238 26.7739 26.2973 26.7386 26.3029 26.7004C26.3084 26.6623 26.3433 26.6358 26.3819 26.6414L33.0219 27.5879C33.9103 27.7288 34.6945 28.2028 35.2308 28.9237L35.4819 29.2609C35.5052 29.2921 35.4987 29.3353 35.4675 29.3586C35.455 29.3679 35.4405 29.3725 35.4261 29.3725L35.4252 29.3721Z" fill="#231F20"/>
<path d="M7.81567 46.0397C7.77846 46.0397 7.7473 46.0099 7.7459 45.9722L7.37195 35.5881C7.33195 34.4792 6.98311 33.4067 6.36265 32.4871L4.32125 29.3532C4.30032 29.3211 4.30916 29.2778 4.34172 29.2564C4.37381 29.2355 4.41707 29.2443 4.43846 29.2769L6.47893 32.4099C7.11334 33.3504 7.47055 34.4481 7.51148 35.5829L7.88544 45.9671C7.88683 46.0057 7.8566 46.0378 7.818 46.0392C7.81707 46.0392 7.81614 46.0392 7.81567 46.0392V46.0397Z" fill="#231F20"/>
<path d="M31.9903 46.0354C31.9903 46.0354 31.9885 46.0354 31.988 46.0354C31.9494 46.034 31.9192 46.0014 31.9206 45.9633L32.2945 35.5791C32.3355 34.4442 32.6927 33.3465 33.3276 32.4052L35.3652 29.2768C35.3862 29.2447 35.4294 29.2354 35.462 29.2563C35.4941 29.2772 35.5034 29.3205 35.4824 29.3531L33.4443 32.4824C32.8234 33.4033 32.4741 34.4754 32.4345 35.5842L32.0606 45.9684C32.0592 46.0061 32.0285 46.0359 31.9908 46.0359L31.9903 46.0354Z" fill="#231F20"/>
<path d="M19.9969 30.1187C19.7429 30.1187 19.4974 30.1043 19.2671 30.0763C19.229 30.0717 19.2016 30.0368 19.2062 29.9987C19.2109 29.9605 19.2462 29.9336 19.2839 29.9377C19.5085 29.9652 19.7485 29.9791 19.9969 29.9791C20.4411 29.9791 20.8532 29.9345 21.2211 29.8457C21.2583 29.8368 21.2964 29.8596 21.3053 29.8973C21.3141 29.9345 21.2913 29.9726 21.2536 29.9815C20.875 30.0726 20.4522 30.1187 19.9969 30.1187Z" fill="#231F20"/>
<path d="M18.9845 30.0212C18.9803 30.0212 18.9761 30.0212 18.9719 30.0203C18.2171 29.884 17.585 29.5854 17.0929 29.1319C17.0645 29.1059 17.0626 29.0617 17.0887 29.0333C17.1147 29.0049 17.1589 29.0031 17.1873 29.0291C17.6594 29.4645 18.2682 29.7514 18.9966 29.8831C19.0343 29.8901 19.0599 29.9263 19.0529 29.964C19.0468 29.9975 19.0175 30.0212 18.9845 30.0212Z" fill="#231F20"/>
<path d="M16.9331 28.9463C16.9141 28.9463 16.895 28.9384 16.8815 28.9235C16.5722 28.5816 16.3304 28.1691 16.1629 27.6979C16.1499 27.6616 16.169 27.6216 16.2052 27.6086C16.2415 27.5956 16.2815 27.6146 16.2945 27.6509C16.4559 28.1049 16.688 28.5016 16.9852 28.8295C17.0113 28.8579 17.009 28.9021 16.9801 28.9281C16.9666 28.9402 16.9499 28.9463 16.9331 28.9463Z" fill="#231F20"/>
<path d="M23.2597 28.5163C23.2481 28.5163 23.236 28.5135 23.2253 28.507C23.1918 28.4879 23.1802 28.4451 23.1992 28.4121C23.2853 28.2609 23.3611 28.0967 23.4243 27.9237C23.4378 27.8874 23.4778 27.8688 23.5136 27.8823C23.5499 27.8958 23.5685 27.9358 23.555 27.9716C23.489 28.1516 23.4099 28.3228 23.3202 28.4809C23.3071 28.5037 23.2839 28.5163 23.2597 28.5163Z" fill="#231F20"/>
<path d="M21.5151 29.8939C21.4853 29.8939 21.4579 29.8748 21.4486 29.8451C21.4369 29.8083 21.4574 29.7693 21.4942 29.7576C22.1597 29.5469 22.6844 29.1739 23.0537 28.6497C23.076 28.6181 23.1193 28.6107 23.1509 28.633C23.1825 28.6553 23.19 28.6986 23.1676 28.7302C22.7807 29.28 22.2318 29.6707 21.5365 29.8911C21.5295 29.8935 21.5225 29.8944 21.5155 29.8944L21.5151 29.8939Z" fill="#231F20"/>
<path d="M21.9705 31.4671C21.9398 31.4671 21.9119 31.4471 21.9036 31.4164C21.8933 31.3792 21.9147 31.3406 21.9519 31.3303C22.3003 31.2327 22.6268 31.1029 22.9236 30.9457C22.9575 30.9276 22.9998 30.9406 23.018 30.9745C23.0361 31.0085 23.0231 31.0508 22.9891 31.0689C22.684 31.2308 22.3477 31.3638 21.9901 31.4648C21.9836 31.4666 21.9775 31.4676 21.971 31.4676L21.9705 31.4671Z" fill="#231F20"/>
<path d="M18.5358 31.6065C18.5321 31.6065 18.5279 31.6065 18.5242 31.6055C17.8391 31.4892 17.2261 31.2823 16.7023 30.9902C16.6688 30.9716 16.6568 30.9288 16.6754 30.8953C16.694 30.8618 16.7363 30.8492 16.7702 30.8683C17.28 31.1525 17.8782 31.3544 18.5475 31.4679C18.5856 31.4744 18.6112 31.5102 18.6047 31.5483C18.5991 31.5823 18.5693 31.6065 18.5358 31.6065Z" fill="#231F20"/>
<path d="M19.9934 31.7221C19.5813 31.7221 19.1855 31.6974 18.8171 31.6495C18.779 31.6444 18.752 31.6095 18.7571 31.5714C18.7622 31.5332 18.7976 31.5062 18.8352 31.5114C19.1971 31.5588 19.5869 31.583 19.9929 31.583C20.6031 31.583 21.1697 31.5239 21.6771 31.4081C21.7152 31.3993 21.752 31.423 21.7608 31.4607C21.7697 31.4983 21.7459 31.5355 21.7083 31.5444C21.1906 31.663 20.6138 31.723 19.9929 31.723L19.9934 31.7221Z" fill="#231F20"/>
<path d="M17.1346 29.1476C17.1178 29.1476 17.1006 29.1416 17.0876 29.1295C17.0169 29.0649 16.9472 28.9942 16.8797 28.9193C16.8541 28.8904 16.8565 28.8467 16.8848 28.8207C16.9137 28.7951 16.9574 28.7969 16.9834 28.8258C17.0481 28.8974 17.1146 28.9649 17.182 29.0267C17.2104 29.0528 17.2123 29.0969 17.1862 29.1253C17.1723 29.1402 17.1537 29.1481 17.1346 29.1481V29.1476Z" fill="#231F20"/>
<path d="M19.2702 30.0652C19.2674 30.0652 19.2646 30.0652 19.2618 30.0648C19.1623 30.0527 19.0641 30.0378 18.9702 30.0211C18.932 30.0141 18.9069 29.9778 18.9139 29.9401C18.9209 29.902 18.9571 29.8773 18.9948 29.8839C19.0864 29.9001 19.1818 29.9146 19.279 29.9266C19.3171 29.9313 19.3446 29.9662 19.3399 30.0043C19.3357 30.0397 19.3055 30.0657 19.2706 30.0657L19.2702 30.0652Z" fill="#231F20"/>
<path d="M18.8213 31.6542C18.8185 31.6542 18.8152 31.6542 18.8124 31.6538C18.7134 31.6412 18.6152 31.6263 18.5213 31.61C18.4831 31.6035 18.458 31.5672 18.4645 31.5296C18.471 31.4914 18.5073 31.4659 18.545 31.4728C18.6371 31.4886 18.7329 31.5031 18.8296 31.5156C18.8678 31.5207 18.8948 31.5556 18.8901 31.5938C18.8855 31.6291 18.8557 31.6547 18.8208 31.6547L18.8213 31.6542Z" fill="#231F20"/>
<path d="M21.2286 29.9824C21.197 29.9824 21.1686 29.961 21.1607 29.9289C21.1519 29.8913 21.1751 29.854 21.2123 29.8447C21.3039 29.8229 21.396 29.7973 21.4853 29.7689C21.5225 29.7573 21.5612 29.7773 21.5732 29.814C21.5849 29.8508 21.5649 29.8899 21.5281 29.902C21.4356 29.9317 21.3402 29.9582 21.2449 29.9806C21.2393 29.982 21.2342 29.9824 21.2286 29.9824Z" fill="#231F20"/>
<path d="M21.6972 31.5386C21.6651 31.5386 21.6367 31.5167 21.6293 31.4842C21.6209 31.4465 21.6442 31.4093 21.6818 31.4009C21.7753 31.3795 21.866 31.3567 21.959 31.3307C21.9962 31.3204 22.0348 31.3418 22.0451 31.3791C22.0553 31.4163 22.0339 31.4549 21.9967 31.4651C21.9014 31.4916 21.8088 31.5153 21.713 31.5372C21.7079 31.5386 21.7028 31.5391 21.6976 31.5391L21.6972 31.5386Z" fill="#231F20"/>
<path d="M23.1035 28.76C23.0896 28.76 23.0756 28.7559 23.0635 28.7475C23.0319 28.7252 23.0245 28.6819 23.0463 28.6503C23.1026 28.5698 23.1542 28.4884 23.1993 28.4084C23.2184 28.3749 23.2607 28.3633 23.2942 28.3819C23.3277 28.401 23.3398 28.4433 23.3207 28.4768C23.2733 28.5605 23.2193 28.6461 23.1603 28.7303C23.1468 28.7498 23.1249 28.76 23.1031 28.76H23.1035Z" fill="#231F20"/>
<path d="M21.5395 40.5069C21.5195 40.5069 21.4995 40.4985 21.486 40.4818C21.447 40.4353 21.4088 40.3878 21.3707 40.3404C21.2507 40.192 21.1265 40.0385 20.9851 39.9102C20.8572 39.7943 20.7098 39.6934 20.5665 39.5957C20.3539 39.4506 20.1344 39.3009 19.967 39.0948C19.4879 38.5055 19.5833 37.5116 20.1763 36.9246C20.6577 36.4478 21.1437 36.3813 21.5972 36.3809C21.6358 36.3809 21.667 36.412 21.667 36.4506C21.667 36.4892 21.6358 36.5204 21.5972 36.5204C21.1079 36.5209 20.6953 36.6069 20.2744 37.0237C19.7307 37.5623 19.6395 38.4702 20.0753 39.0064C20.2302 39.1967 20.4316 39.3343 20.6451 39.4804C20.7921 39.5809 20.9437 39.6846 21.0786 39.8069C21.2279 39.9423 21.3553 40.0999 21.4791 40.2525C21.5167 40.2995 21.5549 40.346 21.5935 40.392C21.6181 40.4218 21.6139 40.4655 21.5846 40.4902C21.5716 40.5009 21.5558 40.5064 21.54 40.5064L21.5395 40.5069Z" fill="#231F20"/>
<path d="M18.1586 36.7923C18.1377 36.7923 18.1168 36.783 18.1033 36.7649C18.08 36.7342 18.0856 36.6904 18.1163 36.6672C18.2135 36.5928 18.293 36.5197 18.3595 36.4425C18.6107 36.1523 18.734 35.7588 18.8428 35.4114C18.9768 34.9835 19.113 34.3788 18.7507 34.0672C18.6009 33.9384 18.3963 33.8914 18.1819 33.8509C18.1679 33.8481 18.154 33.8458 18.1405 33.8435L18.1042 33.837C18.0661 33.83 18.0414 33.7937 18.0479 33.7556C18.0549 33.7174 18.0916 33.6928 18.1293 33.6993L18.1637 33.7053C18.1781 33.7077 18.193 33.7104 18.2075 33.7132C18.4321 33.7556 18.6661 33.8095 18.8414 33.9611C19.2661 34.3267 19.1214 34.9877 18.9758 35.4528C18.8628 35.8132 18.7349 36.2211 18.4651 36.5332C18.3921 36.6174 18.3061 36.6974 18.2009 36.7774C18.1884 36.7872 18.1735 36.7918 18.1586 36.7918V36.7923Z" fill="#231F20"/>
<path d="M16.3901 18.4184C16.3496 18.4184 16.3082 18.4137 16.2668 18.4049C16.2291 18.3965 16.2054 18.3593 16.2138 18.3216C16.2222 18.2839 16.2589 18.2602 16.2971 18.2686C16.3282 18.2756 16.3594 18.2788 16.3901 18.2788C16.6273 18.2788 16.8203 18.0858 16.8203 17.8486C16.8203 17.6114 16.6273 17.4184 16.3901 17.4184C16.1529 17.4184 15.9598 17.6114 15.9598 17.8486C15.9598 17.917 15.9757 17.9826 16.0073 18.0444C16.025 18.0788 16.0115 18.1207 15.9771 18.1384C15.9426 18.156 15.9008 18.1426 15.8831 18.1081C15.8412 18.0267 15.8203 17.9398 15.8203 17.8491C15.8203 17.5346 16.0761 17.2793 16.3901 17.2793C16.704 17.2793 16.9598 17.5351 16.9598 17.8491C16.9598 18.163 16.704 18.4188 16.3901 18.4188V18.4184Z" fill="#231F20"/>
<path d="M16.2793 18.4086C16.2742 18.4086 16.2695 18.4081 16.2644 18.4067C16.0979 18.37 15.9579 18.2616 15.8802 18.1095C15.8625 18.0751 15.876 18.0333 15.9104 18.0156C15.9449 17.9979 15.9867 18.0114 16.0044 18.0458C16.0635 18.1607 16.169 18.2426 16.2946 18.2705C16.3323 18.2788 16.356 18.316 16.3476 18.3537C16.3407 18.3863 16.3118 18.4086 16.2797 18.4086H16.2793Z" fill="#231F20"/>
<path d="M11.5147 35.8385C11.4636 35.8385 11.4124 35.8367 11.3608 35.8334C10.7701 35.793 10.231 35.5246 9.84219 35.0781C9.45335 34.6316 9.26172 34.0604 9.30219 33.4702C9.34265 32.8795 9.61103 32.3404 10.0575 31.9516C10.5041 31.5627 11.0747 31.3711 11.6654 31.4116C12.8845 31.4958 13.8082 32.5558 13.7241 33.7748C13.6436 34.9423 12.6678 35.839 11.5147 35.839V35.8385ZM11.3706 35.6939C12.512 35.7725 13.5064 34.9074 13.585 33.7646C13.6636 32.6223 12.7985 31.6288 11.6557 31.5502C11.1022 31.512 10.5673 31.6916 10.1487 32.0562C9.73056 32.4204 9.47893 32.926 9.44079 33.4795C9.40266 34.033 9.58219 34.5678 9.94684 34.9864C10.311 35.4046 10.8166 35.6562 11.3701 35.6944L11.3706 35.6939Z" fill="#231F20"/>
</g>
<rect x="0.5" y="0.5" width="39" height="39" rx="19.5" stroke="white"/>
<defs>
<clipPath id="clip0_1416_6756">
<rect width="40" height="40" rx="20" fill="white"/>
</clipPath>
</defs>
</svg>
