<svg width="17" height="16" viewBox="0 0 17 16" fill="none" xmlns="http://www.w3.org/2000/svg">
<path d="M11.8333 2V8.66667" stroke="#90A8C3" stroke-width="1.4" stroke-linecap="round" stroke-linejoin="round"/>
<path d="M8.94678 3.66699L14.7201 7.00033" stroke="#90A8C3" stroke-width="1.4" stroke-linecap="round" stroke-linejoin="round"/>
<path d="M8.94678 7.00033L14.7201 3.66699" stroke="#90A8C3" stroke-width="1.4" stroke-linecap="round" stroke-linejoin="round"/>
<path d="M6.5 11.3333C6.5 10.9797 6.35952 10.6406 6.10948 10.3905C5.85943 10.1405 5.52029 10 5.16667 10H3.83333C3.47971 10 3.14057 10.1405 2.89052 10.3905C2.64048 10.6406 2.5 10.9797 2.5 11.3333V12.6667C2.5 13.0203 2.64048 13.3594 2.89052 13.6095C3.14057 13.8595 3.47971 14 3.83333 14H5.16667C5.52029 14 5.85943 13.8595 6.10948 13.6095C6.35952 13.3594 6.5 13.0203 6.5 12.6667V11.3333Z" stroke="#90A8C3" stroke-width="1.4" stroke-linecap="round" stroke-linejoin="round"/>
</svg>
