<svg width="17" height="16" viewBox="0 0 17 16" fill="none" xmlns="http://www.w3.org/2000/svg">
<path d="M7.16675 8.66697C7.45305 9.04972 7.81832 9.36642 8.23778 9.5956C8.65724 9.82477 9.12109 9.96105 9.59785 9.99519C10.0746 10.0293 10.5531 9.96055 11.001 9.79349C11.4488 9.62643 11.8555 9.36502 12.1934 9.02697L14.1934 7.02697C14.8006 6.3983 15.1366 5.55629 15.129 4.6823C15.1214 3.80831 14.7708 2.97227 14.1528 2.35424C13.5348 1.73621 12.6987 1.38565 11.8248 1.37806C10.9508 1.37046 10.1088 1.70644 9.48008 2.31364L8.33341 3.45364" stroke="#90A8C3" stroke-width="1.4" stroke-linecap="round" stroke-linejoin="round"/>
<path d="M9.83322 7.33381C9.54692 6.95106 9.18165 6.63435 8.76219 6.40518C8.34273 6.17601 7.87888 6.03973 7.40212 6.00559C6.92536 5.97144 6.44683 6.04023 5.99899 6.20729C5.55115 6.37435 5.14448 6.63576 4.80656 6.97381L2.80656 8.97381C2.19936 9.60248 1.86338 10.4445 1.87098 11.3185C1.87857 12.1925 2.22913 13.0285 2.84716 13.6465C3.46519 14.2646 4.30123 14.6151 5.17522 14.6227C6.04921 14.6303 6.89121 14.2943 7.51989 13.6871L8.65989 12.5471" stroke="#90A8C3" stroke-width="1.4" stroke-linecap="round" stroke-linejoin="round"/>
</svg>
