<svg width="17" height="16" viewBox="0 0 17 16" fill="none" xmlns="http://www.w3.org/2000/svg">
<path d="M11.1667 14.6663H12.5001C12.8334 14.6663 13.1667 14.533 13.4334 14.2663C13.7001 13.9997 13.8334 13.6663 13.8334 13.333V4.99967L10.1667 1.33301H4.50008C4.16675 1.33301 3.83341 1.46634 3.56675 1.73301C3.30008 1.99967 3.16675 2.33301 3.16675 2.66634V4.66634" stroke="#90A8C3" stroke-width="1.4" stroke-linecap="round" stroke-linejoin="round"/>
<path d="M9.83325 1.33301V5.33301H13.8333" stroke="#90A8C3" stroke-width="1.4" stroke-linecap="round" stroke-linejoin="round"/>
<path d="M5.83325 14.667C8.04239 14.667 9.83325 12.8761 9.83325 10.667C9.83325 8.45785 8.04239 6.66699 5.83325 6.66699C3.62411 6.66699 1.83325 8.45785 1.83325 10.667C1.83325 12.8761 3.62411 14.667 5.83325 14.667Z" stroke="#90A8C3" stroke-width="1.4" stroke-linecap="round" stroke-linejoin="round"/>
<path d="M6.83325 11.6663L5.83325 10.833V9.33301" stroke="#90A8C3" stroke-width="1.4" stroke-linecap="round" stroke-linejoin="round"/>
</svg>
